<?xml version="1.0" encoding="us-ascii" standalone="no"?><svg xmlns="http://www.w3.org/2000/svg" xmlns:xlink="http://www.w3.org/1999/xlink" contentStyleType="text/css" height="334px" preserveAspectRatio="none" style="width:1642px;height:334px;background:#FFFFFF;" version="1.1" viewBox="0 0 1642 334" width="1642px" zoomAndPan="magnify"><defs/><g><!--class EuroCoinStorageService--><g id="elem_EuroCoinStorageService"><rect codeLine="2" fill="#F1F1F1" height="146.9297" id="EuroCoinStorageService" rx="2.5" ry="2.5" style="stroke:#181818;stroke-width:0.5;" width="274" x="32" y="7"/><ellipse cx="82.25" cy="23" fill="#B4A7E5" rx="11" ry="11" style="stroke:#181818;stroke-width:1.0;"/><path d="M78.6777,19.2651 L78.6777,17.1069 L86.0571,17.1069 L86.0571,19.2651 L83.5918,19.2651 L83.5918,27.3418 L86.0571,27.3418 L86.0571,29.5 L78.6777,29.5 L78.6777,27.3418 L81.1431,27.3418 L81.1431,19.2651 Z " fill="#000000"/><text fill="#000000" font-family="sans-serif" font-size="14" font-style="italic" lengthAdjust="spacing" textLength="165" x="102.75" y="28.291">EuroCoinStorageService</text><line style="stroke:#181818;stroke-width:0.5;" x1="33" x2="305" y1="39" y2="39"/><line style="stroke:#181818;stroke-width:0.5;" x1="33" x2="305" y1="47" y2="47"/><ellipse cx="43" cy="60.7441" fill="#84BE84" rx="3" ry="3" style="stroke:#038048;stroke-width:1.0;"/><text fill="#000000" font-family="sans-serif" font-size="14" lengthAdjust="spacing" textLength="182" x="52" y="64.5352">void create(EuroCoin coin)</text><ellipse cx="43" cy="77.2324" fill="#84BE84" rx="3" ry="3" style="stroke:#038048;stroke-width:1.0;"/><text fill="#000000" font-family="sans-serif" font-size="14" lengthAdjust="spacing" textLength="248" x="52" y="81.0234">Optional&lt;EuroCoin&gt; read(String id)</text><ellipse cx="43" cy="93.7207" fill="#84BE84" rx="3" ry="3" style="stroke:#038048;stroke-width:1.0;"/><text fill="#000000" font-family="sans-serif" font-size="14" lengthAdjust="spacing" textLength="188" x="52" y="97.5117">void update(EuroCoin coin)</text><ellipse cx="43" cy="110.209" fill="#84BE84" rx="3" ry="3" style="stroke:#038048;stroke-width:1.0;"/><text fill="#000000" font-family="sans-serif" font-size="14" lengthAdjust="spacing" textLength="143" x="52" y="114">void delete(String id)</text><ellipse cx="43" cy="126.6973" fill="#84BE84" rx="3" ry="3" style="stroke:#038048;stroke-width:1.0;"/><text fill="#000000" font-family="sans-serif" font-size="14" lengthAdjust="spacing" textLength="163" x="52" y="130.4883">List&lt;EuroCoin&gt; getAll()</text><ellipse cx="43" cy="143.1855" fill="#84BE84" rx="3" ry="3" style="stroke:#038048;stroke-width:1.0;"/><text fill="#000000" font-family="sans-serif" font-size="14" lengthAdjust="spacing" textLength="168" x="52" y="146.9766">boolean exists(String id)</text></g><!--class EuroCoinCollectionStorageService--><g id="elem_EuroCoinCollectionStorageService"><rect codeLine="11" fill="#F1F1F1" height="146.9297" id="EuroCoinCollectionStorageService" rx="2.5" ry="2.5" style="stroke:#181818;stroke-width:0.5;" width="343" x="390.5" y="7"/><ellipse cx="440.75" cy="23" fill="#B4A7E5" rx="11" ry="11" style="stroke:#181818;stroke-width:1.0;"/><path d="M437.1777,19.2651 L437.1777,17.1069 L444.5571,17.1069 L444.5571,19.2651 L442.0918,19.2651 L442.0918,27.3418 L444.5571,27.3418 L444.5571,29.5 L437.1777,29.5 L437.1777,27.3418 L439.6431,27.3418 L439.6431,19.2651 Z " fill="#000000"/><text fill="#000000" font-family="sans-serif" font-size="14" font-style="italic" lengthAdjust="spacing" textLength="234" x="461.25" y="28.291">EuroCoinCollectionStorageService</text><line style="stroke:#181818;stroke-width:0.5;" x1="391.5" x2="732.5" y1="39" y2="39"/><line style="stroke:#181818;stroke-width:0.5;" x1="391.5" x2="732.5" y1="47" y2="47"/><ellipse cx="401.5" cy="60.7441" fill="#84BE84" rx="3" ry="3" style="stroke:#038048;stroke-width:1.0;"/><text fill="#000000" font-family="sans-serif" font-size="14" lengthAdjust="spacing" textLength="288" x="410.5" y="64.5352">void create(EuroCoinCollection collection)</text><ellipse cx="401.5" cy="77.2324" fill="#84BE84" rx="3" ry="3" style="stroke:#038048;stroke-width:1.0;"/><text fill="#000000" font-family="sans-serif" font-size="14" lengthAdjust="spacing" textLength="317" x="410.5" y="81.0234">Optional&lt;EuroCoinCollection&gt; read(String id)</text><ellipse cx="401.5" cy="93.7207" fill="#84BE84" rx="3" ry="3" style="stroke:#038048;stroke-width:1.0;"/><text fill="#000000" font-family="sans-serif" font-size="14" lengthAdjust="spacing" textLength="294" x="410.5" y="97.5117">void update(EuroCoinCollection collection)</text><ellipse cx="401.5" cy="110.209" fill="#84BE84" rx="3" ry="3" style="stroke:#038048;stroke-width:1.0;"/><text fill="#000000" font-family="sans-serif" font-size="14" lengthAdjust="spacing" textLength="143" x="410.5" y="114">void delete(String id)</text><ellipse cx="401.5" cy="126.6973" fill="#84BE84" rx="3" ry="3" style="stroke:#038048;stroke-width:1.0;"/><text fill="#000000" font-family="sans-serif" font-size="14" lengthAdjust="spacing" textLength="232" x="410.5" y="130.4883">List&lt;EuroCoinCollection&gt; getAll()</text><ellipse cx="401.5" cy="143.1855" fill="#84BE84" rx="3" ry="3" style="stroke:#038048;stroke-width:1.0;"/><text fill="#000000" font-family="sans-serif" font-size="14" lengthAdjust="spacing" textLength="168" x="410.5" y="146.9766">boolean exists(String id)</text></g><!--class EuroCoinCollectionGroupStorageService--><g id="elem_EuroCoinCollectionGroupStorageService"><rect codeLine="20" fill="#F1F1F1" height="146.9297" id="EuroCoinCollectionGroupStorageService" rx="2.5" ry="2.5" style="stroke:#181818;stroke-width:0.5;" width="435" x="794.5" y="7"/><ellipse cx="869.25" cy="23" fill="#B4A7E5" rx="11" ry="11" style="stroke:#181818;stroke-width:1.0;"/><path d="M865.6777,19.2651 L865.6777,17.1069 L873.0571,17.1069 L873.0571,19.2651 L870.5918,19.2651 L870.5918,27.3418 L873.0571,27.3418 L873.0571,29.5 L865.6777,29.5 L865.6777,27.3418 L868.1431,27.3418 L868.1431,19.2651 Z " fill="#000000"/><text fill="#000000" font-family="sans-serif" font-size="14" font-style="italic" lengthAdjust="spacing" textLength="277" x="889.75" y="28.291">EuroCoinCollectionGroupStorageService</text><line style="stroke:#181818;stroke-width:0.5;" x1="795.5" x2="1228.5" y1="39" y2="39"/><line style="stroke:#181818;stroke-width:0.5;" x1="795.5" x2="1228.5" y1="47" y2="47"/><ellipse cx="805.5" cy="60.7441" fill="#84BE84" rx="3" ry="3" style="stroke:#038048;stroke-width:1.0;"/><text fill="#000000" font-family="sans-serif" font-size="14" lengthAdjust="spacing" textLength="307" x="814.5" y="64.5352">void create(EuroCoinCollectionGroup group)</text><ellipse cx="805.5" cy="77.2324" fill="#84BE84" rx="3" ry="3" style="stroke:#038048;stroke-width:1.0;"/><text fill="#000000" font-family="sans-serif" font-size="14" lengthAdjust="spacing" textLength="360" x="814.5" y="81.0234">Optional&lt;EuroCoinCollectionGroup&gt; read(String id)</text><ellipse cx="805.5" cy="93.7207" fill="#84BE84" rx="3" ry="3" style="stroke:#038048;stroke-width:1.0;"/><text fill="#000000" font-family="sans-serif" font-size="14" lengthAdjust="spacing" textLength="313" x="814.5" y="97.5117">void update(EuroCoinCollectionGroup group)</text><ellipse cx="805.5" cy="110.209" fill="#84BE84" rx="3" ry="3" style="stroke:#038048;stroke-width:1.0;"/><text fill="#000000" font-family="sans-serif" font-size="14" lengthAdjust="spacing" textLength="143" x="814.5" y="114">void delete(String id)</text><ellipse cx="805.5" cy="126.6973" fill="#84BE84" rx="3" ry="3" style="stroke:#038048;stroke-width:1.0;"/><text fill="#000000" font-family="sans-serif" font-size="14" lengthAdjust="spacing" textLength="409" x="814.5" y="130.4883">List&lt;EuroCoinCollectionGroup&gt; getAllByUser(String userId)</text><ellipse cx="805.5" cy="143.1855" fill="#84BE84" rx="3" ry="3" style="stroke:#038048;stroke-width:1.0;"/><text fill="#000000" font-family="sans-serif" font-size="14" lengthAdjust="spacing" textLength="168" x="814.5" y="146.9766">boolean exists(String id)</text></g><!--class UserStorageService--><g id="elem_UserStorageService"><rect codeLine="29" fill="#F1F1F1" height="146.9297" id="UserStorageService" rx="2.5" ry="2.5" style="stroke:#181818;stroke-width:0.5;" width="371" x="1264.5" y="7"/><ellipse cx="1379.75" cy="23" fill="#B4A7E5" rx="11" ry="11" style="stroke:#181818;stroke-width:1.0;"/><path d="M1376.1777,19.2651 L1376.1777,17.1069 L1383.5571,17.1069 L1383.5571,19.2651 L1381.0918,19.2651 L1381.0918,27.3418 L1383.5571,27.3418 L1383.5571,29.5 L1376.1777,29.5 L1376.1777,27.3418 L1378.6431,27.3418 L1378.6431,19.2651 Z " fill="#000000"/><text fill="#000000" font-family="sans-serif" font-size="14" font-style="italic" lengthAdjust="spacing" textLength="132" x="1400.25" y="28.291">UserStorageService</text><line style="stroke:#181818;stroke-width:0.5;" x1="1265.5" x2="1634.5" y1="39" y2="39"/><line style="stroke:#181818;stroke-width:0.5;" x1="1265.5" x2="1634.5" y1="47" y2="47"/><ellipse cx="1275.5" cy="60.7441" fill="#84BE84" rx="3" ry="3" style="stroke:#038048;stroke-width:1.0;"/><text fill="#000000" font-family="sans-serif" font-size="14" lengthAdjust="spacing" textLength="150" x="1284.5" y="64.5352">void create(User user)</text><ellipse cx="1275.5" cy="77.2324" fill="#84BE84" rx="3" ry="3" style="stroke:#038048;stroke-width:1.0;"/><text fill="#000000" font-family="sans-serif" font-size="14" lengthAdjust="spacing" textLength="245" x="1284.5" y="81.0234">Optional&lt;User&gt; read(String userId)</text><ellipse cx="1275.5" cy="93.7207" fill="#84BE84" rx="3" ry="3" style="stroke:#038048;stroke-width:1.0;"/><text fill="#000000" font-family="sans-serif" font-size="14" lengthAdjust="spacing" textLength="156" x="1284.5" y="97.5117">void update(User user)</text><ellipse cx="1275.5" cy="110.209" fill="#84BE84" rx="3" ry="3" style="stroke:#038048;stroke-width:1.0;"/><text fill="#000000" font-family="sans-serif" font-size="14" lengthAdjust="spacing" textLength="173" x="1284.5" y="114">void delete(String userId)</text><ellipse cx="1275.5" cy="126.6973" fill="#84BE84" rx="3" ry="3" style="stroke:#038048;stroke-width:1.0;"/><text fill="#000000" font-family="sans-serif" font-size="14" lengthAdjust="spacing" textLength="168" x="1284.5" y="130.4883">boolean exists(String id)</text><ellipse cx="1275.5" cy="143.1855" fill="#84BE84" rx="3" ry="3" style="stroke:#038048;stroke-width:1.0;"/><text fill="#000000" font-family="sans-serif" font-size="14" lengthAdjust="spacing" textLength="345" x="1284.5" y="146.9766">Optional&lt;User&gt; getByUsername(String username)</text></g><!--class EuroCoinStorageServiceImpl--><g id="elem_EuroCoinStorageServiceImpl"><rect codeLine="38" fill="#F1F1F1" height="113.9531" id="EuroCoinStorageServiceImpl" rx="2.5" ry="2.5" style="stroke:#181818;stroke-width:0.5;" width="324" x="7" y="213.93"/><ellipse cx="67.25" cy="229.93" fill="#ADD1B2" rx="11" ry="11" style="stroke:#181818;stroke-width:1.0;"/><path d="M69.7231,236.0731 Q69.1421,236.3719 68.5029,236.5213 Q67.8638,236.6707 67.1582,236.6707 Q64.6514,236.6707 63.3315,235.0189 Q62.0117,233.367 62.0117,230.2459 Q62.0117,227.1165 63.3315,225.4647 Q64.6514,223.8128 67.1582,223.8128 Q67.8638,223.8128 68.5112,223.9622 Q69.1587,224.1116 69.7231,224.4105 L69.7231,227.1331 Q69.0923,226.5521 68.4988,226.2823 Q67.9053,226.0125 67.2744,226.0125 Q65.9297,226.0125 65.2449,227.0792 Q64.5601,228.1458 64.5601,230.2459 Q64.5601,232.3377 65.2449,233.4044 Q65.9297,234.471 67.2744,234.471 Q67.9053,234.471 68.4988,234.2012 Q69.0923,233.9315 69.7231,233.3504 Z " fill="#000000"/><text fill="#000000" font-family="sans-serif" font-size="14" lengthAdjust="spacing" textLength="195" x="87.75" y="235.221">EuroCoinStorageServiceImpl</text><line style="stroke:#181818;stroke-width:0.5;" x1="8" x2="330" y1="245.93" y2="245.93"/><rect fill="none" height="6" style="stroke:#C82930;stroke-width:1.0;" width="6" x="15" y="256.6741"/><text fill="#000000" font-family="sans-serif" font-size="14" lengthAdjust="spacing" textLength="179" x="27" y="263.4652">static final logger : Logger</text><rect fill="none" height="6" style="stroke:#C82930;stroke-width:1.0;" width="6" x="15" y="273.1624"/><text fill="#000000" font-family="sans-serif" font-size="14" lengthAdjust="spacing" textLength="193" x="27" y="279.9534">final DataSource dataSource</text><rect fill="none" height="6" style="stroke:#C82930;stroke-width:1.0;" width="6" x="15" y="289.6507"/><text fill="#000000" font-family="sans-serif" font-size="14" lengthAdjust="spacing" textLength="298" x="27" y="296.4417">final EuroCoinStorageRepository repository</text><rect fill="none" height="6" style="stroke:#C82930;stroke-width:1.0;" width="6" x="15" y="306.139"/><text fill="#000000" font-family="sans-serif" font-size="14" lengthAdjust="spacing" textLength="152" x="27" y="312.93">final String tableName</text><line style="stroke:#181818;stroke-width:0.5;" x1="8" x2="330" y1="319.8831" y2="319.8831"/></g><!--class EuroCoinCollectionStorageServiceImpl--><g id="elem_EuroCoinCollectionStorageServiceImpl"><rect codeLine="45" fill="#F1F1F1" height="113.9531" id="EuroCoinCollectionStorageServiceImpl" rx="2.5" ry="2.5" style="stroke:#181818;stroke-width:0.5;" width="393" x="365.5" y="213.93"/><ellipse cx="425.75" cy="229.93" fill="#ADD1B2" rx="11" ry="11" style="stroke:#181818;stroke-width:1.0;"/><path d="M428.2231,236.0731 Q427.6421,236.3719 427.0029,236.5213 Q426.3638,236.6707 425.6582,236.6707 Q423.1514,236.6707 421.8315,235.0189 Q420.5117,233.367 420.5117,230.2459 Q420.5117,227.1165 421.8315,225.4647 Q423.1514,223.8128 425.6582,223.8128 Q426.3638,223.8128 427.0112,223.9622 Q427.6587,224.1116 428.2231,224.4105 L428.2231,227.1331 Q427.5923,226.5521 426.9988,226.2823 Q426.4053,226.0125 425.7744,226.0125 Q424.4297,226.0125 423.7449,227.0792 Q423.0601,228.1458 423.0601,230.2459 Q423.0601,232.3377 423.7449,233.4044 Q424.4297,234.471 425.7744,234.471 Q426.4053,234.471 426.9988,234.2012 Q427.5923,233.9315 428.2231,233.3504 Z " fill="#000000"/><text fill="#000000" font-family="sans-serif" font-size="14" lengthAdjust="spacing" textLength="264" x="446.25" y="235.221">EuroCoinCollectionStorageServiceImpl</text><line style="stroke:#181818;stroke-width:0.5;" x1="366.5" x2="757.5" y1="245.93" y2="245.93"/><rect fill="none" height="6" style="stroke:#C82930;stroke-width:1.0;" width="6" x="373.5" y="256.6741"/><text fill="#000000" font-family="sans-serif" font-size="14" lengthAdjust="spacing" textLength="179" x="385.5" y="263.4652">static final logger : Logger</text><rect fill="none" height="6" style="stroke:#C82930;stroke-width:1.0;" width="6" x="373.5" y="273.1624"/><text fill="#000000" font-family="sans-serif" font-size="14" lengthAdjust="spacing" textLength="193" x="385.5" y="279.9534">final DataSource dataSource</text><rect fill="none" height="6" style="stroke:#C82930;stroke-width:1.0;" width="6" x="373.5" y="289.6507"/><text fill="#000000" font-family="sans-serif" font-size="14" lengthAdjust="spacing" textLength="367" x="385.5" y="296.4417">final EuroCoinCollectionStorageRepository repository</text><rect fill="none" height="6" style="stroke:#C82930;stroke-width:1.0;" width="6" x="373.5" y="306.139"/><text fill="#000000" font-family="sans-serif" font-size="14" lengthAdjust="spacing" textLength="152" x="385.5" y="312.93">final String tableName</text><line style="stroke:#181818;stroke-width:0.5;" x1="366.5" x2="757.5" y1="319.8831" y2="319.8831"/></g><!--class EuroCoinCollectionGroupStorageServiceImpl--><g id="elem_EuroCoinCollectionGroupStorageServiceImpl"><rect codeLine="52" fill="#F1F1F1" height="113.9531" id="EuroCoinCollectionGroupStorageServiceImpl" rx="2.5" ry="2.5" style="stroke:#181818;stroke-width:0.5;" width="436" x="794" y="213.93"/><ellipse cx="854.25" cy="229.93" fill="#ADD1B2" rx="11" ry="11" style="stroke:#181818;stroke-width:1.0;"/><path d="M856.7231,236.0731 Q856.1421,236.3719 855.5029,236.5213 Q854.8638,236.6707 854.1582,236.6707 Q851.6514,236.6707 850.3315,235.0189 Q849.0117,233.367 849.0117,230.2459 Q849.0117,227.1165 850.3315,225.4647 Q851.6514,223.8128 854.1582,223.8128 Q854.8638,223.8128 855.5112,223.9622 Q856.1587,224.1116 856.7231,224.4105 L856.7231,227.1331 Q856.0923,226.5521 855.4988,226.2823 Q854.9053,226.0125 854.2744,226.0125 Q852.9297,226.0125 852.2449,227.0792 Q851.5601,228.1458 851.5601,230.2459 Q851.5601,232.3377 852.2449,233.4044 Q852.9297,234.471 854.2744,234.471 Q854.9053,234.471 855.4988,234.2012 Q856.0923,233.9315 856.7231,233.3504 Z " fill="#000000"/><text fill="#000000" font-family="sans-serif" font-size="14" lengthAdjust="spacing" textLength="307" x="874.75" y="235.221">EuroCoinCollectionGroupStorageServiceImpl</text><line style="stroke:#181818;stroke-width:0.5;" x1="795" x2="1229" y1="245.93" y2="245.93"/><rect fill="none" height="6" style="stroke:#C82930;stroke-width:1.0;" width="6" x="802" y="256.6741"/><text fill="#000000" font-family="sans-serif" font-size="14" lengthAdjust="spacing" textLength="179" x="814" y="263.4652">static final logger : Logger</text><rect fill="none" height="6" style="stroke:#C82930;stroke-width:1.0;" width="6" x="802" y="273.1624"/><text fill="#000000" font-family="sans-serif" font-size="14" lengthAdjust="spacing" textLength="193" x="814" y="279.9534">final DataSource dataSource</text><rect fill="none" height="6" style="stroke:#C82930;stroke-width:1.0;" width="6" x="802" y="289.6507"/><text fill="#000000" font-family="sans-serif" font-size="14" lengthAdjust="spacing" textLength="410" x="814" y="296.4417">final EuroCoinCollectionGroupStorageRepository repository</text><rect fill="none" height="6" style="stroke:#C82930;stroke-width:1.0;" width="6" x="802" y="306.139"/><text fill="#000000" font-family="sans-serif" font-size="14" lengthAdjust="spacing" textLength="152" x="814" y="312.93">final String tableName</text><line style="stroke:#181818;stroke-width:0.5;" x1="795" x2="1229" y1="319.8831" y2="319.8831"/></g><!--class UserStorageServiceImpl--><g id="elem_UserStorageServiceImpl"><rect codeLine="59" fill="#F1F1F1" height="113.9531" id="UserStorageServiceImpl" rx="2.5" ry="2.5" style="stroke:#181818;stroke-width:0.5;" width="291" x="1304.5" y="213.93"/><ellipse cx="1364.75" cy="229.93" fill="#ADD1B2" rx="11" ry="11" style="stroke:#181818;stroke-width:1.0;"/><path d="M1367.2231,236.0731 Q1366.6421,236.3719 1366.0029,236.5213 Q1365.3638,236.6707 1364.6582,236.6707 Q1362.1514,236.6707 1360.8315,235.0189 Q1359.5117,233.367 1359.5117,230.2459 Q1359.5117,227.1165 1360.8315,225.4647 Q1362.1514,223.8128 1364.6582,223.8128 Q1365.3638,223.8128 1366.0112,223.9622 Q1366.6587,224.1116 1367.2231,224.4105 L1367.2231,227.1331 Q1366.5923,226.5521 1365.9988,226.2823 Q1365.4053,226.0125 1364.7744,226.0125 Q1363.4297,226.0125 1362.7449,227.0792 Q1362.0601,228.1458 1362.0601,230.2459 Q1362.0601,232.3377 1362.7449,233.4044 Q1363.4297,234.471 1364.7744,234.471 Q1365.4053,234.471 1365.9988,234.2012 Q1366.5923,233.9315 1367.2231,233.3504 Z " fill="#000000"/><text fill="#000000" font-family="sans-serif" font-size="14" lengthAdjust="spacing" textLength="162" x="1385.25" y="235.221">UserStorageServiceImpl</text><line style="stroke:#181818;stroke-width:0.5;" x1="1305.5" x2="1594.5" y1="245.93" y2="245.93"/><rect fill="none" height="6" style="stroke:#C82930;stroke-width:1.0;" width="6" x="1312.5" y="256.6741"/><text fill="#000000" font-family="sans-serif" font-size="14" lengthAdjust="spacing" textLength="179" x="1324.5" y="263.4652">static final logger : Logger</text><rect fill="none" height="6" style="stroke:#C82930;stroke-width:1.0;" width="6" x="1312.5" y="273.1624"/><text fill="#000000" font-family="sans-serif" font-size="14" lengthAdjust="spacing" textLength="193" x="1324.5" y="279.9534">final DataSource dataSource</text><rect fill="none" height="6" style="stroke:#C82930;stroke-width:1.0;" width="6" x="1312.5" y="289.6507"/><text fill="#000000" font-family="sans-serif" font-size="14" lengthAdjust="spacing" textLength="265" x="1324.5" y="296.4417">final UserStorageRepository repository</text><rect fill="none" height="6" style="stroke:#C82930;stroke-width:1.0;" width="6" x="1312.5" y="306.139"/><text fill="#000000" font-family="sans-serif" font-size="14" lengthAdjust="spacing" textLength="152" x="1324.5" y="312.93">final String tableName</text><line style="stroke:#181818;stroke-width:0.5;" x1="1305.5" x2="1594.5" y1="319.8831" y2="319.8831"/></g><!--reverse link EuroCoinStorageService to EuroCoinStorageServiceImpl--><g id="link_EuroCoinStorageService_EuroCoinStorageServiceImpl"><path codeLine="66" d="M169,172.32 C169,192 169,194.99 169,213.61 " fill="none" id="EuroCoinStorageService-backto-EuroCoinStorageServiceImpl" style="stroke:#181818;stroke-width:1.0;stroke-dasharray:7.0,7.0;"/><polygon fill="none" points="169,154.32,163,172.32,175,172.32,169,154.32" style="stroke:#181818;stroke-width:1.0;"/></g><!--reverse link EuroCoinCollectionStorageService to EuroCoinCollectionStorageServiceImpl--><g id="link_EuroCoinCollectionStorageService_EuroCoinCollectionStorageServiceImpl"><path codeLine="67" d="M562,172.32 C562,192 562,194.99 562,213.61 " fill="none" id="EuroCoinCollectionStorageService-backto-EuroCoinCollectionStorageServiceImpl" style="stroke:#181818;stroke-width:1.0;stroke-dasharray:7.0,7.0;"/><polygon fill="none" points="562,154.32,556,172.32,568,172.32,562,154.32" style="stroke:#181818;stroke-width:1.0;"/></g><!--reverse link EuroCoinCollectionGroupStorageService to EuroCoinCollectionGroupStorageServiceImpl--><g id="link_EuroCoinCollectionGroupStorageService_EuroCoinCollectionGroupStorageServiceImpl"><path codeLine="68" d="M1012,172.32 C1012,192 1012,194.99 1012,213.61 " fill="none" id="EuroCoinCollectionGroupStorageService-backto-EuroCoinCollectionGroupStorageServiceImpl" style="stroke:#181818;stroke-width:1.0;stroke-dasharray:7.0,7.0;"/><polygon fill="none" points="1012,154.32,1006,172.32,1018,172.32,1012,154.32" style="stroke:#181818;stroke-width:1.0;"/></g><!--reverse link UserStorageService to UserStorageServiceImpl--><g id="link_UserStorageService_UserStorageServiceImpl"><path codeLine="69" d="M1450,172.32 C1450,192 1450,194.99 1450,213.61 " fill="none" id="UserStorageService-backto-UserStorageServiceImpl" style="stroke:#181818;stroke-width:1.0;stroke-dasharray:7.0,7.0;"/><polygon fill="none" points="1450,154.32,1444,172.32,1456,172.32,1450,154.32" style="stroke:#181818;stroke-width:1.0;"/></g><!--SRC=[lLNTJi8m5BxlK_GIOkG1335HD8Q4QEBY0vJri3Gfwz9sHAA-ksTbaywkE0QuY-L0ltE-dwsTo2te5Kk1FfPQpPJ84wiqoo01lH7uzmUXU5tHZHASfXgOXL43fIdUnZNWfR12vKnEczLRYcW-IgmMUKO57_kJoe979pa01ma82BeNmbYF8WDx9-MeMLqg9O7b5DuHPlpkBq94u7Mcf8Iqqds4wtqJgcxAQ0fxz35v7EJeduzFVgwadhGgYq5nkKwQLVSUSJdqiCmwY8PaLYlO1NU_VJEWczuIwpa_CijgG8_WAfWZ24AgLjg9j7NugGHJEXBeww9J1iQoooHdwzR4whTpdafcJEHScQyBMRk_fiOoArAw4ZYTIfLbAFs6BbnHGtPh3yooH9KQa-C_PGlnY-qL2cK4rbkChIbR3RLmovOIdb5vA3nsI5pQGi1xNZCT-_Z_7FdafzWAjzIbF7XCmmH7lg_Jpydam1uXVtwgMWCElQkatraUcHTvNKZ7eUOcT3yPyWq0]--></g></svg>