<?xml version="1.0" encoding="us-ascii" standalone="no"?><svg xmlns="http://www.w3.org/2000/svg" xmlns:xlink="http://www.w3.org/1999/xlink" contentStyleType="text/css" height="1280px" preserveAspectRatio="none" style="width:1076px;height:1280px;background:#FFFFFF;" version="1.1" viewBox="0 0 1076 1280" width="1076px" zoomAndPan="magnify"><defs/><g><!--class CoinValue--><g id="elem_CoinValue"><rect codeLine="3" fill="#F1F1F1" height="179.9063" id="CoinValue" rx="2.5" ry="2.5" style="stroke:#181818;stroke-width:0.5;" width="125" x="216" y="970.33"/><ellipse cx="241.35" cy="986.33" fill="#EB937F" rx="11" ry="11" style="stroke:#181818;stroke-width:1.0;"/><path d="M244.9643,992.83 L237.2445,992.83 L237.2445,980.4369 L244.9643,980.4369 L244.9643,982.5951 L239.6933,982.5951 L239.6933,985.268 L244.4662,985.268 L244.4662,987.4262 L239.6933,987.4262 L239.6933,990.6718 L244.9643,990.6718 Z " fill="#000000"/><text fill="#000000" font-family="sans-serif" font-size="14" lengthAdjust="spacing" textLength="70" x="257.65" y="991.621">CoinValue</text><line style="stroke:#181818;stroke-width:0.5;" x1="217" x2="340" y1="1002.33" y2="1002.33"/><text fill="#000000" font-family="sans-serif" font-size="14" lengthAdjust="spacing" textLength="77" x="222" y="1019.8652">ONE_CENT,</text><text fill="#000000" font-family="sans-serif" font-size="14" lengthAdjust="spacing" textLength="88" x="222" y="1036.3534">TWO_CENTS,</text><text fill="#000000" font-family="sans-serif" font-size="14" lengthAdjust="spacing" textLength="85" x="222" y="1052.8417">FIVE_CENTS,</text><text fill="#000000" font-family="sans-serif" font-size="14" lengthAdjust="spacing" textLength="83" x="222" y="1069.33">TEN_CENTS,</text><text fill="#000000" font-family="sans-serif" font-size="14" lengthAdjust="spacing" textLength="113" x="222" y="1085.8183">TWENTY_CENTS,</text><text fill="#000000" font-family="sans-serif" font-size="14" lengthAdjust="spacing" textLength="94" x="222" y="1102.3066">FIFTY_CENTS,</text><text fill="#000000" font-family="sans-serif" font-size="14" lengthAdjust="spacing" textLength="78" x="222" y="1118.7948">ONE_EURO,</text><text fill="#000000" font-family="sans-serif" font-size="14" lengthAdjust="spacing" textLength="85" x="222" y="1135.2831">TWO_EUROS</text><line style="stroke:#181818;stroke-width:0.5;" x1="217" x2="340" y1="1142.2363" y2="1142.2363"/></g><!--class CoinCountry--><g id="elem_CoinCountry"><rect codeLine="14" fill="#F1F1F1" height="427.2305" id="CoinCountry" rx="2.5" ry="2.5" style="stroke:#181818;stroke-width:0.5;" width="119" x="376" y="846.67"/><ellipse cx="391" cy="862.67" fill="#EB937F" rx="11" ry="11" style="stroke:#181818;stroke-width:1.0;"/><path d="M394.6143,869.17 L386.8945,869.17 L386.8945,856.7769 L394.6143,856.7769 L394.6143,858.9351 L389.3433,858.9351 L389.3433,861.608 L394.1162,861.608 L394.1162,863.7662 L389.3433,863.7662 L389.3433,867.0118 L394.6143,867.0118 Z " fill="#000000"/><text fill="#000000" font-family="sans-serif" font-size="14" lengthAdjust="spacing" textLength="87" x="405" y="867.961">CoinCountry</text><line style="stroke:#181818;stroke-width:0.5;" x1="377" x2="494" y1="878.67" y2="878.67"/><text fill="#000000" font-family="sans-serif" font-size="14" lengthAdjust="spacing" textLength="64" x="382" y="896.2052">AUSTRIA,</text><text fill="#000000" font-family="sans-serif" font-size="14" lengthAdjust="spacing" textLength="63" x="382" y="912.6934">BELGIUM,</text><text fill="#000000" font-family="sans-serif" font-size="14" lengthAdjust="spacing" textLength="58" x="382" y="929.1817">CYPRUS,</text><text fill="#000000" font-family="sans-serif" font-size="14" lengthAdjust="spacing" textLength="72" x="382" y="945.67">GERMANY,</text><text fill="#000000" font-family="sans-serif" font-size="14" lengthAdjust="spacing" textLength="64" x="382" y="962.1583">ESTONIA,</text><text fill="#000000" font-family="sans-serif" font-size="14" lengthAdjust="spacing" textLength="44" x="382" y="978.6466">SPAIN,</text><text fill="#000000" font-family="sans-serif" font-size="14" lengthAdjust="spacing" textLength="63" x="382" y="995.1348">FINLAND,</text><text fill="#000000" font-family="sans-serif" font-size="14" lengthAdjust="spacing" textLength="59" x="382" y="1011.6231">FRANCE,</text><text fill="#000000" font-family="sans-serif" font-size="14" lengthAdjust="spacing" textLength="57" x="382" y="1028.1114">GREECE,</text><text fill="#000000" font-family="sans-serif" font-size="14" lengthAdjust="spacing" textLength="62" x="382" y="1044.5997">IRELAND,</text><text fill="#000000" font-family="sans-serif" font-size="14" lengthAdjust="spacing" textLength="43" x="382" y="1061.088">ITALY,</text><text fill="#000000" font-family="sans-serif" font-size="14" lengthAdjust="spacing" textLength="78" x="382" y="1077.5763">LITHUANIA,</text><text fill="#000000" font-family="sans-serif" font-size="14" lengthAdjust="spacing" textLength="98" x="382" y="1094.0645">LUXEMBOURG,</text><text fill="#000000" font-family="sans-serif" font-size="14" lengthAdjust="spacing" textLength="53" x="382" y="1110.5528">LATVIA,</text><text fill="#000000" font-family="sans-serif" font-size="14" lengthAdjust="spacing" textLength="52" x="382" y="1127.0411">MALTA,</text><text fill="#000000" font-family="sans-serif" font-size="14" lengthAdjust="spacing" textLength="103" x="382" y="1143.5294">NETHERLANDS,</text><text fill="#000000" font-family="sans-serif" font-size="14" lengthAdjust="spacing" textLength="78" x="382" y="1160.0177">PORTUGAL,</text><text fill="#000000" font-family="sans-serif" font-size="14" lengthAdjust="spacing" textLength="71" x="382" y="1176.5059">SLOVENIA,</text><text fill="#000000" font-family="sans-serif" font-size="14" lengthAdjust="spacing" textLength="72" x="382" y="1192.9942">SLOVAKIA,</text><text fill="#000000" font-family="sans-serif" font-size="14" lengthAdjust="spacing" textLength="95" x="382" y="1209.4825">SAN_MARINO,</text><text fill="#000000" font-family="sans-serif" font-size="14" lengthAdjust="spacing" textLength="105" x="382" y="1225.9708">VATICAN_CITY,</text><text fill="#000000" font-family="sans-serif" font-size="14" lengthAdjust="spacing" textLength="68" x="382" y="1242.4591">MONACO,</text><text fill="#000000" font-family="sans-serif" font-size="14" lengthAdjust="spacing" textLength="69" x="382" y="1258.9473">ANDORRA</text><line style="stroke:#181818;stroke-width:0.5;" x1="377" x2="494" y1="1265.9005" y2="1265.9005"/></g><!--class Mint--><g id="elem_Mint"><rect codeLine="40" fill="#F1F1F1" height="130.4414" id="Mint" rx="2.5" ry="2.5" style="stroke:#181818;stroke-width:0.5;" width="99" x="530" y="995.06"/><ellipse cx="561.65" cy="1011.06" fill="#EB937F" rx="11" ry="11" style="stroke:#181818;stroke-width:1.0;"/><path d="M565.2643,1017.56 L557.5445,1017.56 L557.5445,1005.1669 L565.2643,1005.1669 L565.2643,1007.3251 L559.9933,1007.3251 L559.9933,1009.998 L564.7662,1009.998 L564.7662,1012.1562 L559.9933,1012.1562 L559.9933,1015.4018 L565.2643,1015.4018 Z " fill="#000000"/><text fill="#000000" font-family="sans-serif" font-size="14" lengthAdjust="spacing" textLength="30" x="579.35" y="1016.351">Mint</text><line style="stroke:#181818;stroke-width:0.5;" x1="531" x2="628" y1="1027.06" y2="1027.06"/><text fill="#000000" font-family="sans-serif" font-size="14" lengthAdjust="spacing" textLength="50" x="536" y="1044.5952">BERLIN,</text><text fill="#000000" font-family="sans-serif" font-size="14" lengthAdjust="spacing" textLength="60" x="536" y="1061.0834">MUNICH,</text><text fill="#000000" font-family="sans-serif" font-size="14" lengthAdjust="spacing" textLength="87" x="536" y="1077.5717">STUTTGART,</text><text fill="#000000" font-family="sans-serif" font-size="14" lengthAdjust="spacing" textLength="84" x="536" y="1094.06">KARLSRUHE,</text><text fill="#000000" font-family="sans-serif" font-size="14" lengthAdjust="spacing" textLength="69" x="536" y="1110.5483">HAMBURG</text><line style="stroke:#181818;stroke-width:0.5;" x1="531" x2="628" y1="1117.5014" y2="1117.5014"/></g><!--class CoinDescription--><g id="elem_CoinDescription"><rect codeLine="49" fill="#F1F1F1" height="64.4883" id="CoinDescription" rx="2.5" ry="2.5" style="stroke:#181818;stroke-width:0.5;" width="142" x="663.5" y="1028.04"/><ellipse cx="678.5" cy="1044.04" fill="#ADD1B2" rx="11" ry="11" style="stroke:#181818;stroke-width:1.0;"/><path d="M680.9731,1050.1831 Q680.3921,1050.4819 679.7529,1050.6313 Q679.1138,1050.7807 678.4082,1050.7807 Q675.9014,1050.7807 674.5815,1049.1289 Q673.2617,1047.477 673.2617,1044.3559 Q673.2617,1041.2265 674.5815,1039.5747 Q675.9014,1037.9228 678.4082,1037.9228 Q679.1138,1037.9228 679.7612,1038.0722 Q680.4087,1038.2216 680.9731,1038.5205 L680.9731,1041.2431 Q680.3423,1040.6621 679.7488,1040.3923 Q679.1553,1040.1225 678.5244,1040.1225 Q677.1797,1040.1225 676.4949,1041.1892 Q675.8101,1042.2558 675.8101,1044.3559 Q675.8101,1046.4477 676.4949,1047.5144 Q677.1797,1048.581 678.5244,1048.581 Q679.1553,1048.581 679.7488,1048.3112 Q680.3423,1048.0415 680.9731,1047.4604 Z " fill="#000000"/><text fill="#000000" font-family="sans-serif" font-size="14" lengthAdjust="spacing" textLength="110" x="692.5" y="1049.331">CoinDescription</text><line style="stroke:#181818;stroke-width:0.5;" x1="664.5" x2="804.5" y1="1060.04" y2="1060.04"/><rect fill="none" height="6" style="stroke:#C82930;stroke-width:1.0;" width="6" x="671.5" y="1070.7841"/><text fill="#000000" font-family="sans-serif" font-size="14" lengthAdjust="spacing" textLength="80" x="683.5" y="1077.5752">text : String</text><line style="stroke:#181818;stroke-width:0.5;" x1="664.5" x2="804.5" y1="1084.5283" y2="1084.5283"/></g><!--class Coin--><g id="elem_Coin"><rect codeLine="54" fill="#F1F1F1" height="146.9297" id="Coin" rx="2.5" ry="2.5" style="stroke:#181818;stroke-width:0.5;" width="366" x="696.5" y="622.74"/><ellipse cx="859.25" cy="638.74" fill="#B4A7E5" rx="11" ry="11" style="stroke:#181818;stroke-width:1.0;"/><path d="M855.6777,635.0051 L855.6777,632.8469 L863.0571,632.8469 L863.0571,635.0051 L860.5918,635.0051 L860.5918,643.0818 L863.0571,643.0818 L863.0571,645.24 L855.6777,645.24 L855.6777,643.0818 L858.1431,643.0818 L858.1431,635.0051 Z " fill="#000000"/><text fill="#000000" font-family="sans-serif" font-size="14" font-style="italic" lengthAdjust="spacing" textLength="32" x="879.75" y="644.031">Coin</text><line style="stroke:#181818;stroke-width:0.5;" x1="697.5" x2="1061.5" y1="654.74" y2="654.74"/><line style="stroke:#181818;stroke-width:0.5;" x1="697.5" x2="1061.5" y1="662.74" y2="662.74"/><ellipse cx="707.5" cy="676.4841" fill="#84BE84" rx="3" ry="3" style="stroke:#038048;stroke-width:1.0;"/><text fill="#000000" font-family="sans-serif" font-size="14" lengthAdjust="spacing" textLength="98" x="716.5" y="680.2752">getId() : String</text><ellipse cx="707.5" cy="692.9724" fill="#84BE84" rx="3" ry="3" style="stroke:#038048;stroke-width:1.0;"/><text fill="#000000" font-family="sans-serif" font-size="14" lengthAdjust="spacing" textLength="100" x="716.5" y="696.7634">getValue() : int</text><ellipse cx="707.5" cy="709.4607" fill="#84BE84" rx="3" ry="3" style="stroke:#038048;stroke-width:1.0;"/><text fill="#000000" font-family="sans-serif" font-size="14" lengthAdjust="spacing" textLength="93" x="716.5" y="713.2517">getYear() : int</text><ellipse cx="707.5" cy="725.949" fill="#84BE84" rx="3" ry="3" style="stroke:#038048;stroke-width:1.0;"/><text fill="#000000" font-family="sans-serif" font-size="14" lengthAdjust="spacing" textLength="163" x="716.5" y="729.74">getDescription() : String</text><ellipse cx="707.5" cy="742.4373" fill="#84BE84" rx="3" ry="3" style="stroke:#038048;stroke-width:1.0;"/><text fill="#000000" font-family="sans-serif" font-size="14" lengthAdjust="spacing" textLength="340" x="716.5" y="746.2283">setDescription(CoinDescription description) : void</text><ellipse cx="707.5" cy="758.9255" fill="#84BE84" rx="3" ry="3" style="stroke:#038048;stroke-width:1.0;"/><text fill="#000000" font-family="sans-serif" font-size="14" lengthAdjust="spacing" textLength="167" x="716.5" y="762.7166">getCollectionId() : String</text></g><!--class CoinCollection--><g id="elem_CoinCollection"><rect codeLine="63" fill="#F1F1F1" height="163.418" id="CoinCollection" rx="2.5" ry="2.5" style="stroke:#181818;stroke-width:0.5;" width="210" x="366.5" y="332.86"/><ellipse cx="394.1" cy="348.86" fill="#B4A7E5" rx="11" ry="11" style="stroke:#181818;stroke-width:1.0;"/><path d="M390.5277,345.1251 L390.5277,342.9669 L397.9071,342.9669 L397.9071,345.1251 L395.4418,345.1251 L395.4418,353.2018 L397.9071,353.2018 L397.9071,355.36 L390.5277,355.36 L390.5277,353.2018 L392.9931,353.2018 L392.9931,345.1251 Z " fill="#000000"/><text fill="#000000" font-family="sans-serif" font-size="14" font-style="italic" lengthAdjust="spacing" textLength="101" x="410.9" y="354.151">CoinCollection</text><rect fill="#FFFFFF" height="16.1328" style="stroke:#181818;stroke-width:1.0;stroke-dasharray:2.0,2.0;" width="47" x="532.5" y="329.86"/><text fill="#000000" font-family="sans-serif" font-size="12" font-style="italic" lengthAdjust="spacing" textLength="45" x="533.5" y="342.4616">T : Coin</text><line style="stroke:#181818;stroke-width:0.5;" x1="367.5" x2="575.5" y1="364.86" y2="364.86"/><line style="stroke:#181818;stroke-width:0.5;" x1="367.5" x2="575.5" y1="372.86" y2="372.86"/><ellipse cx="377.5" cy="386.6041" fill="#84BE84" rx="3" ry="3" style="stroke:#038048;stroke-width:1.0;"/><text fill="#000000" font-family="sans-serif" font-size="14" lengthAdjust="spacing" textLength="98" x="386.5" y="390.3952">getId() : String</text><ellipse cx="377.5" cy="403.0924" fill="#84BE84" rx="3" ry="3" style="stroke:#038048;stroke-width:1.0;"/><text fill="#000000" font-family="sans-serif" font-size="14" lengthAdjust="spacing" textLength="124" x="386.5" y="406.8834">getName() : String</text><ellipse cx="377.5" cy="419.5807" fill="#84BE84" rx="3" ry="3" style="stroke:#038048;stroke-width:1.0;"/><text fill="#000000" font-family="sans-serif" font-size="14" lengthAdjust="spacing" textLength="137" x="386.5" y="423.3717">getCoins() : List&lt;T&gt;</text><ellipse cx="377.5" cy="436.069" fill="#84BE84" rx="3" ry="3" style="stroke:#038048;stroke-width:1.0;"/><text fill="#000000" font-family="sans-serif" font-size="14" lengthAdjust="spacing" textLength="159" x="386.5" y="439.86">addCoin(coin : T) : void</text><ellipse cx="377.5" cy="452.5573" fill="#84BE84" rx="3" ry="3" style="stroke:#038048;stroke-width:1.0;"/><text fill="#000000" font-family="sans-serif" font-size="14" lengthAdjust="spacing" textLength="184" x="386.5" y="456.3483">removeCoin(coin : T) : void</text><ellipse cx="377.5" cy="469.0455" fill="#84BE84" rx="3" ry="3" style="stroke:#038048;stroke-width:1.0;"/><text fill="#000000" font-family="sans-serif" font-size="14" lengthAdjust="spacing" textLength="135" x="386.5" y="472.8366">getTotalValue() : int</text><ellipse cx="377.5" cy="485.5338" fill="#84BE84" rx="3" ry="3" style="stroke:#038048;stroke-width:1.0;"/><text fill="#000000" font-family="sans-serif" font-size="14" lengthAdjust="spacing" textLength="136" x="386.5" y="489.3248">getCoinCount() : int</text></g><!--class CollectionGroup--><g id="elem_CollectionGroup"><rect codeLine="73" fill="#F1F1F1" height="196.3945" id="CollectionGroup" rx="2.5" ry="2.5" style="stroke:#181818;stroke-width:0.5;" width="329" x="450" y="10"/><ellipse cx="465" cy="26" fill="#B4A7E5" rx="11" ry="11" style="stroke:#181818;stroke-width:1.0;"/><path d="M461.4277,22.2651 L461.4277,20.1069 L468.8071,20.1069 L468.8071,22.2651 L466.3418,22.2651 L466.3418,30.3418 L468.8071,30.3418 L468.8071,32.5 L461.4277,32.5 L461.4277,30.3418 L463.8931,30.3418 L463.8931,22.2651 Z " fill="#000000"/><text fill="#000000" font-family="sans-serif" font-size="14" font-style="italic" lengthAdjust="spacing" textLength="112" x="479" y="31.291">CollectionGroup</text><rect fill="#FFFFFF" height="16.1328" style="stroke:#181818;stroke-width:1.0;stroke-dasharray:2.0,2.0;" width="183" x="599" y="7"/><text fill="#000000" font-family="sans-serif" font-size="12" font-style="italic" lengthAdjust="spacing" textLength="181" x="600" y="19.6016">T : Coin, C : CoinCollection&lt;T&gt;</text><line style="stroke:#181818;stroke-width:0.5;" x1="451" x2="778" y1="42" y2="42"/><line style="stroke:#181818;stroke-width:0.5;" x1="451" x2="778" y1="50" y2="50"/><ellipse cx="461" cy="63.7441" fill="#84BE84" rx="3" ry="3" style="stroke:#038048;stroke-width:1.0;"/><text fill="#000000" font-family="sans-serif" font-size="14" lengthAdjust="spacing" textLength="98" x="470" y="67.5352">getId() : String</text><ellipse cx="461" cy="80.2324" fill="#84BE84" rx="3" ry="3" style="stroke:#038048;stroke-width:1.0;"/><text fill="#000000" font-family="sans-serif" font-size="14" lengthAdjust="spacing" textLength="124" x="470" y="84.0234">getName() : String</text><ellipse cx="461" cy="96.7207" fill="#84BE84" rx="3" ry="3" style="stroke:#038048;stroke-width:1.0;"/><text fill="#000000" font-family="sans-serif" font-size="14" lengthAdjust="spacing" textLength="139" x="470" y="100.5117">String getOwnerId();</text><ellipse cx="461" cy="113.209" fill="#84BE84" rx="3" ry="3" style="stroke:#038048;stroke-width:1.0;"/><text fill="#000000" font-family="sans-serif" font-size="14" lengthAdjust="spacing" textLength="175" x="470" y="117">getCollections() : List&lt;C&gt;</text><ellipse cx="461" cy="129.6973" fill="#84BE84" rx="3" ry="3" style="stroke:#038048;stroke-width:1.0;"/><text fill="#000000" font-family="sans-serif" font-size="14" lengthAdjust="spacing" textLength="234" x="470" y="133.4883">addCollection(collection : C) : void</text><ellipse cx="461" cy="146.1855" fill="#84BE84" rx="3" ry="3" style="stroke:#038048;stroke-width:1.0;"/><text fill="#000000" font-family="sans-serif" font-size="14" lengthAdjust="spacing" textLength="259" x="470" y="149.9766">removeCollection(collection : C) : void</text><ellipse cx="461" cy="162.6738" fill="#84BE84" rx="3" ry="3" style="stroke:#038048;stroke-width:1.0;"/><text fill="#000000" font-family="sans-serif" font-size="14" lengthAdjust="spacing" textLength="173" x="470" y="166.4648">getTotalCollections() : int</text><ellipse cx="461" cy="179.1621" fill="#84BE84" rx="3" ry="3" style="stroke:#038048;stroke-width:1.0;"/><text fill="#000000" font-family="sans-serif" font-size="14" lengthAdjust="spacing" textLength="136" x="470" y="182.9531">getTotalCoins() : int</text><ellipse cx="461" cy="195.6504" fill="#84BE84" rx="3" ry="3" style="stroke:#038048;stroke-width:1.0;"/><text fill="#000000" font-family="sans-serif" font-size="14" lengthAdjust="spacing" textLength="135" x="470" y="199.4414">getTotalValue() : int</text></g><!--class EuroCoin--><g id="elem_EuroCoin"><rect codeLine="86" fill="#F1F1F1" height="97.4648" id="EuroCoin" rx="2.5" ry="2.5" style="stroke:#181818;stroke-width:0.5;" width="158" x="428.5" y="647.47"/><ellipse cx="471.4" cy="663.47" fill="#ADD1B2" rx="11" ry="11" style="stroke:#181818;stroke-width:1.0;"/><path d="M473.8731,669.6131 Q473.2921,669.9119 472.6529,670.0613 Q472.0138,670.2107 471.3082,670.2107 Q468.8014,670.2107 467.4815,668.5589 Q466.1617,666.907 466.1617,663.7859 Q466.1617,660.6565 467.4815,659.0047 Q468.8014,657.3528 471.3082,657.3528 Q472.0138,657.3528 472.6612,657.5022 Q473.3087,657.6516 473.8731,657.9505 L473.8731,660.6731 Q473.2423,660.0921 472.6488,659.8223 Q472.0553,659.5525 471.4244,659.5525 Q470.0797,659.5525 469.3949,660.6192 Q468.7101,661.6858 468.7101,663.7859 Q468.7101,665.8777 469.3949,666.9444 Q470.0797,668.011 471.4244,668.011 Q472.0553,668.011 472.6488,667.7412 Q473.2423,667.4715 473.8731,666.8904 Z " fill="#000000"/><text fill="#000000" font-family="sans-serif" font-size="14" lengthAdjust="spacing" textLength="64" x="491.6" y="668.761">EuroCoin</text><line style="stroke:#181818;stroke-width:0.5;" x1="429.5" x2="585.5" y1="679.47" y2="679.47"/><rect fill="none" height="6" style="stroke:#C82930;stroke-width:1.0;" width="6" x="436.5" y="690.2141"/><text fill="#000000" font-family="sans-serif" font-size="14" lengthAdjust="spacing" textLength="66" x="448.5" y="697.0052">id : String</text><rect fill="none" height="6" style="stroke:#C82930;stroke-width:1.0;" width="6" x="436.5" y="706.7024"/><text fill="#000000" font-family="sans-serif" font-size="14" lengthAdjust="spacing" textLength="59" x="448.5" y="713.4934">year : int</text><rect fill="none" height="6" style="stroke:#C82930;stroke-width:1.0;" width="6" x="436.5" y="723.1907"/><text fill="#000000" font-family="sans-serif" font-size="14" lengthAdjust="spacing" textLength="132" x="448.5" y="729.9817">collectionId : String</text><line style="stroke:#181818;stroke-width:0.5;" x1="429.5" x2="585.5" y1="736.9348" y2="736.9348"/></g><!--class EuroCoinCollection--><g id="elem_EuroCoinCollection"><rect codeLine="98" fill="#F1F1F1" height="80.9766" id="EuroCoinCollection" rx="2.5" ry="2.5" style="stroke:#181818;stroke-width:0.5;" width="165" x="91" y="374.08"/><ellipse cx="106" cy="390.08" fill="#ADD1B2" rx="11" ry="11" style="stroke:#181818;stroke-width:1.0;"/><path d="M108.4731,396.2231 Q107.8921,396.5219 107.2529,396.6713 Q106.6138,396.8207 105.9082,396.8207 Q103.4014,396.8207 102.0815,395.1689 Q100.7617,393.517 100.7617,390.3959 Q100.7617,387.2665 102.0815,385.6147 Q103.4014,383.9628 105.9082,383.9628 Q106.6138,383.9628 107.2612,384.1122 Q107.9087,384.2616 108.4731,384.5605 L108.4731,387.2831 Q107.8423,386.7021 107.2488,386.4323 Q106.6553,386.1625 106.0244,386.1625 Q104.6797,386.1625 103.9949,387.2292 Q103.3101,388.2958 103.3101,390.3959 Q103.3101,392.4877 103.9949,393.5544 Q104.6797,394.621 106.0244,394.621 Q106.6553,394.621 107.2488,394.3512 Q107.8423,394.0815 108.4731,393.5004 Z " fill="#000000"/><text fill="#000000" font-family="sans-serif" font-size="14" lengthAdjust="spacing" textLength="133" x="120" y="395.371">EuroCoinCollection</text><line style="stroke:#181818;stroke-width:0.5;" x1="92" x2="255" y1="406.08" y2="406.08"/><rect fill="none" height="6" style="stroke:#C82930;stroke-width:1.0;" width="6" x="99" y="416.8241"/><text fill="#000000" font-family="sans-serif" font-size="14" lengthAdjust="spacing" textLength="66" x="111" y="423.6152">id : String</text><rect fill="none" height="6" style="stroke:#C82930;stroke-width:1.0;" width="6" x="99" y="433.3124"/><text fill="#000000" font-family="sans-serif" font-size="14" lengthAdjust="spacing" textLength="91" x="111" y="440.1034">name : String</text><line style="stroke:#181818;stroke-width:0.5;" x1="92" x2="255" y1="447.0566" y2="447.0566"/></g><!--class EuroCoinCollectionGroup--><g id="elem_EuroCoinCollectionGroup"><rect codeLine="105" fill="#F1F1F1" height="97.4648" id="EuroCoinCollectionGroup" rx="2.5" ry="2.5" style="stroke:#181818;stroke-width:0.5;" width="333" x="7" y="59.46"/><ellipse cx="81.25" cy="75.46" fill="#ADD1B2" rx="11" ry="11" style="stroke:#181818;stroke-width:1.0;"/><path d="M83.7231,81.6031 Q83.1421,81.9019 82.5029,82.0513 Q81.8638,82.2007 81.1582,82.2007 Q78.6514,82.2007 77.3315,80.5489 Q76.0117,78.897 76.0117,75.7759 Q76.0117,72.6465 77.3315,70.9947 Q78.6514,69.3428 81.1582,69.3428 Q81.8638,69.3428 82.5112,69.4922 Q83.1587,69.6416 83.7231,69.9405 L83.7231,72.6631 Q83.0923,72.0821 82.4988,71.8123 Q81.9053,71.5425 81.2744,71.5425 Q79.9297,71.5425 79.2449,72.6092 Q78.5601,73.6758 78.5601,75.7759 Q78.5601,77.8677 79.2449,78.9344 Q79.9297,80.001 81.2744,80.001 Q81.9053,80.001 82.4988,79.7312 Q83.0923,79.4615 83.7231,78.8804 Z " fill="#000000"/><text fill="#000000" font-family="sans-serif" font-size="14" lengthAdjust="spacing" textLength="176" x="101.75" y="80.751">EuroCoinCollectionGroup</text><line style="stroke:#181818;stroke-width:0.5;" x1="8" x2="339" y1="91.46" y2="91.46"/><rect fill="none" height="6" style="stroke:#C82930;stroke-width:1.0;" width="6" x="15" y="102.2041"/><text fill="#000000" font-family="sans-serif" font-size="14" lengthAdjust="spacing" textLength="66" x="27" y="108.9952">id : String</text><rect fill="none" height="6" style="stroke:#C82930;stroke-width:1.0;" width="6" x="15" y="118.6924"/><text fill="#000000" font-family="sans-serif" font-size="14" lengthAdjust="spacing" textLength="91" x="27" y="125.4834">name : String</text><rect fill="none" height="6" style="stroke:#C82930;stroke-width:1.0;" width="6" x="15" y="135.1807"/><text fill="#000000" font-family="sans-serif" font-size="14" lengthAdjust="spacing" textLength="307" x="27" y="141.9717">ownerId : String  'Reference to the user by ID'</text><line style="stroke:#181818;stroke-width:0.5;" x1="8" x2="339" y1="148.9248" y2="148.9248"/></g><!--class EuroCoinBuilder--><g id="elem_EuroCoinBuilder"><rect codeLine="115" fill="#F1F1F1" height="262.3477" id="EuroCoinBuilder" rx="2.5" ry="2.5" style="stroke:#181818;stroke-width:0.5;" width="457" x="612" y="283.39"/><ellipse cx="780.25" cy="299.39" fill="#ADD1B2" rx="11" ry="11" style="stroke:#181818;stroke-width:1.0;"/><path d="M782.7231,305.5331 Q782.1421,305.8319 781.5029,305.9813 Q780.8638,306.1307 780.1582,306.1307 Q777.6514,306.1307 776.3315,304.4789 Q775.0117,302.827 775.0117,299.7059 Q775.0117,296.5765 776.3315,294.9247 Q777.6514,293.2728 780.1582,293.2728 Q780.8638,293.2728 781.5112,293.4222 Q782.1587,293.5716 782.7231,293.8705 L782.7231,296.5931 Q782.0923,296.0121 781.4988,295.7423 Q780.9053,295.4725 780.2744,295.4725 Q778.9297,295.4725 778.2449,296.5392 Q777.5601,297.6058 777.5601,299.7059 Q777.5601,301.7977 778.2449,302.8644 Q778.9297,303.931 780.2744,303.931 Q780.9053,303.931 781.4988,303.6612 Q782.0923,303.3915 782.7231,302.8104 Z " fill="#000000"/><text fill="#000000" font-family="sans-serif" font-size="14" lengthAdjust="spacing" textLength="112" x="800.75" y="304.681">EuroCoinBuilder</text><line style="stroke:#181818;stroke-width:0.5;" x1="613" x2="1068" y1="315.39" y2="315.39"/><rect fill="none" height="6" style="stroke:#C82930;stroke-width:1.0;" width="6" x="620" y="326.1341"/><text fill="#000000" font-family="sans-serif" font-size="14" lengthAdjust="spacing" textLength="59" x="632" y="332.9252">year : int</text><rect fill="none" height="6" style="stroke:#C82930;stroke-width:1.0;" width="6" x="620" y="342.6224"/><text fill="#000000" font-family="sans-serif" font-size="14" lengthAdjust="spacing" textLength="118" x="632" y="349.4134">value : CoinValue</text><rect fill="none" height="6" style="stroke:#C82930;stroke-width:1.0;" width="6" x="620" y="359.1107"/><text fill="#000000" font-family="sans-serif" font-size="14" lengthAdjust="spacing" textLength="185" x="632" y="365.9017">mintCountry : CoinCountry</text><rect fill="none" height="6" style="stroke:#C82930;stroke-width:1.0;" width="6" x="620" y="375.599"/><text fill="#000000" font-family="sans-serif" font-size="14" lengthAdjust="spacing" textLength="199" x="632" y="382.39">description : CoinDescription</text><rect fill="none" height="6" style="stroke:#C82930;stroke-width:1.0;" width="6" x="620" y="392.0873"/><text fill="#000000" font-family="sans-serif" font-size="14" lengthAdjust="spacing" textLength="73" x="632" y="398.8783">mint : Mint</text><rect fill="none" height="6" style="stroke:#C82930;stroke-width:1.0;" width="6" x="620" y="408.5755"/><text fill="#000000" font-family="sans-serif" font-size="14" lengthAdjust="spacing" textLength="132" x="632" y="415.3666">collectionId : String</text><line style="stroke:#181818;stroke-width:0.5;" x1="613" x2="1068" y1="422.3197" y2="422.3197"/><ellipse cx="623" cy="436.0638" fill="#84BE84" rx="3" ry="3" style="stroke:#038048;stroke-width:1.0;"/><text fill="#000000" font-family="sans-serif" font-size="14" lengthAdjust="spacing" textLength="244" x="632" y="439.8548">setYear(year : int) : EuroCoinBuilder</text><ellipse cx="623" cy="452.5521" fill="#84BE84" rx="3" ry="3" style="stroke:#038048;stroke-width:1.0;"/><text fill="#000000" font-family="sans-serif" font-size="14" lengthAdjust="spacing" textLength="310" x="632" y="456.3431">setValue(value : CoinValue) : EuroCoinBuilder</text><ellipse cx="623" cy="469.0404" fill="#84BE84" rx="3" ry="3" style="stroke:#038048;stroke-width:1.0;"/><text fill="#000000" font-family="sans-serif" font-size="14" lengthAdjust="spacing" textLength="424" x="632" y="472.8314">setMintCountry(mintCountry : CoinCountry) : EuroCoinBuilder</text><ellipse cx="623" cy="485.5287" fill="#84BE84" rx="3" ry="3" style="stroke:#038048;stroke-width:1.0;"/><text fill="#000000" font-family="sans-serif" font-size="14" lengthAdjust="spacing" textLength="431" x="632" y="489.3197">setDescription(description : CoinDescription) : EuroCoinBuilder</text><ellipse cx="623" cy="502.017" fill="#84BE84" rx="3" ry="3" style="stroke:#038048;stroke-width:1.0;"/><text fill="#000000" font-family="sans-serif" font-size="14" lengthAdjust="spacing" textLength="257" x="632" y="505.808">setMint(mint : Mint) : EuroCoinBuilder</text><ellipse cx="623" cy="518.5052" fill="#84BE84" rx="3" ry="3" style="stroke:#038048;stroke-width:1.0;"/><text fill="#000000" font-family="sans-serif" font-size="14" lengthAdjust="spacing" textLength="302" x="632" y="522.2963">setCollectionId(id : String) : EuroCoinBuilder</text><ellipse cx="623" cy="534.9935" fill="#84BE84" rx="3" ry="3" style="stroke:#038048;stroke-width:1.0;"/><text fill="#000000" font-family="sans-serif" font-size="14" lengthAdjust="spacing" textLength="121" x="632" y="538.7845">build() : EuroCoin</text></g><!--class User--><g id="elem_User"><rect codeLine="134" fill="#F1F1F1" height="80.9766" id="User" rx="2.5" ry="2.5" style="stroke:#181818;stroke-width:0.5;" width="117" x="814" y="67.71"/><ellipse cx="853.3" cy="83.71" fill="#ADD1B2" rx="11" ry="11" style="stroke:#181818;stroke-width:1.0;"/><path d="M855.7731,89.8531 Q855.1921,90.1519 854.5529,90.3013 Q853.9138,90.4507 853.2082,90.4507 Q850.7014,90.4507 849.3815,88.7989 Q848.0617,87.147 848.0617,84.0259 Q848.0617,80.8965 849.3815,79.2447 Q850.7014,77.5928 853.2082,77.5928 Q853.9138,77.5928 854.5612,77.7422 Q855.2087,77.8916 855.7731,78.1905 L855.7731,80.9131 Q855.1423,80.3321 854.5488,80.0623 Q853.9553,79.7925 853.3244,79.7925 Q851.9797,79.7925 851.2949,80.8592 Q850.6101,81.9258 850.6101,84.0259 Q850.6101,86.1177 851.2949,87.1844 Q851.9797,88.251 853.3244,88.251 Q853.9553,88.251 854.5488,87.9812 Q855.1423,87.7115 855.7731,87.1304 Z " fill="#000000"/><text fill="#000000" font-family="sans-serif" font-size="14" lengthAdjust="spacing" textLength="31" x="872.7" y="89.001">User</text><line style="stroke:#181818;stroke-width:0.5;" x1="815" x2="930" y1="99.71" y2="99.71"/><rect fill="none" height="6" style="stroke:#C82930;stroke-width:1.0;" width="6" x="822" y="110.4541"/><text fill="#000000" font-family="sans-serif" font-size="14" lengthAdjust="spacing" textLength="66" x="834" y="117.2452">id : String</text><rect fill="none" height="6" style="stroke:#C82930;stroke-width:1.0;" width="6" x="822" y="126.9424"/><text fill="#000000" font-family="sans-serif" font-size="14" lengthAdjust="spacing" textLength="91" x="834" y="133.7334">name : String</text><line style="stroke:#181818;stroke-width:0.5;" x1="815" x2="930" y1="140.6866" y2="140.6866"/></g><!--link EuroCoin to Coin--><g id="link_EuroCoin_Coin"><path codeLine="91" d="M586.85,696.2 C619.07,696.2 639.74,696.2 678.25,696.2 " fill="none" id="EuroCoin-to-Coin" style="stroke:#181818;stroke-width:1.0;stroke-dasharray:7.0,7.0;"/><polygon fill="none" points="696.25,696.2,678.25,690.2,678.25,702.2,696.25,696.2" style="stroke:#181818;stroke-width:1.0;"/><text fill="#000000" font-family="sans-serif" font-size="13" lengthAdjust="spacing" textLength="74" x="604.5" y="689.7684">implements</text></g><!--link EuroCoin to CoinValue--><g id="link_EuroCoin_CoinValue"><path codeLine="92" d="M440.8,745.22 C421.26,761.19 400.79,779.96 384.5,799.67 C343.63,849.11 318.5193,910.6837 302.0493,964.3837 " fill="none" id="EuroCoin-to-CoinValue" style="stroke:#181818;stroke-width:1.0;"/><polygon fill="#181818" points="300.29,970.12,306.7532,962.6885,301.7561,965.3398,299.1048,960.3427,300.29,970.12" style="stroke:#181818;stroke-width:1.0;"/><rect fill="none" height="6" style="stroke:#C82930;stroke-width:1.0;" width="6" x="387.5" y="805.8253"/><text fill="#000000" font-family="sans-serif" font-size="13" lengthAdjust="spacing" textLength="33" x="397.5" y="813.2384">value</text><text fill="#000000" font-family="sans-serif" font-size="13" lengthAdjust="spacing" textLength="8" x="293.7632" y="959.6135">1</text></g><!--link EuroCoin to CoinCountry--><g id="link_EuroCoin_CoinCountry"><path codeLine="93" d="M470.26,745.19 C459.59,761.58 449.28,780.6 443.5,799.67 C438.95,814.66 436.4517,824.4476 433.8617,840.3976 " fill="none" id="EuroCoin-to-CoinCountry" style="stroke:#181818;stroke-width:1.0;"/><polygon fill="#181818" points="432.9,846.32,438.2908,838.0775,433.7014,841.3846,430.3943,836.7952,432.9,846.32" style="stroke:#181818;stroke-width:1.0;"/><rect fill="none" height="6" style="stroke:#C82930;stroke-width:1.0;" width="6" x="446.5" y="805.8253"/><text fill="#000000" font-family="sans-serif" font-size="13" lengthAdjust="spacing" textLength="79" x="456.5" y="813.2384">mintCountry</text><text fill="#000000" font-family="sans-serif" font-size="13" lengthAdjust="spacing" textLength="8" x="424.6628" y="835.935">1</text></g><!--link EuroCoin to CoinDescription--><g id="link_EuroCoin_CoinDescription"><path codeLine="94" d="M560.64,745.28 C588.87,772.89 622.57,809.4 646.5,846.67 C684.6,906 710.2152,978.8585 723.5552,1021.9385 " fill="none" id="EuroCoin-to-CoinDescription" style="stroke:#181818;stroke-width:1.0;"/><polygon fill="#181818" points="725.33,1027.67,726.4888,1017.8896,723.851,1022.8937,718.8468,1020.2559,725.33,1027.67" style="stroke:#181818;stroke-width:1.0;"/><rect fill="none" height="6" style="stroke:#C82930;stroke-width:1.0;" width="6" x="626.86" y="805.8253"/><text fill="#000000" font-family="sans-serif" font-size="13" lengthAdjust="spacing" textLength="71" x="636.86" y="813.2384">description</text><text fill="#000000" font-family="sans-serif" font-size="13" lengthAdjust="spacing" textLength="8" x="714.7372" y="1017.3715">1</text></g><!--link EuroCoin to Mint--><g id="link_EuroCoin_Mint"><path codeLine="95" d="M524.75,745.23 C530.38,762.25 536.28,781.66 540.5,799.67 C555.9,865.34 565.8278,935.8912 572.0578,988.7612 " fill="none" id="EuroCoin-to-Mint" style="stroke:#181818;stroke-width:1.0;"/><polygon fill="#181818" points="572.76,994.72,575.6793,985.3137,572.1749,989.7544,567.7342,986.2499,572.76,994.72" style="stroke:#181818;stroke-width:1.0;"/><rect fill="none" height="6" style="stroke:#C82930;stroke-width:1.0;" width="6" x="546.63" y="805.8253"/><text fill="#000000" font-family="sans-serif" font-size="13" lengthAdjust="spacing" textLength="29" x="556.63" y="813.2384">mint</text><text fill="#000000" font-family="sans-serif" font-size="13" lengthAdjust="spacing" textLength="8" x="563.5853" y="984.3143">1</text></g><!--link EuroCoinCollection to CoinCollection--><g id="link_EuroCoinCollection_CoinCollection"><path codeLine="102" d="M256.11,414.57 C290.13,414.57 311.96,414.57 348.04,414.57 " fill="none" id="EuroCoinCollection-to-CoinCollection" style="stroke:#181818;stroke-width:1.0;stroke-dasharray:7.0,7.0;"/><polygon fill="none" points="366.04,414.57,348.04,408.57,348.04,420.57,366.04,414.57" style="stroke:#181818;stroke-width:1.0;"/><text fill="#000000" font-family="sans-serif" font-size="13" lengthAdjust="spacing" textLength="74" x="274.25" y="408.1384">implements</text></g><!--link EuroCoinCollection to EuroCoin--><g id="link_EuroCoinCollection_EuroCoin"><path codeLine="103" d="M221,455.33 C281.33,505.85 380.7693,589.0986 445.4893,643.2786 " fill="none" id="EuroCoinCollection-to-EuroCoin" style="stroke:#181818;stroke-width:1.0;"/><polygon fill="#181818" points="450.09,647.13,445.7566,638.2857,446.2561,643.9205,440.6213,644.42,450.09,647.13" style="stroke:#181818;stroke-width:1.0;"/><rect fill="none" height="6" style="stroke:#C82930;stroke-width:1.0;" width="6" x="383.24" y="581.8953"/><text fill="#000000" font-family="sans-serif" font-size="13" lengthAdjust="spacing" textLength="34" x="393.24" y="589.3084">coins</text><text fill="#000000" font-family="sans-serif" font-size="13" lengthAdjust="spacing" textLength="6" x="435.5948" y="636.7647">*</text></g><!--link EuroCoinCollectionGroup to CollectionGroup--><g id="link_EuroCoinCollectionGroup_CollectionGroup"><path codeLine="111" d="M340.22,108.19 C376.08,108.19 395.95,108.19 431.73,108.19 " fill="none" id="EuroCoinCollectionGroup-to-CollectionGroup" style="stroke:#181818;stroke-width:1.0;stroke-dasharray:7.0,7.0;"/><polygon fill="none" points="449.73,108.19,431.73,102.19,431.73,114.19,449.73,108.19" style="stroke:#181818;stroke-width:1.0;"/><text fill="#000000" font-family="sans-serif" font-size="13" lengthAdjust="spacing" textLength="74" x="358" y="101.7584">implements</text></g><!--link EuroCoinCollectionGroup to EuroCoinCollection--><g id="link_EuroCoinCollectionGroup_EuroCoinCollection"><path codeLine="112" d="M173.5,157.42 C173.5,217.27 173.5,312.19 173.5,367.81 " fill="none" id="EuroCoinCollectionGroup-to-EuroCoinCollection" style="stroke:#181818;stroke-width:1.0;"/><polygon fill="#181818" points="173.5,373.81,177.5,364.81,173.5,368.81,169.5,364.81,173.5,373.81" style="stroke:#181818;stroke-width:1.0;"/><rect fill="none" height="6" style="stroke:#C82930;stroke-width:1.0;" width="6" x="176.5" y="242.5453"/><text fill="#000000" font-family="sans-serif" font-size="13" lengthAdjust="spacing" textLength="69" x="186.5" y="249.9584">collections</text><text fill="#000000" font-family="sans-serif" font-size="13" lengthAdjust="spacing" textLength="6" x="167.0031" y="363.4113">*</text></g><!--link EuroCoinBuilder to EuroCoin--><g id="link_EuroCoinBuilder_EuroCoin"><path codeLine="131" d="M685.21,545.97 C642.14,582.14 602.6651,615.2919 569.1851,643.4019 " fill="none" id="EuroCoinBuilder-to-EuroCoin" style="stroke:#181818;stroke-width:1.0;stroke-dasharray:7.0,7.0;"/><polygon fill="#181818" points="564.59,647.26,574.0547,644.5363,568.4193,644.0449,568.9106,638.4095,564.59,647.26" style="stroke:#181818;stroke-width:1.0;"/><text fill="#000000" font-family="sans-serif" font-size="13" lengthAdjust="spacing" textLength="39" x="645.17" y="589.3084">builds</text></g><!--SRC=[dLLTRzem57tdLrXzWMrDfRrs5P8n1gmcJkKuT3nLbBXT94Yg9B1Ls_xxxCI9dK2W6a- -dpxt-5mo19Y6NZ0GoNu7K1edo_LsBy3l0P0_d-8dX2c_BYt-w9TMK9apiiIspJ5jcO_ol6eNpDeErHw7p3VjbHKC_WuC79Jkao9xru1W6716u3KehGbsvoJqj8LM3omCj377p8DqfIqSS9ysPS4395IVPuIwa4vhYq6AS0LdpZ2Mvof06BRI28TktTebV152qzmDlsDlueTiNZiWNpPH3xeSLlqfvWlCLDSQyuFFU3Y7RWtJzPVOGYrDU6zCI9yyo0ZrjMC9EK7IYGXVLJTuFeMe3ijxVCPWmwqN9uKcTI9XD8Hu8ILeKL_2Gyxda75jtqFc1YnSrBGie3UHawgcGp350MBaWHEV3ZRRTPwNxpSL-IQBtueuJVHr3YZ4hmBSWg38ukIrAYQKOpQ320S32KnaB-kDAEjrqHVmAWeIZJwPkiPTAhQCo5BZNebrTkory1mtozlnBlx8d5Nf8OqZqnYbswtOg5WRfXolFP59lECoJRd67vYIhdVYP40roCk86-V57H_hq3gAL6YqKIpU0jw1d8bTUX3dCcHldXRhRG-_pNOseSwezPZpBDs_DRDU0wHFDX7Z_wUWCbJS_vc8JDL-E_Ki5aUenL6T87ceZmfX3ryVowwvwrxVOb1dnBsnDlFbeY2VrEk5zrbghOW3ugZDZGFUvGvOdHsmiLHgQxJfTVDdNEsThDgzRSLE94Lkmeup1bTVhwmlnIrm3kfmEgV- -vPPEub2cwTpxLMJ-TQs7UUNVr-wQKMBwsAa_dk23Zlc1Sxmb4XbdQB3Agw9GVQpdw38YfTWFr-PXvA0rQxbWrwCvQvy66ZbIolPDsu0XaoyY4maSWsB51G_1DZd8WFFxu1CXqf7VHTNGxPz5wQiahgZjbXoZEfozLYJaBXJp3eaJFRnDf8eV_Tfzw3rrcXF-orXDVyibSogUDJILKTfLWyPz2vjYlbGb9yNWr4jQMSIarljyH7-ipMUcMhKE-7P3lQdx2m75t6CB7hE9hS-WfPw-ukUbJMouzRwrPAukHdRIrJMb4eAWqP6OMvfv_A6_mC0]--></g></svg>