<?xml version="1.0" encoding="us-ascii" standalone="no"?><svg xmlns="http://www.w3.org/2000/svg" xmlns:xlink="http://www.w3.org/1999/xlink" contentStyleType="text/css" height="1271px" preserveAspectRatio="none" style="width:1152px;height:1271px;background:#FFFFFF;" version="1.1" viewBox="0 0 1152 1271" width="1152px" zoomAndPan="magnify"><defs/><g><!--class CoinValue--><g id="elem_CoinValue"><rect codeLine="3" fill="#F1F1F1" height="179.9063" id="CoinValue" rx="2.5" ry="2.5" style="stroke:#181818;stroke-width:0.5;" width="125" x="7" y="769.47"/><ellipse cx="32.35" cy="785.47" fill="#EB937F" rx="11" ry="11" style="stroke:#181818;stroke-width:1.0;"/><path d="M35.9643,791.97 L28.2445,791.97 L28.2445,779.5769 L35.9643,779.5769 L35.9643,781.7351 L30.6933,781.7351 L30.6933,784.408 L35.4662,784.408 L35.4662,786.5662 L30.6933,786.5662 L30.6933,789.8118 L35.9643,789.8118 Z " fill="#000000"/><text fill="#000000" font-family="sans-serif" font-size="14" lengthAdjust="spacing" textLength="70" x="48.65" y="790.761">CoinValue</text><line style="stroke:#181818;stroke-width:0.5;" x1="8" x2="131" y1="801.47" y2="801.47"/><text fill="#000000" font-family="sans-serif" font-size="14" lengthAdjust="spacing" textLength="77" x="13" y="819.0052">ONE_CENT,</text><text fill="#000000" font-family="sans-serif" font-size="14" lengthAdjust="spacing" textLength="88" x="13" y="835.4934">TWO_CENTS,</text><text fill="#000000" font-family="sans-serif" font-size="14" lengthAdjust="spacing" textLength="85" x="13" y="851.9817">FIVE_CENTS,</text><text fill="#000000" font-family="sans-serif" font-size="14" lengthAdjust="spacing" textLength="83" x="13" y="868.47">TEN_CENTS,</text><text fill="#000000" font-family="sans-serif" font-size="14" lengthAdjust="spacing" textLength="113" x="13" y="884.9583">TWENTY_CENTS,</text><text fill="#000000" font-family="sans-serif" font-size="14" lengthAdjust="spacing" textLength="94" x="13" y="901.4466">FIFTY_CENTS,</text><text fill="#000000" font-family="sans-serif" font-size="14" lengthAdjust="spacing" textLength="78" x="13" y="917.9348">ONE_EURO,</text><text fill="#000000" font-family="sans-serif" font-size="14" lengthAdjust="spacing" textLength="85" x="13" y="934.4231">TWO_EUROS</text><line style="stroke:#181818;stroke-width:0.5;" x1="8" x2="131" y1="941.3763" y2="941.3763"/></g><!--class CoinCountry--><g id="elem_CoinCountry"><rect codeLine="14" fill="#F1F1F1" height="427.2305" id="CoinCountry" rx="2.5" ry="2.5" style="stroke:#181818;stroke-width:0.5;" width="119" x="167" y="645.81"/><ellipse cx="182" cy="661.81" fill="#EB937F" rx="11" ry="11" style="stroke:#181818;stroke-width:1.0;"/><path d="M185.6143,668.31 L177.8945,668.31 L177.8945,655.9169 L185.6143,655.9169 L185.6143,658.0751 L180.3433,658.0751 L180.3433,660.748 L185.1162,660.748 L185.1162,662.9062 L180.3433,662.9062 L180.3433,666.1518 L185.6143,666.1518 Z " fill="#000000"/><text fill="#000000" font-family="sans-serif" font-size="14" lengthAdjust="spacing" textLength="87" x="196" y="667.101">CoinCountry</text><line style="stroke:#181818;stroke-width:0.5;" x1="168" x2="285" y1="677.81" y2="677.81"/><text fill="#000000" font-family="sans-serif" font-size="14" lengthAdjust="spacing" textLength="64" x="173" y="695.3452">AUSTRIA,</text><text fill="#000000" font-family="sans-serif" font-size="14" lengthAdjust="spacing" textLength="63" x="173" y="711.8334">BELGIUM,</text><text fill="#000000" font-family="sans-serif" font-size="14" lengthAdjust="spacing" textLength="58" x="173" y="728.3217">CYPRUS,</text><text fill="#000000" font-family="sans-serif" font-size="14" lengthAdjust="spacing" textLength="72" x="173" y="744.81">GERMANY,</text><text fill="#000000" font-family="sans-serif" font-size="14" lengthAdjust="spacing" textLength="64" x="173" y="761.2983">ESTONIA,</text><text fill="#000000" font-family="sans-serif" font-size="14" lengthAdjust="spacing" textLength="44" x="173" y="777.7866">SPAIN,</text><text fill="#000000" font-family="sans-serif" font-size="14" lengthAdjust="spacing" textLength="63" x="173" y="794.2748">FINLAND,</text><text fill="#000000" font-family="sans-serif" font-size="14" lengthAdjust="spacing" textLength="59" x="173" y="810.7631">FRANCE,</text><text fill="#000000" font-family="sans-serif" font-size="14" lengthAdjust="spacing" textLength="57" x="173" y="827.2514">GREECE,</text><text fill="#000000" font-family="sans-serif" font-size="14" lengthAdjust="spacing" textLength="62" x="173" y="843.7397">IRELAND,</text><text fill="#000000" font-family="sans-serif" font-size="14" lengthAdjust="spacing" textLength="43" x="173" y="860.228">ITALY,</text><text fill="#000000" font-family="sans-serif" font-size="14" lengthAdjust="spacing" textLength="78" x="173" y="876.7163">LITHUANIA,</text><text fill="#000000" font-family="sans-serif" font-size="14" lengthAdjust="spacing" textLength="98" x="173" y="893.2045">LUXEMBOURG,</text><text fill="#000000" font-family="sans-serif" font-size="14" lengthAdjust="spacing" textLength="53" x="173" y="909.6928">LATVIA,</text><text fill="#000000" font-family="sans-serif" font-size="14" lengthAdjust="spacing" textLength="52" x="173" y="926.1811">MALTA,</text><text fill="#000000" font-family="sans-serif" font-size="14" lengthAdjust="spacing" textLength="103" x="173" y="942.6694">NETHERLANDS,</text><text fill="#000000" font-family="sans-serif" font-size="14" lengthAdjust="spacing" textLength="78" x="173" y="959.1577">PORTUGAL,</text><text fill="#000000" font-family="sans-serif" font-size="14" lengthAdjust="spacing" textLength="71" x="173" y="975.6459">SLOVENIA,</text><text fill="#000000" font-family="sans-serif" font-size="14" lengthAdjust="spacing" textLength="72" x="173" y="992.1342">SLOVAKIA,</text><text fill="#000000" font-family="sans-serif" font-size="14" lengthAdjust="spacing" textLength="95" x="173" y="1008.6225">SAN_MARINO,</text><text fill="#000000" font-family="sans-serif" font-size="14" lengthAdjust="spacing" textLength="105" x="173" y="1025.1108">VATICAN_CITY,</text><text fill="#000000" font-family="sans-serif" font-size="14" lengthAdjust="spacing" textLength="68" x="173" y="1041.5991">MONACO,</text><text fill="#000000" font-family="sans-serif" font-size="14" lengthAdjust="spacing" textLength="69" x="173" y="1058.0873">ANDORRA</text><line style="stroke:#181818;stroke-width:0.5;" x1="168" x2="285" y1="1065.0405" y2="1065.0405"/></g><!--class Mint--><g id="elem_Mint"><rect codeLine="40" fill="#F1F1F1" height="130.4414" id="Mint" rx="2.5" ry="2.5" style="stroke:#181818;stroke-width:0.5;" width="99" x="321" y="794.2"/><ellipse cx="352.65" cy="810.2" fill="#EB937F" rx="11" ry="11" style="stroke:#181818;stroke-width:1.0;"/><path d="M356.2643,816.7 L348.5445,816.7 L348.5445,804.3069 L356.2643,804.3069 L356.2643,806.4651 L350.9933,806.4651 L350.9933,809.138 L355.7662,809.138 L355.7662,811.2962 L350.9933,811.2962 L350.9933,814.5418 L356.2643,814.5418 Z " fill="#000000"/><text fill="#000000" font-family="sans-serif" font-size="14" lengthAdjust="spacing" textLength="30" x="370.35" y="815.491">Mint</text><line style="stroke:#181818;stroke-width:0.5;" x1="322" x2="419" y1="826.2" y2="826.2"/><text fill="#000000" font-family="sans-serif" font-size="14" lengthAdjust="spacing" textLength="50" x="327" y="843.7352">BERLIN,</text><text fill="#000000" font-family="sans-serif" font-size="14" lengthAdjust="spacing" textLength="60" x="327" y="860.2234">MUNICH,</text><text fill="#000000" font-family="sans-serif" font-size="14" lengthAdjust="spacing" textLength="87" x="327" y="876.7117">STUTTGART,</text><text fill="#000000" font-family="sans-serif" font-size="14" lengthAdjust="spacing" textLength="84" x="327" y="893.2">KARLSRUHE,</text><text fill="#000000" font-family="sans-serif" font-size="14" lengthAdjust="spacing" textLength="69" x="327" y="909.6883">HAMBURG</text><line style="stroke:#181818;stroke-width:0.5;" x1="322" x2="419" y1="916.6414" y2="916.6414"/></g><!--class CoinDescription--><g id="elem_CoinDescription"><rect codeLine="49" fill="#F1F1F1" height="64.4883" id="CoinDescription" rx="2.5" ry="2.5" style="stroke:#181818;stroke-width:0.5;" width="142" x="454.5" y="827.18"/><ellipse cx="469.5" cy="843.18" fill="#ADD1B2" rx="11" ry="11" style="stroke:#181818;stroke-width:1.0;"/><path d="M471.9731,849.3231 Q471.3921,849.6219 470.7529,849.7713 Q470.1138,849.9207 469.4082,849.9207 Q466.9014,849.9207 465.5815,848.2689 Q464.2617,846.617 464.2617,843.4959 Q464.2617,840.3665 465.5815,838.7147 Q466.9014,837.0628 469.4082,837.0628 Q470.1138,837.0628 470.7612,837.2122 Q471.4087,837.3616 471.9731,837.6605 L471.9731,840.3831 Q471.3423,839.8021 470.7488,839.5323 Q470.1553,839.2625 469.5244,839.2625 Q468.1797,839.2625 467.4949,840.3292 Q466.8101,841.3958 466.8101,843.4959 Q466.8101,845.5877 467.4949,846.6544 Q468.1797,847.721 469.5244,847.721 Q470.1553,847.721 470.7488,847.4512 Q471.3423,847.1815 471.9731,846.6004 Z " fill="#000000"/><text fill="#000000" font-family="sans-serif" font-size="14" lengthAdjust="spacing" textLength="110" x="483.5" y="848.471">CoinDescription</text><line style="stroke:#181818;stroke-width:0.5;" x1="455.5" x2="595.5" y1="859.18" y2="859.18"/><rect fill="none" height="6" style="stroke:#C82930;stroke-width:1.0;" width="6" x="462.5" y="869.9241"/><text fill="#000000" font-family="sans-serif" font-size="14" lengthAdjust="spacing" textLength="80" x="474.5" y="876.7152">text : String</text><line style="stroke:#181818;stroke-width:0.5;" x1="455.5" x2="595.5" y1="883.6683" y2="883.6683"/></g><!--class CoinComponent--><g id="elem_CoinComponent"><rect codeLine="54" fill="#F1F1F1" height="146.9297" id="CoinComponent" rx="2.5" ry="2.5" style="stroke:#181818;stroke-width:0.5;" width="236" x="631.5" y="785.96"/><ellipse cx="688.75" cy="801.96" fill="#B4A7E5" rx="11" ry="11" style="stroke:#181818;stroke-width:1.0;"/><path d="M685.1777,798.2251 L685.1777,796.0669 L692.5571,796.0669 L692.5571,798.2251 L690.0918,798.2251 L690.0918,806.3018 L692.5571,806.3018 L692.5571,808.46 L685.1777,808.46 L685.1777,806.3018 L687.6431,806.3018 L687.6431,798.2251 Z " fill="#000000"/><text fill="#000000" font-family="sans-serif" font-size="14" font-style="italic" lengthAdjust="spacing" textLength="113" x="709.25" y="807.251">CoinComponent</text><line style="stroke:#181818;stroke-width:0.5;" x1="632.5" x2="866.5" y1="817.96" y2="817.96"/><line style="stroke:#181818;stroke-width:0.5;" x1="632.5" x2="866.5" y1="825.96" y2="825.96"/><ellipse cx="642.5" cy="839.7041" fill="#84BE84" rx="3" ry="3" style="stroke:#038048;stroke-width:1.0;"/><text fill="#000000" font-family="sans-serif" font-size="14" lengthAdjust="spacing" textLength="98" x="651.5" y="843.4952">getId() : String</text><ellipse cx="642.5" cy="856.1924" fill="#84BE84" rx="3" ry="3" style="stroke:#038048;stroke-width:1.0;"/><text fill="#000000" font-family="sans-serif" font-size="14" lengthAdjust="spacing" textLength="163" x="651.5" y="859.9834">getDescription() : String</text><ellipse cx="642.5" cy="872.6807" fill="#84BE84" rx="3" ry="3" style="stroke:#038048;stroke-width:1.0;"/><text fill="#000000" font-family="sans-serif" font-size="14" lengthAdjust="spacing" textLength="155" x="651.5" y="876.4717">isComplete() : boolean</text><ellipse cx="642.5" cy="889.169" fill="#84BE84" rx="3" ry="3" style="stroke:#038048;stroke-width:1.0;"/><text fill="#000000" font-family="sans-serif" font-size="14" lengthAdjust="spacing" textLength="135" x="651.5" y="892.96">getTotalValue() : int</text><ellipse cx="642.5" cy="905.6573" fill="#84BE84" rx="3" ry="3" style="stroke:#038048;stroke-width:1.0;"/><text fill="#000000" font-family="sans-serif" font-size="14" lengthAdjust="spacing" textLength="136" x="651.5" y="909.4483">getCoinCount() : int</text><ellipse cx="642.5" cy="922.1455" fill="#84BE84" rx="3" ry="3" style="stroke:#038048;stroke-width:1.0;"/><text fill="#000000" font-family="sans-serif" font-size="14" lengthAdjust="spacing" textLength="210" x="651.5" y="925.9366">getAllCoins() : List&lt;EuroCoin&gt;</text></g><!--class CoinComposite--><g id="elem_CoinComposite"><rect codeLine="63" fill="#F1F1F1" height="130.4414" id="CoinComposite" rx="2.5" ry="2.5" style="stroke:#181818;stroke-width:0.5;" width="351" x="762" y="1134.04"/><ellipse cx="880.25" cy="1150.04" fill="#B4A7E5" rx="11" ry="11" style="stroke:#181818;stroke-width:1.0;"/><path d="M876.6777,1146.3051 L876.6777,1144.1469 L884.0571,1144.1469 L884.0571,1146.3051 L881.5918,1146.3051 L881.5918,1154.3818 L884.0571,1154.3818 L884.0571,1156.54 L876.6777,1156.54 L876.6777,1154.3818 L879.1431,1154.3818 L879.1431,1146.3051 Z " fill="#000000"/><text fill="#000000" font-family="sans-serif" font-size="14" font-style="italic" lengthAdjust="spacing" textLength="106" x="900.75" y="1155.331">CoinComposite</text><line style="stroke:#181818;stroke-width:0.5;" x1="763" x2="1112" y1="1166.04" y2="1166.04"/><line style="stroke:#181818;stroke-width:0.5;" x1="763" x2="1112" y1="1174.04" y2="1174.04"/><ellipse cx="773" cy="1187.7841" fill="#84BE84" rx="3" ry="3" style="stroke:#038048;stroke-width:1.0;"/><text fill="#000000" font-family="sans-serif" font-size="14" lengthAdjust="spacing" textLength="280" x="782" y="1191.5752">add(component : CoinComponent) : void</text><ellipse cx="773" cy="1204.2724" fill="#84BE84" rx="3" ry="3" style="stroke:#038048;stroke-width:1.0;"/><text fill="#000000" font-family="sans-serif" font-size="14" lengthAdjust="spacing" textLength="305" x="782" y="1208.0634">remove(component : CoinComponent) : void</text><ellipse cx="773" cy="1220.7607" fill="#84BE84" rx="3" ry="3" style="stroke:#038048;stroke-width:1.0;"/><text fill="#000000" font-family="sans-serif" font-size="14" lengthAdjust="spacing" textLength="261" x="782" y="1224.5517">getChildren() : List&lt;CoinComponent&gt;</text><ellipse cx="773" cy="1237.249" fill="#84BE84" rx="3" ry="3" style="stroke:#038048;stroke-width:1.0;"/><text fill="#000000" font-family="sans-serif" font-size="14" lengthAdjust="spacing" textLength="214" x="782" y="1241.04">addCoin(coin : EuroCoin) : void</text><ellipse cx="773" cy="1253.7373" fill="#84BE84" rx="3" ry="3" style="stroke:#038048;stroke-width:1.0;"/><text fill="#000000" font-family="sans-serif" font-size="14" lengthAdjust="spacing" textLength="325" x="782" y="1257.5283">addCollection(collection : CoinCollection) : void</text></g><!--class EuroCoin--><g id="elem_EuroCoin"><rect codeLine="72" fill="#F1F1F1" height="80.9766" id="EuroCoin" rx="2.5" ry="2.5" style="stroke:#181818;stroke-width:0.5;" width="96" x="322.5" y="479.59"/><ellipse cx="337.5" cy="495.59" fill="#ADD1B2" rx="11" ry="11" style="stroke:#181818;stroke-width:1.0;"/><path d="M339.9731,501.7331 Q339.3921,502.0319 338.7529,502.1813 Q338.1138,502.3307 337.4082,502.3307 Q334.9014,502.3307 333.5815,500.6789 Q332.2617,499.027 332.2617,495.9059 Q332.2617,492.7765 333.5815,491.1247 Q334.9014,489.4728 337.4082,489.4728 Q338.1138,489.4728 338.7612,489.6222 Q339.4087,489.7716 339.9731,490.0705 L339.9731,492.7931 Q339.3423,492.2121 338.7488,491.9423 Q338.1553,491.6725 337.5244,491.6725 Q336.1797,491.6725 335.4949,492.7392 Q334.8101,493.8058 334.8101,495.9059 Q334.8101,497.9977 335.4949,499.0644 Q336.1797,500.131 337.5244,500.131 Q338.1553,500.131 338.7488,499.8612 Q339.3423,499.5915 339.9731,499.0104 Z " fill="#000000"/><text fill="#000000" font-family="sans-serif" font-size="14" lengthAdjust="spacing" textLength="64" x="351.5" y="500.881">EuroCoin</text><line style="stroke:#181818;stroke-width:0.5;" x1="323.5" x2="417.5" y1="511.59" y2="511.59"/><rect fill="none" height="6" style="stroke:#C82930;stroke-width:1.0;" width="6" x="330.5" y="522.3341"/><text fill="#000000" font-family="sans-serif" font-size="14" lengthAdjust="spacing" textLength="66" x="342.5" y="529.1252">id : String</text><rect fill="none" height="6" style="stroke:#C82930;stroke-width:1.0;" width="6" x="330.5" y="538.8224"/><text fill="#000000" font-family="sans-serif" font-size="14" lengthAdjust="spacing" textLength="59" x="342.5" y="545.6134">year : int</text><line style="stroke:#181818;stroke-width:0.5;" x1="323.5" x2="417.5" y1="552.5666" y2="552.5666"/></g><!--class CoinCollection--><g id="elem_CoinCollection"><rect codeLine="84" fill="#F1F1F1" height="97.4648" id="CoinCollection" rx="2.5" ry="2.5" style="stroke:#181818;stroke-width:0.5;" width="218" x="795.5" y="471.34"/><ellipse cx="849.75" cy="487.34" fill="#ADD1B2" rx="11" ry="11" style="stroke:#181818;stroke-width:1.0;"/><path d="M852.2231,493.4831 Q851.6421,493.7819 851.0029,493.9313 Q850.3638,494.0807 849.6582,494.0807 Q847.1514,494.0807 845.8315,492.4289 Q844.5117,490.777 844.5117,487.6559 Q844.5117,484.5265 845.8315,482.8747 Q847.1514,481.2228 849.6582,481.2228 Q850.3638,481.2228 851.0112,481.3722 Q851.6587,481.5216 852.2231,481.8205 L852.2231,484.5431 Q851.5923,483.9621 850.9988,483.6923 Q850.4053,483.4225 849.7744,483.4225 Q848.4297,483.4225 847.7449,484.4892 Q847.0601,485.5558 847.0601,487.6559 Q847.0601,489.7477 847.7449,490.8144 Q848.4297,491.881 849.7744,491.881 Q850.4053,491.881 850.9988,491.6112 Q851.5923,491.3415 852.2231,490.7604 Z " fill="#000000"/><text fill="#000000" font-family="sans-serif" font-size="14" lengthAdjust="spacing" textLength="101" x="870.25" y="492.631">CoinCollection</text><line style="stroke:#181818;stroke-width:0.5;" x1="796.5" x2="1012.5" y1="503.34" y2="503.34"/><rect fill="none" height="6" style="stroke:#C82930;stroke-width:1.0;" width="6" x="803.5" y="514.0841"/><text fill="#000000" font-family="sans-serif" font-size="14" lengthAdjust="spacing" textLength="66" x="815.5" y="520.8752">id : String</text><rect fill="none" height="6" style="stroke:#C82930;stroke-width:1.0;" width="6" x="803.5" y="530.5724"/><text fill="#000000" font-family="sans-serif" font-size="14" lengthAdjust="spacing" textLength="91" x="815.5" y="537.3634">name : String</text><line style="stroke:#181818;stroke-width:0.5;" x1="796.5" x2="1012.5" y1="544.3166" y2="544.3166"/><ellipse cx="806.5" cy="558.0607" fill="#84BE84" rx="3" ry="3" style="stroke:#038048;stroke-width:1.0;"/><text fill="#000000" font-family="sans-serif" font-size="14" lengthAdjust="spacing" textLength="192" x="815.5" y="561.8517">getCoins() : List&lt;EuroCoin&gt;</text></g><!--class CollectionGroup--><g id="elem_CollectionGroup"><rect codeLine="92" fill="#F1F1F1" height="97.4648" id="CollectionGroup" rx="2.5" ry="2.5" style="stroke:#181818;stroke-width:0.5;" width="292" x="853.5" y="230.93"/><ellipse cx="939.25" cy="246.93" fill="#ADD1B2" rx="11" ry="11" style="stroke:#181818;stroke-width:1.0;"/><path d="M941.7231,253.0731 Q941.1421,253.3719 940.5029,253.5213 Q939.8638,253.6707 939.1582,253.6707 Q936.6514,253.6707 935.3315,252.0189 Q934.0117,250.367 934.0117,247.2459 Q934.0117,244.1165 935.3315,242.4647 Q936.6514,240.8128 939.1582,240.8128 Q939.8638,240.8128 940.5112,240.9622 Q941.1587,241.1116 941.7231,241.4105 L941.7231,244.1331 Q941.0923,243.5521 940.4988,243.2823 Q939.9053,243.0125 939.2744,243.0125 Q937.9297,243.0125 937.2449,244.0792 Q936.5601,245.1458 936.5601,247.2459 Q936.5601,249.3377 937.2449,250.4044 Q937.9297,251.471 939.2744,251.471 Q939.9053,251.471 940.4988,251.2012 Q941.0923,250.9315 941.7231,250.3504 Z " fill="#000000"/><text fill="#000000" font-family="sans-serif" font-size="14" lengthAdjust="spacing" textLength="112" x="959.75" y="252.221">CollectionGroup</text><line style="stroke:#181818;stroke-width:0.5;" x1="854.5" x2="1144.5" y1="262.93" y2="262.93"/><rect fill="none" height="6" style="stroke:#C82930;stroke-width:1.0;" width="6" x="861.5" y="273.6741"/><text fill="#000000" font-family="sans-serif" font-size="14" lengthAdjust="spacing" textLength="66" x="873.5" y="280.4652">id : String</text><rect fill="none" height="6" style="stroke:#C82930;stroke-width:1.0;" width="6" x="861.5" y="290.1624"/><text fill="#000000" font-family="sans-serif" font-size="14" lengthAdjust="spacing" textLength="91" x="873.5" y="296.9534">name : String</text><line style="stroke:#181818;stroke-width:0.5;" x1="854.5" x2="1144.5" y1="303.9066" y2="303.9066"/><ellipse cx="864.5" cy="317.6507" fill="#84BE84" rx="3" ry="3" style="stroke:#038048;stroke-width:1.0;"/><text fill="#000000" font-family="sans-serif" font-size="14" lengthAdjust="spacing" textLength="266" x="873.5" y="321.4417">getCollections() : List&lt;CoinCollection&gt;</text></g><!--class EuroCoinBuilder--><g id="elem_EuroCoinBuilder"><rect codeLine="101" fill="#F1F1F1" height="229.3711" id="EuroCoinBuilder" rx="2.5" ry="2.5" style="stroke:#181818;stroke-width:0.5;" width="457" x="142" y="164.97"/><ellipse cx="310.25" cy="180.97" fill="#ADD1B2" rx="11" ry="11" style="stroke:#181818;stroke-width:1.0;"/><path d="M312.7231,187.1131 Q312.1421,187.4119 311.5029,187.5613 Q310.8638,187.7107 310.1582,187.7107 Q307.6514,187.7107 306.3315,186.0589 Q305.0117,184.407 305.0117,181.2859 Q305.0117,178.1565 306.3315,176.5047 Q307.6514,174.8528 310.1582,174.8528 Q310.8638,174.8528 311.5112,175.0022 Q312.1587,175.1516 312.7231,175.4505 L312.7231,178.1731 Q312.0923,177.5921 311.4988,177.3223 Q310.9053,177.0525 310.2744,177.0525 Q308.9297,177.0525 308.2449,178.1192 Q307.5601,179.1858 307.5601,181.2859 Q307.5601,183.3777 308.2449,184.4444 Q308.9297,185.511 310.2744,185.511 Q310.9053,185.511 311.4988,185.2412 Q312.0923,184.9715 312.7231,184.3904 Z " fill="#000000"/><text fill="#000000" font-family="sans-serif" font-size="14" lengthAdjust="spacing" textLength="112" x="330.75" y="186.261">EuroCoinBuilder</text><line style="stroke:#181818;stroke-width:0.5;" x1="143" x2="598" y1="196.97" y2="196.97"/><rect fill="none" height="6" style="stroke:#C82930;stroke-width:1.0;" width="6" x="150" y="207.7141"/><text fill="#000000" font-family="sans-serif" font-size="14" lengthAdjust="spacing" textLength="59" x="162" y="214.5052">year : int</text><rect fill="none" height="6" style="stroke:#C82930;stroke-width:1.0;" width="6" x="150" y="224.2024"/><text fill="#000000" font-family="sans-serif" font-size="14" lengthAdjust="spacing" textLength="118" x="162" y="230.9934">value : CoinValue</text><rect fill="none" height="6" style="stroke:#C82930;stroke-width:1.0;" width="6" x="150" y="240.6907"/><text fill="#000000" font-family="sans-serif" font-size="14" lengthAdjust="spacing" textLength="185" x="162" y="247.4817">mintCountry : CoinCountry</text><rect fill="none" height="6" style="stroke:#C82930;stroke-width:1.0;" width="6" x="150" y="257.179"/><text fill="#000000" font-family="sans-serif" font-size="14" lengthAdjust="spacing" textLength="199" x="162" y="263.97">description : CoinDescription</text><rect fill="none" height="6" style="stroke:#C82930;stroke-width:1.0;" width="6" x="150" y="273.6673"/><text fill="#000000" font-family="sans-serif" font-size="14" lengthAdjust="spacing" textLength="73" x="162" y="280.4583">mint : Mint</text><line style="stroke:#181818;stroke-width:0.5;" x1="143" x2="598" y1="287.4114" y2="287.4114"/><ellipse cx="153" cy="301.1555" fill="#84BE84" rx="3" ry="3" style="stroke:#038048;stroke-width:1.0;"/><text fill="#000000" font-family="sans-serif" font-size="14" lengthAdjust="spacing" textLength="244" x="162" y="304.9466">setYear(year : int) : EuroCoinBuilder</text><ellipse cx="153" cy="317.6438" fill="#84BE84" rx="3" ry="3" style="stroke:#038048;stroke-width:1.0;"/><text fill="#000000" font-family="sans-serif" font-size="14" lengthAdjust="spacing" textLength="310" x="162" y="321.4348">setValue(value : CoinValue) : EuroCoinBuilder</text><ellipse cx="153" cy="334.1321" fill="#84BE84" rx="3" ry="3" style="stroke:#038048;stroke-width:1.0;"/><text fill="#000000" font-family="sans-serif" font-size="14" lengthAdjust="spacing" textLength="424" x="162" y="337.9231">setMintCountry(mintCountry : CoinCountry) : EuroCoinBuilder</text><ellipse cx="153" cy="350.6204" fill="#84BE84" rx="3" ry="3" style="stroke:#038048;stroke-width:1.0;"/><text fill="#000000" font-family="sans-serif" font-size="14" lengthAdjust="spacing" textLength="431" x="162" y="354.4114">setDescription(description : CoinDescription) : EuroCoinBuilder</text><ellipse cx="153" cy="367.1087" fill="#84BE84" rx="3" ry="3" style="stroke:#038048;stroke-width:1.0;"/><text fill="#000000" font-family="sans-serif" font-size="14" lengthAdjust="spacing" textLength="257" x="162" y="370.8997">setMint(mint : Mint) : EuroCoinBuilder</text><ellipse cx="153" cy="383.597" fill="#84BE84" rx="3" ry="3" style="stroke:#038048;stroke-width:1.0;"/><text fill="#000000" font-family="sans-serif" font-size="14" lengthAdjust="spacing" textLength="121" x="162" y="387.388">build() : EuroCoin</text></g><!--class User--><g id="elem_User"><rect codeLine="118" fill="#F1F1F1" height="80.9766" id="User" rx="2.5" ry="2.5" style="stroke:#181818;stroke-width:0.5;" width="117" x="941" y="7"/><ellipse cx="980.3" cy="23" fill="#ADD1B2" rx="11" ry="11" style="stroke:#181818;stroke-width:1.0;"/><path d="M982.7731,29.1431 Q982.1921,29.4419 981.5529,29.5913 Q980.9138,29.7407 980.2082,29.7407 Q977.7014,29.7407 976.3815,28.0889 Q975.0617,26.437 975.0617,23.3159 Q975.0617,20.1865 976.3815,18.5347 Q977.7014,16.8828 980.2082,16.8828 Q980.9138,16.8828 981.5612,17.0322 Q982.2087,17.1816 982.7731,17.4805 L982.7731,20.2031 Q982.1423,19.6221 981.5488,19.3523 Q980.9553,19.0825 980.3244,19.0825 Q978.9797,19.0825 978.2949,20.1492 Q977.6101,21.2158 977.6101,23.3159 Q977.6101,25.4077 978.2949,26.4744 Q978.9797,27.541 980.3244,27.541 Q980.9553,27.541 981.5488,27.2712 Q982.1423,27.0015 982.7731,26.4204 Z " fill="#000000"/><text fill="#000000" font-family="sans-serif" font-size="14" lengthAdjust="spacing" textLength="31" x="999.7" y="28.291">User</text><line style="stroke:#181818;stroke-width:0.5;" x1="942" x2="1057" y1="39" y2="39"/><rect fill="none" height="6" style="stroke:#C82930;stroke-width:1.0;" width="6" x="949" y="49.7441"/><text fill="#000000" font-family="sans-serif" font-size="14" lengthAdjust="spacing" textLength="66" x="961" y="56.5352">id : String</text><rect fill="none" height="6" style="stroke:#C82930;stroke-width:1.0;" width="6" x="949" y="66.2324"/><text fill="#000000" font-family="sans-serif" font-size="14" lengthAdjust="spacing" textLength="91" x="961" y="73.0234">name : String</text><line style="stroke:#181818;stroke-width:0.5;" x1="942" x2="1057" y1="79.9766" y2="79.9766"/></g><!--reverse link CoinComponent to CoinComposite--><g id="link_CoinComponent_CoinComposite"><path d="M798.8119,949.0391 C832.0019,1008.6891 869.76,1076.53 901.61,1133.77 " fill="none" id="CoinComponent-backto-CoinComposite" style="stroke:#181818;stroke-width:1.0;"/><polygon fill="none" points="790.06,933.31,793.5688,951.9564,804.0549,946.1218,790.06,933.31" style="stroke:#181818;stroke-width:1.0;"/></g><!--link EuroCoin to CoinValue--><g id="link_EuroCoin_CoinValue"><path codeLine="77" d="M322.23,534.96 C271.06,552.29 191.89,587.03 149.5,645.81 C123.03,682.51 106.0191,723.3092 93.3191,763.4692 " fill="none" id="EuroCoin-to-CoinValue" style="stroke:#181818;stroke-width:1.0;"/><polygon fill="#181818" points="91.51,769.19,98.0375,761.8149,93.0176,764.4227,90.4098,759.4028,91.51,769.19" style="stroke:#181818;stroke-width:1.0;"/><rect fill="none" height="6" style="stroke:#C82930;stroke-width:1.0;" width="6" x="195.36" y="604.9653"/><text fill="#000000" font-family="sans-serif" font-size="13" lengthAdjust="spacing" textLength="33" x="205.36" y="612.3784">value</text><text fill="#000000" font-family="sans-serif" font-size="13" lengthAdjust="spacing" textLength="8" x="85.0015" y="758.6777">1</text></g><!--link EuroCoin to CoinCountry--><g id="link_EuroCoin_CoinCountry"><path codeLine="78" d="M322.14,547.36 C302.78,560.32 282.12,577.74 269.5,598.81 C260.82,613.31 255.7318,623.3803 249.9918,639.6903 " fill="none" id="EuroCoin-to-CoinCountry" style="stroke:#181818;stroke-width:1.0;"/><polygon fill="#181818" points="248,645.35,254.7609,638.1883,249.6599,640.6336,247.2146,635.5325,248,645.35" style="stroke:#181818;stroke-width:1.0;"/><rect fill="none" height="6" style="stroke:#C82930;stroke-width:1.0;" width="6" x="272.5" y="604.9653"/><text fill="#000000" font-family="sans-serif" font-size="13" lengthAdjust="spacing" textLength="79" x="282.5" y="612.3784">mintCountry</text><text fill="#000000" font-family="sans-serif" font-size="13" lengthAdjust="spacing" textLength="8" x="240.6289" y="634.9611">1</text></g><!--link EuroCoin to CoinDescription--><g id="link_EuroCoin_CoinDescription"><path codeLine="79" d="M398.81,560.9 C406.67,572.8 414.86,586.07 421.5,598.81 C462.71,677.8 496.3587,771.2559 513.1987,821.0759 " fill="none" id="EuroCoin-to-CoinDescription" style="stroke:#181818;stroke-width:1.0;"/><polygon fill="#181818" points="515.12,826.76,516.0274,816.953,513.5189,822.0233,508.4487,819.5148,515.12,826.76" style="stroke:#181818;stroke-width:1.0;"/><rect fill="none" height="6" style="stroke:#C82930;stroke-width:1.0;" width="6" x="431.34" y="604.9653"/><text fill="#000000" font-family="sans-serif" font-size="13" lengthAdjust="spacing" textLength="71" x="441.34" y="612.3784">description</text><text fill="#000000" font-family="sans-serif" font-size="13" lengthAdjust="spacing" textLength="8" x="504.2889" y="816.4516">1</text></g><!--link EuroCoin to Mint--><g id="link_EuroCoin_Mint"><path codeLine="80" d="M370.5,560.77 C370.5,618.15 370.5,718.96 370.5,787.8 " fill="none" id="EuroCoin-to-Mint" style="stroke:#181818;stroke-width:1.0;"/><polygon fill="#181818" points="370.5,793.8,374.5,784.8,370.5,788.8,366.5,784.8,370.5,793.8" style="stroke:#181818;stroke-width:1.0;"/><rect fill="none" height="6" style="stroke:#C82930;stroke-width:1.0;" width="6" x="373.5" y="604.9653"/><text fill="#000000" font-family="sans-serif" font-size="13" lengthAdjust="spacing" textLength="29" x="383.5" y="612.3784">mint</text><text fill="#000000" font-family="sans-serif" font-size="13" lengthAdjust="spacing" textLength="8" x="362.0625" y="783.3878">1</text></g><!--link EuroCoin to CoinComponent--><g id="link_EuroCoin_CoinComponent"><path codeLine="81" d="M418.84,537.2 C471.4,556.57 555.61,593.17 613.5,645.81 C656.62,685.02 683.1979,724.9725 706.8979,769.6025 " fill="none" id="EuroCoin-to-CoinComponent" style="stroke:#181818;stroke-width:1.0;stroke-dasharray:7.0,7.0;"/><polygon fill="none" points="715.34,785.5,712.1971,766.7885,701.5987,772.4165,715.34,785.5" style="stroke:#181818;stroke-width:1.0;"/><text fill="#000000" font-family="sans-serif" font-size="13" lengthAdjust="spacing" textLength="74" x="573.65" y="612.3784">implements</text></g><!--link CoinCollection to CoinComposite--><g id="link_CoinCollection_CoinComposite"><path codeLine="89" d="M912.09,569.09 C913.42,578.9 914.64,589.17 915.5,598.81 C932.76,793.05 936.4107,1005.8505 937.2007,1115.8105 " fill="none" id="CoinCollection-to-CoinComposite" style="stroke:#181818;stroke-width:1.0;stroke-dasharray:7.0,7.0;"/><polygon fill="none" points="937.33,1133.81,943.2005,1115.7674,931.2008,1115.8536,937.33,1133.81" style="stroke:#181818;stroke-width:1.0;"/><text fill="#000000" font-family="sans-serif" font-size="13" lengthAdjust="spacing" textLength="74" x="937.67" y="864.4884">implements</text></g><!--link CoinCollection to CoinComponent--><g id="link_CoinCollection_CoinComponent"><path codeLine="90" d="M878.59,568.9 C873.46,578.73 868.21,589.05 863.5,598.81 C833.44,661.1 804.3824,727.6861 782.1624,780.0861 " fill="none" id="CoinCollection-to-CoinComponent" style="stroke:#181818;stroke-width:1.0;"/><polygon fill="#181818" points="779.82,785.61,787.0162,778.8858,781.772,781.0068,779.651,775.7626,779.82,785.61" style="stroke:#181818;stroke-width:1.0;"/><rect fill="none" height="6" style="stroke:#C82930;stroke-width:1.0;" width="6" x="866.5" y="604.9653"/><text fill="#000000" font-family="sans-serif" font-size="13" lengthAdjust="spacing" textLength="34" x="876.5" y="612.3784">coins</text><text fill="#000000" font-family="sans-serif" font-size="13" lengthAdjust="spacing" textLength="6" x="776.5093" y="775.1892">*</text></g><!--link CollectionGroup to CoinComposite--><g id="link_CollectionGroup_CoinComposite"><path codeLine="97" d="M1012.98,328.77 C1020.05,356.47 1027.95,392.08 1031.5,424.34 C1049.45,587.54 1067.11,924.25 1020.5,1073.04 C1013.87,1094.19 1012.4415,1100.1044 1000.1915,1118.5944 " fill="none" id="CollectionGroup-to-CoinComposite" style="stroke:#181818;stroke-width:1.0;stroke-dasharray:7.0,7.0;"/><polygon fill="none" points="990.25,1133.6,1005.1933,1121.9083,995.1896,1115.2806,990.25,1133.6" style="stroke:#181818;stroke-width:1.0;"/><text fill="#000000" font-family="sans-serif" font-size="13" lengthAdjust="spacing" textLength="74" x="1047.12" y="612.3784">implements</text></g><!--link CollectionGroup to CoinCollection--><g id="link_CollectionGroup_CoinCollection"><path codeLine="98" d="M980.39,328.62 C963.86,370.09 942.3214,424.1664 925.8014,465.6164 " fill="none" id="CollectionGroup-to-CoinCollection" style="stroke:#181818;stroke-width:1.0;"/><polygon fill="#181818" points="923.58,471.19,930.6278,464.3105,925.4312,466.5453,923.1963,461.3486,923.58,471.19" style="stroke:#181818;stroke-width:1.0;"/><rect fill="none" height="6" style="stroke:#C82930;stroke-width:1.0;" width="6" x="943.7" y="430.4953"/><text fill="#000000" font-family="sans-serif" font-size="13" lengthAdjust="spacing" textLength="69" x="953.7" y="437.9084">collections</text><text fill="#000000" font-family="sans-serif" font-size="13" lengthAdjust="spacing" textLength="6" x="919.9418" y="460.5">*</text></g><!--link EuroCoinBuilder to EuroCoin--><g id="link_EuroCoinBuilder_EuroCoin"><path codeLine="115" d="M370.5,394.63 C370.5,425.04 370.5,449.9 370.5,473.29 " fill="none" id="EuroCoinBuilder-to-EuroCoin" style="stroke:#181818;stroke-width:1.0;stroke-dasharray:7.0,7.0;"/><polygon fill="#181818" points="370.5,479.29,374.5,470.29,370.5,474.29,366.5,470.29,370.5,479.29" style="stroke:#181818;stroke-width:1.0;"/><text fill="#000000" font-family="sans-serif" font-size="13" lengthAdjust="spacing" textLength="39" x="371.5" y="437.9084">builds</text></g><!--link User to CollectionGroup--><g id="link_User_CollectionGroup"><path codeLine="123" d="M999.5,88.31 C999.5,127.82 999.5,182.38 999.5,224.55 " fill="none" id="User-to-CollectionGroup" style="stroke:#181818;stroke-width:1.0;"/><polygon fill="#181818" points="999.5,230.55,1003.5,221.55,999.5,225.55,995.5,221.55,999.5,230.55" style="stroke:#181818;stroke-width:1.0;"/><rect fill="none" height="6" style="stroke:#C82930;stroke-width:1.0;" width="6" x="1002.5" y="124.1253"/><text fill="#000000" font-family="sans-serif" font-size="13" lengthAdjust="spacing" textLength="97" x="1012.5" y="131.5384">rootCollections</text><text fill="#000000" font-family="sans-serif" font-size="13" lengthAdjust="spacing" textLength="8" x="990.8625" y="108.6044">1</text><text fill="#000000" font-family="sans-serif" font-size="13" lengthAdjust="spacing" textLength="22" x="975.9531" y="220.1791">0..*</text></g><!--SRC=[dLHTRzem57tFhuZwKheLjBsY2Sa40nQ9KpaE7KyL9LuNAIHL4j2cRVzzjkEl0ANJyfJxTNpklSU-zI5EeyHZvM7l1rLUhhV5WVc_F9z_COPF0SJqNbhqCPPMqfbpj8QkJI7kcO_yVzClcFST0Xwc9BRmmagyFvwb4rI7igr_Aa8WJIX1uDwNrXI62vH6oWes3oHDbB60909ueooOq1YRikG18Ap-vmY70C-qHG0EO4TdGI3a_rq04UYa8Gf23HqYkao11G_Jhp2QnYbPQ0UWQnEDG4X1XuyXNK8YK3NdXvZGT052JJECrz1XpKsmiYR0Jn4W2CVAiGOK1TmP8BhfJeXY308TvkV4X00psoWlMpNKAQTX1XAb60LBVGXDALq0GfMz0YHCIBhKOrc2QCex5Q2t_Wmc0K4F5CNOsnNRff7xcx5cL-UlRLwLwhYXtx8VhJ_saxREovUk664AoHm4CF4uCLP_s-wOsl_-jIgP8VlHVs4joWPt5i2udRFEutaZe0hMCXbxhgg2RKjRJAjsMqZnopXdOMD6YESXK1GYsiX8c3Vj5tYeA-6QYCukDDFaBVFv15YPDVqMTOVRB1liJD_ZVf8uvrZbcSgjsRuwidzE5yrypukiPgLbt2kOM1B2pv7paYVghaxmP5PHi9qS-ixy6XhQOUhakeCOQP5eOAEEFEklRkZ_PDjQpPrNcuBXSEBVVBvnNgsnFpoAdyiv-YdXMNkEfSpBkQviUNvcpVDyUPKKg8sEHhyd9mhcBGW5xlb_qqqX364WBapY3rOnNX58xvoxOwTtPJZbTiykt8KheZo1xXELwkmHFKcNNN-uEMjjA8J2szBqTS6YhWwl_yDV0pIdGjM1hfV-EUytqy_lT-EeTsYrB7SrJL4uW-H4jDC3lqkiDkqvIkqSHwLBer7bTmHehaednowUzVHteaW7WmU5_3mrk8Qr6qvXO7dSENTNiRMvtNDtnl5gJMIP3zxiuYg2-qnVxVDT7WDd16ydFmjhuCQvS4utE1fDx5CqxchaujF4R3rjd5M_fsJ-KibyyK98bNqQZQJG-WBaIgkhofMxznS0]--></g></svg>