<?xml version="1.0" encoding="us-ascii" standalone="no"?><svg xmlns="http://www.w3.org/2000/svg" xmlns:xlink="http://www.w3.org/1999/xlink" contentStyleType="text/css" height="1353px" preserveAspectRatio="none" style="width:1015px;height:1353px;background:#FFFFFF;" version="1.1" viewBox="0 0 1015 1353" width="1015px" zoomAndPan="magnify"><defs/><g><!--class CoinValue--><g id="elem_CoinValue"><rect codeLine="3" fill="#F1F1F1" height="179.9063" id="CoinValue" rx="2.5" ry="2.5" style="stroke:#181818;stroke-width:0.5;" width="125" x="143" y="1042.87"/><ellipse cx="168.35" cy="1058.87" fill="#EB937F" rx="11" ry="11" style="stroke:#181818;stroke-width:1.0;"/><path d="M171.9643,1065.37 L164.2445,1065.37 L164.2445,1052.9769 L171.9643,1052.9769 L171.9643,1055.1351 L166.6933,1055.1351 L166.6933,1057.808 L171.4662,1057.808 L171.4662,1059.9662 L166.6933,1059.9662 L166.6933,1063.2118 L171.9643,1063.2118 Z " fill="#000000"/><text fill="#000000" font-family="sans-serif" font-size="14" lengthAdjust="spacing" textLength="70" x="184.65" y="1064.161">CoinValue</text><line style="stroke:#181818;stroke-width:0.5;" x1="144" x2="267" y1="1074.87" y2="1074.87"/><text fill="#000000" font-family="sans-serif" font-size="14" lengthAdjust="spacing" textLength="77" x="149" y="1092.4052">ONE_CENT,</text><text fill="#000000" font-family="sans-serif" font-size="14" lengthAdjust="spacing" textLength="88" x="149" y="1108.8934">TWO_CENTS,</text><text fill="#000000" font-family="sans-serif" font-size="14" lengthAdjust="spacing" textLength="85" x="149" y="1125.3817">FIVE_CENTS,</text><text fill="#000000" font-family="sans-serif" font-size="14" lengthAdjust="spacing" textLength="83" x="149" y="1141.87">TEN_CENTS,</text><text fill="#000000" font-family="sans-serif" font-size="14" lengthAdjust="spacing" textLength="113" x="149" y="1158.3583">TWENTY_CENTS,</text><text fill="#000000" font-family="sans-serif" font-size="14" lengthAdjust="spacing" textLength="94" x="149" y="1174.8466">FIFTY_CENTS,</text><text fill="#000000" font-family="sans-serif" font-size="14" lengthAdjust="spacing" textLength="78" x="149" y="1191.3348">ONE_EURO,</text><text fill="#000000" font-family="sans-serif" font-size="14" lengthAdjust="spacing" textLength="85" x="149" y="1207.8231">TWO_EUROS</text><line style="stroke:#181818;stroke-width:0.5;" x1="144" x2="267" y1="1214.7763" y2="1214.7763"/></g><!--class CoinCountry--><g id="elem_CoinCountry"><rect codeLine="14" fill="#F1F1F1" height="427.2305" id="CoinCountry" rx="2.5" ry="2.5" style="stroke:#181818;stroke-width:0.5;" width="119" x="303" y="919.21"/><ellipse cx="318" cy="935.21" fill="#EB937F" rx="11" ry="11" style="stroke:#181818;stroke-width:1.0;"/><path d="M321.6143,941.71 L313.8945,941.71 L313.8945,929.3169 L321.6143,929.3169 L321.6143,931.4751 L316.3433,931.4751 L316.3433,934.148 L321.1162,934.148 L321.1162,936.3062 L316.3433,936.3062 L316.3433,939.5518 L321.6143,939.5518 Z " fill="#000000"/><text fill="#000000" font-family="sans-serif" font-size="14" lengthAdjust="spacing" textLength="87" x="332" y="940.501">CoinCountry</text><line style="stroke:#181818;stroke-width:0.5;" x1="304" x2="421" y1="951.21" y2="951.21"/><text fill="#000000" font-family="sans-serif" font-size="14" lengthAdjust="spacing" textLength="64" x="309" y="968.7452">AUSTRIA,</text><text fill="#000000" font-family="sans-serif" font-size="14" lengthAdjust="spacing" textLength="63" x="309" y="985.2334">BELGIUM,</text><text fill="#000000" font-family="sans-serif" font-size="14" lengthAdjust="spacing" textLength="58" x="309" y="1001.7217">CYPRUS,</text><text fill="#000000" font-family="sans-serif" font-size="14" lengthAdjust="spacing" textLength="72" x="309" y="1018.21">GERMANY,</text><text fill="#000000" font-family="sans-serif" font-size="14" lengthAdjust="spacing" textLength="64" x="309" y="1034.6983">ESTONIA,</text><text fill="#000000" font-family="sans-serif" font-size="14" lengthAdjust="spacing" textLength="44" x="309" y="1051.1866">SPAIN,</text><text fill="#000000" font-family="sans-serif" font-size="14" lengthAdjust="spacing" textLength="63" x="309" y="1067.6748">FINLAND,</text><text fill="#000000" font-family="sans-serif" font-size="14" lengthAdjust="spacing" textLength="59" x="309" y="1084.1631">FRANCE,</text><text fill="#000000" font-family="sans-serif" font-size="14" lengthAdjust="spacing" textLength="57" x="309" y="1100.6514">GREECE,</text><text fill="#000000" font-family="sans-serif" font-size="14" lengthAdjust="spacing" textLength="62" x="309" y="1117.1397">IRELAND,</text><text fill="#000000" font-family="sans-serif" font-size="14" lengthAdjust="spacing" textLength="43" x="309" y="1133.628">ITALY,</text><text fill="#000000" font-family="sans-serif" font-size="14" lengthAdjust="spacing" textLength="78" x="309" y="1150.1163">LITHUANIA,</text><text fill="#000000" font-family="sans-serif" font-size="14" lengthAdjust="spacing" textLength="98" x="309" y="1166.6045">LUXEMBOURG,</text><text fill="#000000" font-family="sans-serif" font-size="14" lengthAdjust="spacing" textLength="53" x="309" y="1183.0928">LATVIA,</text><text fill="#000000" font-family="sans-serif" font-size="14" lengthAdjust="spacing" textLength="52" x="309" y="1199.5811">MALTA,</text><text fill="#000000" font-family="sans-serif" font-size="14" lengthAdjust="spacing" textLength="103" x="309" y="1216.0694">NETHERLANDS,</text><text fill="#000000" font-family="sans-serif" font-size="14" lengthAdjust="spacing" textLength="78" x="309" y="1232.5577">PORTUGAL,</text><text fill="#000000" font-family="sans-serif" font-size="14" lengthAdjust="spacing" textLength="71" x="309" y="1249.0459">SLOVENIA,</text><text fill="#000000" font-family="sans-serif" font-size="14" lengthAdjust="spacing" textLength="72" x="309" y="1265.5342">SLOVAKIA,</text><text fill="#000000" font-family="sans-serif" font-size="14" lengthAdjust="spacing" textLength="95" x="309" y="1282.0225">SAN_MARINO,</text><text fill="#000000" font-family="sans-serif" font-size="14" lengthAdjust="spacing" textLength="105" x="309" y="1298.5108">VATICAN_CITY,</text><text fill="#000000" font-family="sans-serif" font-size="14" lengthAdjust="spacing" textLength="68" x="309" y="1314.9991">MONACO,</text><text fill="#000000" font-family="sans-serif" font-size="14" lengthAdjust="spacing" textLength="69" x="309" y="1331.4873">ANDORRA</text><line style="stroke:#181818;stroke-width:0.5;" x1="304" x2="421" y1="1338.4405" y2="1338.4405"/></g><!--class Mint--><g id="elem_Mint"><rect codeLine="40" fill="#F1F1F1" height="130.4414" id="Mint" rx="2.5" ry="2.5" style="stroke:#181818;stroke-width:0.5;" width="99" x="457" y="1067.6"/><ellipse cx="488.65" cy="1083.6" fill="#EB937F" rx="11" ry="11" style="stroke:#181818;stroke-width:1.0;"/><path d="M492.2643,1090.1 L484.5445,1090.1 L484.5445,1077.7069 L492.2643,1077.7069 L492.2643,1079.8651 L486.9933,1079.8651 L486.9933,1082.538 L491.7662,1082.538 L491.7662,1084.6962 L486.9933,1084.6962 L486.9933,1087.9418 L492.2643,1087.9418 Z " fill="#000000"/><text fill="#000000" font-family="sans-serif" font-size="14" lengthAdjust="spacing" textLength="30" x="506.35" y="1088.891">Mint</text><line style="stroke:#181818;stroke-width:0.5;" x1="458" x2="555" y1="1099.6" y2="1099.6"/><text fill="#000000" font-family="sans-serif" font-size="14" lengthAdjust="spacing" textLength="50" x="463" y="1117.1352">BERLIN,</text><text fill="#000000" font-family="sans-serif" font-size="14" lengthAdjust="spacing" textLength="60" x="463" y="1133.6234">MUNICH,</text><text fill="#000000" font-family="sans-serif" font-size="14" lengthAdjust="spacing" textLength="87" x="463" y="1150.1117">STUTTGART,</text><text fill="#000000" font-family="sans-serif" font-size="14" lengthAdjust="spacing" textLength="84" x="463" y="1166.6">KARLSRUHE,</text><text fill="#000000" font-family="sans-serif" font-size="14" lengthAdjust="spacing" textLength="69" x="463" y="1183.0883">HAMBURG</text><line style="stroke:#181818;stroke-width:0.5;" x1="458" x2="555" y1="1190.0414" y2="1190.0414"/></g><!--class CoinDescription--><g id="elem_CoinDescription"><rect codeLine="49" fill="#F1F1F1" height="64.4883" id="CoinDescription" rx="2.5" ry="2.5" style="stroke:#181818;stroke-width:0.5;" width="142" x="590.5" y="1100.58"/><ellipse cx="605.5" cy="1116.58" fill="#ADD1B2" rx="11" ry="11" style="stroke:#181818;stroke-width:1.0;"/><path d="M607.9731,1122.7231 Q607.3921,1123.0219 606.7529,1123.1713 Q606.1138,1123.3207 605.4082,1123.3207 Q602.9014,1123.3207 601.5815,1121.6689 Q600.2617,1120.017 600.2617,1116.8959 Q600.2617,1113.7665 601.5815,1112.1147 Q602.9014,1110.4628 605.4082,1110.4628 Q606.1138,1110.4628 606.7612,1110.6122 Q607.4087,1110.7616 607.9731,1111.0605 L607.9731,1113.7831 Q607.3423,1113.2021 606.7488,1112.9323 Q606.1553,1112.6625 605.5244,1112.6625 Q604.1797,1112.6625 603.4949,1113.7292 Q602.8101,1114.7958 602.8101,1116.8959 Q602.8101,1118.9877 603.4949,1120.0544 Q604.1797,1121.121 605.5244,1121.121 Q606.1553,1121.121 606.7488,1120.8512 Q607.3423,1120.5815 607.9731,1120.0004 Z " fill="#000000"/><text fill="#000000" font-family="sans-serif" font-size="14" lengthAdjust="spacing" textLength="110" x="619.5" y="1121.871">CoinDescription</text><line style="stroke:#181818;stroke-width:0.5;" x1="591.5" x2="731.5" y1="1132.58" y2="1132.58"/><rect fill="none" height="6" style="stroke:#C82930;stroke-width:1.0;" width="6" x="598.5" y="1143.3241"/><text fill="#000000" font-family="sans-serif" font-size="14" lengthAdjust="spacing" textLength="80" x="610.5" y="1150.1152">text : String</text><line style="stroke:#181818;stroke-width:0.5;" x1="591.5" x2="731.5" y1="1157.0683" y2="1157.0683"/></g><!--class CoinCollection--><g id="elem_CoinCollection"><rect codeLine="54" fill="#F1F1F1" height="179.9063" id="CoinCollection" rx="2.5" ry="2.5" style="stroke:#181818;stroke-width:0.5;" width="233" x="283" y="446.62"/><ellipse cx="344.75" cy="462.62" fill="#B4A7E5" rx="11" ry="11" style="stroke:#181818;stroke-width:1.0;"/><path d="M341.1777,458.8851 L341.1777,456.7269 L348.5571,456.7269 L348.5571,458.8851 L346.0918,458.8851 L346.0918,466.9618 L348.5571,466.9618 L348.5571,469.12 L341.1777,469.12 L341.1777,466.9618 L343.6431,466.9618 L343.6431,458.8851 Z " fill="#000000"/><text fill="#000000" font-family="sans-serif" font-size="14" font-style="italic" lengthAdjust="spacing" textLength="101" x="365.25" y="467.911">CoinCollection</text><line style="stroke:#181818;stroke-width:0.5;" x1="284" x2="515" y1="478.62" y2="478.62"/><line style="stroke:#181818;stroke-width:0.5;" x1="284" x2="515" y1="486.62" y2="486.62"/><ellipse cx="294" cy="500.3641" fill="#84BE84" rx="3" ry="3" style="stroke:#038048;stroke-width:1.0;"/><text fill="#000000" font-family="sans-serif" font-size="14" lengthAdjust="spacing" textLength="98" x="303" y="504.1552">getId() : String</text><ellipse cx="294" cy="516.8524" fill="#84BE84" rx="3" ry="3" style="stroke:#038048;stroke-width:1.0;"/><text fill="#000000" font-family="sans-serif" font-size="14" lengthAdjust="spacing" textLength="124" x="303" y="520.6434">getName() : String</text><ellipse cx="294" cy="533.3407" fill="#84BE84" rx="3" ry="3" style="stroke:#038048;stroke-width:1.0;"/><text fill="#000000" font-family="sans-serif" font-size="14" lengthAdjust="spacing" textLength="160" x="303" y="537.1317">getCoins() : List&lt;Coin&gt;</text><ellipse cx="294" cy="549.829" fill="#84BE84" rx="3" ry="3" style="stroke:#038048;stroke-width:1.0;"/><text fill="#000000" font-family="sans-serif" font-size="14" lengthAdjust="spacing" textLength="182" x="303" y="553.62">addCoin(coin : Coin) : void</text><ellipse cx="294" cy="566.3173" fill="#84BE84" rx="3" ry="3" style="stroke:#038048;stroke-width:1.0;"/><text fill="#000000" font-family="sans-serif" font-size="14" lengthAdjust="spacing" textLength="207" x="303" y="570.1083">removeCoin(coin : Coin) : void</text><ellipse cx="294" cy="582.8055" fill="#84BE84" rx="3" ry="3" style="stroke:#038048;stroke-width:1.0;"/><text fill="#000000" font-family="sans-serif" font-size="14" lengthAdjust="spacing" textLength="135" x="303" y="586.5966">getTotalValue() : int</text><ellipse cx="294" cy="599.2938" fill="#84BE84" rx="3" ry="3" style="stroke:#038048;stroke-width:1.0;"/><text fill="#000000" font-family="sans-serif" font-size="14" lengthAdjust="spacing" textLength="136" x="303" y="603.0848">getCoinCount() : int</text><ellipse cx="294" cy="615.7821" fill="#84BE84" rx="3" ry="3" style="stroke:#038048;stroke-width:1.0;"/><text fill="#000000" font-family="sans-serif" font-size="14" lengthAdjust="spacing" textLength="155" x="303" y="619.5731">isComplete() : boolean</text></g><!--class CollectionGroup--><g id="elem_CollectionGroup"><rect codeLine="65" fill="#F1F1F1" height="179.9063" id="CollectionGroup" rx="2.5" ry="2.5" style="stroke:#181818;stroke-width:0.5;" width="376" x="613.5" y="164.98"/><ellipse cx="741.25" cy="180.98" fill="#B4A7E5" rx="11" ry="11" style="stroke:#181818;stroke-width:1.0;"/><path d="M737.6777,177.2451 L737.6777,175.0869 L745.0571,175.0869 L745.0571,177.2451 L742.5918,177.2451 L742.5918,185.3218 L745.0571,185.3218 L745.0571,187.48 L737.6777,187.48 L737.6777,185.3218 L740.1431,185.3218 L740.1431,177.2451 Z " fill="#000000"/><text fill="#000000" font-family="sans-serif" font-size="14" font-style="italic" lengthAdjust="spacing" textLength="112" x="761.75" y="186.271">CollectionGroup</text><line style="stroke:#181818;stroke-width:0.5;" x1="614.5" x2="988.5" y1="196.98" y2="196.98"/><line style="stroke:#181818;stroke-width:0.5;" x1="614.5" x2="988.5" y1="204.98" y2="204.98"/><ellipse cx="624.5" cy="218.7241" fill="#84BE84" rx="3" ry="3" style="stroke:#038048;stroke-width:1.0;"/><text fill="#000000" font-family="sans-serif" font-size="14" lengthAdjust="spacing" textLength="98" x="633.5" y="222.5152">getId() : String</text><ellipse cx="624.5" cy="235.2124" fill="#84BE84" rx="3" ry="3" style="stroke:#038048;stroke-width:1.0;"/><text fill="#000000" font-family="sans-serif" font-size="14" lengthAdjust="spacing" textLength="124" x="633.5" y="239.0034">getName() : String</text><ellipse cx="624.5" cy="251.7007" fill="#84BE84" rx="3" ry="3" style="stroke:#038048;stroke-width:1.0;"/><text fill="#000000" font-family="sans-serif" font-size="14" lengthAdjust="spacing" textLength="266" x="633.5" y="255.4917">getCollections() : List&lt;CoinCollection&gt;</text><ellipse cx="624.5" cy="268.189" fill="#84BE84" rx="3" ry="3" style="stroke:#038048;stroke-width:1.0;"/><text fill="#000000" font-family="sans-serif" font-size="14" lengthAdjust="spacing" textLength="325" x="633.5" y="271.98">addCollection(collection : CoinCollection) : void</text><ellipse cx="624.5" cy="284.6773" fill="#84BE84" rx="3" ry="3" style="stroke:#038048;stroke-width:1.0;"/><text fill="#000000" font-family="sans-serif" font-size="14" lengthAdjust="spacing" textLength="350" x="633.5" y="288.4683">removeCollection(collection : CoinCollection) : void</text><ellipse cx="624.5" cy="301.1655" fill="#84BE84" rx="3" ry="3" style="stroke:#038048;stroke-width:1.0;"/><text fill="#000000" font-family="sans-serif" font-size="14" lengthAdjust="spacing" textLength="173" x="633.5" y="304.9566">getTotalCollections() : int</text><ellipse cx="624.5" cy="317.6538" fill="#84BE84" rx="3" ry="3" style="stroke:#038048;stroke-width:1.0;"/><text fill="#000000" font-family="sans-serif" font-size="14" lengthAdjust="spacing" textLength="136" x="633.5" y="321.4448">getTotalCoins() : int</text><ellipse cx="624.5" cy="334.1421" fill="#84BE84" rx="3" ry="3" style="stroke:#038048;stroke-width:1.0;"/><text fill="#000000" font-family="sans-serif" font-size="14" lengthAdjust="spacing" textLength="135" x="633.5" y="337.9331">getTotalValue() : int</text></g><!--class Coin--><g id="elem_Coin"><rect codeLine="76" fill="#F1F1F1" height="113.9531" id="Coin" rx="2.5" ry="2.5" style="stroke:#181818;stroke-width:0.5;" width="189" x="593" y="728.26"/><ellipse cx="667.25" cy="744.26" fill="#B4A7E5" rx="11" ry="11" style="stroke:#181818;stroke-width:1.0;"/><path d="M663.6777,740.5251 L663.6777,738.3669 L671.0571,738.3669 L671.0571,740.5251 L668.5918,740.5251 L668.5918,748.6018 L671.0571,748.6018 L671.0571,750.76 L663.6777,750.76 L663.6777,748.6018 L666.1431,748.6018 L666.1431,740.5251 Z " fill="#000000"/><text fill="#000000" font-family="sans-serif" font-size="14" font-style="italic" lengthAdjust="spacing" textLength="32" x="687.75" y="749.551">Coin</text><line style="stroke:#181818;stroke-width:0.5;" x1="594" x2="781" y1="760.26" y2="760.26"/><line style="stroke:#181818;stroke-width:0.5;" x1="594" x2="781" y1="768.26" y2="768.26"/><ellipse cx="604" cy="782.0041" fill="#84BE84" rx="3" ry="3" style="stroke:#038048;stroke-width:1.0;"/><text fill="#000000" font-family="sans-serif" font-size="14" lengthAdjust="spacing" textLength="98" x="613" y="785.7952">getId() : String</text><ellipse cx="604" cy="798.4924" fill="#84BE84" rx="3" ry="3" style="stroke:#038048;stroke-width:1.0;"/><text fill="#000000" font-family="sans-serif" font-size="14" lengthAdjust="spacing" textLength="100" x="613" y="802.2834">getValue() : int</text><ellipse cx="604" cy="814.9807" fill="#84BE84" rx="3" ry="3" style="stroke:#038048;stroke-width:1.0;"/><text fill="#000000" font-family="sans-serif" font-size="14" lengthAdjust="spacing" textLength="93" x="613" y="818.7717">getYear() : int</text><ellipse cx="604" cy="831.469" fill="#84BE84" rx="3" ry="3" style="stroke:#038048;stroke-width:1.0;"/><text fill="#000000" font-family="sans-serif" font-size="14" lengthAdjust="spacing" textLength="163" x="613" y="835.26">getDescription() : String</text></g><!--class EuroCoin--><g id="elem_EuroCoin"><rect codeLine="84" fill="#F1F1F1" height="80.9766" id="EuroCoin" rx="2.5" ry="2.5" style="stroke:#181818;stroke-width:0.5;" width="96" x="386.5" y="744.74"/><ellipse cx="401.5" cy="760.74" fill="#ADD1B2" rx="11" ry="11" style="stroke:#181818;stroke-width:1.0;"/><path d="M403.9731,766.8831 Q403.3921,767.1819 402.7529,767.3313 Q402.1138,767.4807 401.4082,767.4807 Q398.9014,767.4807 397.5815,765.8289 Q396.2617,764.177 396.2617,761.0559 Q396.2617,757.9265 397.5815,756.2747 Q398.9014,754.6228 401.4082,754.6228 Q402.1138,754.6228 402.7612,754.7722 Q403.4087,754.9216 403.9731,755.2205 L403.9731,757.9431 Q403.3423,757.3621 402.7488,757.0923 Q402.1553,756.8225 401.5244,756.8225 Q400.1797,756.8225 399.4949,757.8892 Q398.8101,758.9558 398.8101,761.0559 Q398.8101,763.1477 399.4949,764.2144 Q400.1797,765.281 401.5244,765.281 Q402.1553,765.281 402.7488,765.0112 Q403.3423,764.7415 403.9731,764.1604 Z " fill="#000000"/><text fill="#000000" font-family="sans-serif" font-size="14" lengthAdjust="spacing" textLength="64" x="415.5" y="766.031">EuroCoin</text><line style="stroke:#181818;stroke-width:0.5;" x1="387.5" x2="481.5" y1="776.74" y2="776.74"/><rect fill="none" height="6" style="stroke:#C82930;stroke-width:1.0;" width="6" x="394.5" y="787.4841"/><text fill="#000000" font-family="sans-serif" font-size="14" lengthAdjust="spacing" textLength="66" x="406.5" y="794.2752">id : String</text><rect fill="none" height="6" style="stroke:#C82930;stroke-width:1.0;" width="6" x="394.5" y="803.9724"/><text fill="#000000" font-family="sans-serif" font-size="14" lengthAdjust="spacing" textLength="59" x="406.5" y="810.7634">year : int</text><line style="stroke:#181818;stroke-width:0.5;" x1="387.5" x2="481.5" y1="817.7166" y2="817.7166"/></g><!--class EuroCoinCollection--><g id="elem_EuroCoinCollection"><rect codeLine="96" fill="#F1F1F1" height="80.9766" id="EuroCoinCollection" rx="2.5" ry="2.5" style="stroke:#181818;stroke-width:0.5;" width="165" x="7" y="496.08"/><ellipse cx="22" cy="512.08" fill="#ADD1B2" rx="11" ry="11" style="stroke:#181818;stroke-width:1.0;"/><path d="M24.4731,518.2231 Q23.8921,518.5219 23.2529,518.6713 Q22.6138,518.8207 21.9082,518.8207 Q19.4014,518.8207 18.0815,517.1689 Q16.7617,515.517 16.7617,512.3959 Q16.7617,509.2665 18.0815,507.6147 Q19.4014,505.9628 21.9082,505.9628 Q22.6138,505.9628 23.2612,506.1122 Q23.9087,506.2616 24.4731,506.5605 L24.4731,509.2831 Q23.8423,508.7021 23.2488,508.4323 Q22.6553,508.1625 22.0244,508.1625 Q20.6797,508.1625 19.9949,509.2292 Q19.3101,510.2958 19.3101,512.3959 Q19.3101,514.4877 19.9949,515.5544 Q20.6797,516.621 22.0244,516.621 Q22.6553,516.621 23.2488,516.3512 Q23.8423,516.0815 24.4731,515.5004 Z " fill="#000000"/><text fill="#000000" font-family="sans-serif" font-size="14" lengthAdjust="spacing" textLength="133" x="36" y="517.371">EuroCoinCollection</text><line style="stroke:#181818;stroke-width:0.5;" x1="8" x2="171" y1="528.08" y2="528.08"/><rect fill="none" height="6" style="stroke:#C82930;stroke-width:1.0;" width="6" x="15" y="538.8241"/><text fill="#000000" font-family="sans-serif" font-size="14" lengthAdjust="spacing" textLength="66" x="27" y="545.6152">id : String</text><rect fill="none" height="6" style="stroke:#C82930;stroke-width:1.0;" width="6" x="15" y="555.3124"/><text fill="#000000" font-family="sans-serif" font-size="14" lengthAdjust="spacing" textLength="91" x="27" y="562.1034">name : String</text><line style="stroke:#181818;stroke-width:0.5;" x1="8" x2="171" y1="569.0566" y2="569.0566"/></g><!--class EuroCoinCollectionGroup--><g id="elem_EuroCoinCollectionGroup"><rect codeLine="103" fill="#F1F1F1" height="80.9766" id="EuroCoinCollectionGroup" rx="2.5" ry="2.5" style="stroke:#181818;stroke-width:0.5;" width="208" x="295.5" y="214.44"/><ellipse cx="310.5" cy="230.44" fill="#ADD1B2" rx="11" ry="11" style="stroke:#181818;stroke-width:1.0;"/><path d="M312.9731,236.5831 Q312.3921,236.8819 311.7529,237.0313 Q311.1138,237.1807 310.4082,237.1807 Q307.9014,237.1807 306.5815,235.5289 Q305.2617,233.877 305.2617,230.7559 Q305.2617,227.6265 306.5815,225.9747 Q307.9014,224.3228 310.4082,224.3228 Q311.1138,224.3228 311.7612,224.4722 Q312.4087,224.6216 312.9731,224.9205 L312.9731,227.6431 Q312.3423,227.0621 311.7488,226.7923 Q311.1553,226.5225 310.5244,226.5225 Q309.1797,226.5225 308.4949,227.5892 Q307.8101,228.6558 307.8101,230.7559 Q307.8101,232.8477 308.4949,233.9144 Q309.1797,234.981 310.5244,234.981 Q311.1553,234.981 311.7488,234.7112 Q312.3423,234.4415 312.9731,233.8604 Z " fill="#000000"/><text fill="#000000" font-family="sans-serif" font-size="14" lengthAdjust="spacing" textLength="176" x="324.5" y="235.731">EuroCoinCollectionGroup</text><line style="stroke:#181818;stroke-width:0.5;" x1="296.5" x2="502.5" y1="246.44" y2="246.44"/><rect fill="none" height="6" style="stroke:#C82930;stroke-width:1.0;" width="6" x="303.5" y="257.1841"/><text fill="#000000" font-family="sans-serif" font-size="14" lengthAdjust="spacing" textLength="66" x="315.5" y="263.9752">id : String</text><rect fill="none" height="6" style="stroke:#C82930;stroke-width:1.0;" width="6" x="303.5" y="273.6724"/><text fill="#000000" font-family="sans-serif" font-size="14" lengthAdjust="spacing" textLength="91" x="315.5" y="280.4634">name : String</text><line style="stroke:#181818;stroke-width:0.5;" x1="296.5" x2="502.5" y1="287.4166" y2="287.4166"/></g><!--class EuroCoinBuilder--><g id="elem_EuroCoinBuilder"><rect codeLine="111" fill="#F1F1F1" height="229.3711" id="EuroCoinBuilder" rx="2.5" ry="2.5" style="stroke:#181818;stroke-width:0.5;" width="457" x="551" y="421.89"/><ellipse cx="719.25" cy="437.89" fill="#ADD1B2" rx="11" ry="11" style="stroke:#181818;stroke-width:1.0;"/><path d="M721.7231,444.0331 Q721.1421,444.3319 720.5029,444.4813 Q719.8638,444.6307 719.1582,444.6307 Q716.6514,444.6307 715.3315,442.9789 Q714.0117,441.327 714.0117,438.2059 Q714.0117,435.0765 715.3315,433.4247 Q716.6514,431.7728 719.1582,431.7728 Q719.8638,431.7728 720.5112,431.9222 Q721.1587,432.0716 721.7231,432.3705 L721.7231,435.0931 Q721.0923,434.5121 720.4988,434.2423 Q719.9053,433.9725 719.2744,433.9725 Q717.9297,433.9725 717.2449,435.0392 Q716.5601,436.1058 716.5601,438.2059 Q716.5601,440.2977 717.2449,441.3644 Q717.9297,442.431 719.2744,442.431 Q719.9053,442.431 720.4988,442.1612 Q721.0923,441.8915 721.7231,441.3104 Z " fill="#000000"/><text fill="#000000" font-family="sans-serif" font-size="14" lengthAdjust="spacing" textLength="112" x="739.75" y="443.181">EuroCoinBuilder</text><line style="stroke:#181818;stroke-width:0.5;" x1="552" x2="1007" y1="453.89" y2="453.89"/><rect fill="none" height="6" style="stroke:#C82930;stroke-width:1.0;" width="6" x="559" y="464.6341"/><text fill="#000000" font-family="sans-serif" font-size="14" lengthAdjust="spacing" textLength="59" x="571" y="471.4252">year : int</text><rect fill="none" height="6" style="stroke:#C82930;stroke-width:1.0;" width="6" x="559" y="481.1224"/><text fill="#000000" font-family="sans-serif" font-size="14" lengthAdjust="spacing" textLength="118" x="571" y="487.9134">value : CoinValue</text><rect fill="none" height="6" style="stroke:#C82930;stroke-width:1.0;" width="6" x="559" y="497.6107"/><text fill="#000000" font-family="sans-serif" font-size="14" lengthAdjust="spacing" textLength="185" x="571" y="504.4017">mintCountry : CoinCountry</text><rect fill="none" height="6" style="stroke:#C82930;stroke-width:1.0;" width="6" x="559" y="514.099"/><text fill="#000000" font-family="sans-serif" font-size="14" lengthAdjust="spacing" textLength="199" x="571" y="520.89">description : CoinDescription</text><rect fill="none" height="6" style="stroke:#C82930;stroke-width:1.0;" width="6" x="559" y="530.5873"/><text fill="#000000" font-family="sans-serif" font-size="14" lengthAdjust="spacing" textLength="73" x="571" y="537.3783">mint : Mint</text><line style="stroke:#181818;stroke-width:0.5;" x1="552" x2="1007" y1="544.3314" y2="544.3314"/><ellipse cx="562" cy="558.0755" fill="#84BE84" rx="3" ry="3" style="stroke:#038048;stroke-width:1.0;"/><text fill="#000000" font-family="sans-serif" font-size="14" lengthAdjust="spacing" textLength="244" x="571" y="561.8666">setYear(year : int) : EuroCoinBuilder</text><ellipse cx="562" cy="574.5638" fill="#84BE84" rx="3" ry="3" style="stroke:#038048;stroke-width:1.0;"/><text fill="#000000" font-family="sans-serif" font-size="14" lengthAdjust="spacing" textLength="310" x="571" y="578.3548">setValue(value : CoinValue) : EuroCoinBuilder</text><ellipse cx="562" cy="591.0521" fill="#84BE84" rx="3" ry="3" style="stroke:#038048;stroke-width:1.0;"/><text fill="#000000" font-family="sans-serif" font-size="14" lengthAdjust="spacing" textLength="424" x="571" y="594.8431">setMintCountry(mintCountry : CoinCountry) : EuroCoinBuilder</text><ellipse cx="562" cy="607.5404" fill="#84BE84" rx="3" ry="3" style="stroke:#038048;stroke-width:1.0;"/><text fill="#000000" font-family="sans-serif" font-size="14" lengthAdjust="spacing" textLength="431" x="571" y="611.3314">setDescription(description : CoinDescription) : EuroCoinBuilder</text><ellipse cx="562" cy="624.0287" fill="#84BE84" rx="3" ry="3" style="stroke:#038048;stroke-width:1.0;"/><text fill="#000000" font-family="sans-serif" font-size="14" lengthAdjust="spacing" textLength="257" x="571" y="627.8197">setMint(mint : Mint) : EuroCoinBuilder</text><ellipse cx="562" cy="640.517" fill="#84BE84" rx="3" ry="3" style="stroke:#038048;stroke-width:1.0;"/><text fill="#000000" font-family="sans-serif" font-size="14" lengthAdjust="spacing" textLength="121" x="571" y="644.308">build() : EuroCoin</text></g><!--class User--><g id="elem_User"><rect codeLine="128" fill="#F1F1F1" height="80.9766" id="User" rx="2.5" ry="2.5" style="stroke:#181818;stroke-width:0.5;" width="117" x="743" y="7"/><ellipse cx="782.3" cy="23" fill="#ADD1B2" rx="11" ry="11" style="stroke:#181818;stroke-width:1.0;"/><path d="M784.7731,29.1431 Q784.1921,29.4419 783.5529,29.5913 Q782.9138,29.7407 782.2082,29.7407 Q779.7014,29.7407 778.3815,28.0889 Q777.0617,26.437 777.0617,23.3159 Q777.0617,20.1865 778.3815,18.5347 Q779.7014,16.8828 782.2082,16.8828 Q782.9138,16.8828 783.5612,17.0322 Q784.2087,17.1816 784.7731,17.4805 L784.7731,20.2031 Q784.1423,19.6221 783.5488,19.3523 Q782.9553,19.0825 782.3244,19.0825 Q780.9797,19.0825 780.2949,20.1492 Q779.6101,21.2158 779.6101,23.3159 Q779.6101,25.4077 780.2949,26.4744 Q780.9797,27.541 782.3244,27.541 Q782.9553,27.541 783.5488,27.2712 Q784.1423,27.0015 784.7731,26.4204 Z " fill="#000000"/><text fill="#000000" font-family="sans-serif" font-size="14" lengthAdjust="spacing" textLength="31" x="801.7" y="28.291">User</text><line style="stroke:#181818;stroke-width:0.5;" x1="744" x2="859" y1="39" y2="39"/><rect fill="none" height="6" style="stroke:#C82930;stroke-width:1.0;" width="6" x="751" y="49.7441"/><text fill="#000000" font-family="sans-serif" font-size="14" lengthAdjust="spacing" textLength="66" x="763" y="56.5352">id : String</text><rect fill="none" height="6" style="stroke:#C82930;stroke-width:1.0;" width="6" x="751" y="66.2324"/><text fill="#000000" font-family="sans-serif" font-size="14" lengthAdjust="spacing" textLength="91" x="763" y="73.0234">name : String</text><line style="stroke:#181818;stroke-width:0.5;" x1="744" x2="859" y1="79.9766" y2="79.9766"/></g><!--link EuroCoin to Coin--><g id="link_EuroCoin_Coin"><path codeLine="89" d="M482.98,785.23 C513.97,785.23 537.22,785.23 574.54,785.23 " fill="none" id="EuroCoin-to-Coin" style="stroke:#181818;stroke-width:1.0;stroke-dasharray:7.0,7.0;"/><polygon fill="none" points="592.54,785.23,574.54,779.23,574.54,791.23,592.54,785.23" style="stroke:#181818;stroke-width:1.0;"/><text fill="#000000" font-family="sans-serif" font-size="13" lengthAdjust="spacing" textLength="74" x="500.75" y="778.7984">implements</text></g><!--link EuroCoin to CoinValue--><g id="link_EuroCoin_CoinValue"><path codeLine="90" d="M386.16,812.83 C361.7,827.95 332.77,848.59 311.5,872.21 C268.26,920.24 243.0422,982.5106 227.1622,1036.8806 " fill="none" id="EuroCoin-to-CoinValue" style="stroke:#181818;stroke-width:1.0;"/><polygon fill="#181818" points="225.48,1042.64,231.8428,1035.1224,226.8818,1037.8405,224.1637,1032.8795,225.48,1042.64" style="stroke:#181818;stroke-width:1.0;"/><rect fill="none" height="6" style="stroke:#C82930;stroke-width:1.0;" width="6" x="314.5" y="878.3653"/><text fill="#000000" font-family="sans-serif" font-size="13" lengthAdjust="spacing" textLength="33" x="324.5" y="885.7784">value</text><text fill="#000000" font-family="sans-serif" font-size="13" lengthAdjust="spacing" textLength="8" x="218.8033" y="1032.1318">1</text></g><!--link EuroCoin to CoinCountry--><g id="link_EuroCoin_CoinCountry"><path codeLine="91" d="M396.97,826.1 C386.41,839.71 376.26,855.69 370.5,872.21 C365.31,887.11 362.452,896.8865 359.552,912.8565 " fill="none" id="EuroCoin-to-CoinCountry" style="stroke:#181818;stroke-width:1.0;"/><polygon fill="#181818" points="358.48,918.76,364.0237,910.6195,359.3733,913.8405,356.1524,909.1901,358.48,918.76" style="stroke:#181818;stroke-width:1.0;"/><rect fill="none" height="6" style="stroke:#C82930;stroke-width:1.0;" width="6" x="373.5" y="878.3653"/><text fill="#000000" font-family="sans-serif" font-size="13" lengthAdjust="spacing" textLength="79" x="383.5" y="885.7784">mintCountry</text><text fill="#000000" font-family="sans-serif" font-size="13" lengthAdjust="spacing" textLength="8" x="350.1918" y="908.3714">1</text></g><!--link EuroCoin to CoinDescription--><g id="link_EuroCoin_CoinDescription"><path codeLine="92" d="M482.89,823.72 C512.16,848.35 548.52,882.69 573.5,919.21 C613.42,977.57 638.5205,1051.1128 651.2505,1094.4928 " fill="none" id="EuroCoin-to-CoinDescription" style="stroke:#181818;stroke-width:1.0;"/><polygon fill="#181818" points="652.94,1100.25,654.2439,1090.4878,651.5321,1095.4523,646.5676,1092.7405,652.94,1100.25" style="stroke:#181818;stroke-width:1.0;"/><rect fill="none" height="6" style="stroke:#C82930;stroke-width:1.0;" width="6" x="550.61" y="878.3653"/><text fill="#000000" font-family="sans-serif" font-size="13" lengthAdjust="spacing" textLength="71" x="560.61" y="885.7784">description</text><text fill="#000000" font-family="sans-serif" font-size="13" lengthAdjust="spacing" textLength="8" x="642.4673" y="1089.9593">1</text></g><!--link EuroCoin to Mint--><g id="link_EuroCoin_Mint"><path codeLine="93" d="M451.79,825.88 C457.5,840.25 463.42,856.75 467.5,872.21 C484.73,937.55 494.4431,1008.3039 500.1031,1061.3239 " fill="none" id="EuroCoin-to-Mint" style="stroke:#181818;stroke-width:1.0;"/><polygon fill="#181818" points="500.74,1067.29,503.7621,1057.9163,500.2093,1062.3182,495.8073,1058.7654,500.74,1067.29" style="stroke:#181818;stroke-width:1.0;"/><rect fill="none" height="6" style="stroke:#C82930;stroke-width:1.0;" width="6" x="473.97" y="878.3653"/><text fill="#000000" font-family="sans-serif" font-size="13" lengthAdjust="spacing" textLength="29" x="483.97" y="885.7784">mint</text><text fill="#000000" font-family="sans-serif" font-size="13" lengthAdjust="spacing" textLength="8" x="491.6725" y="1056.8876">1</text></g><!--link EuroCoinCollection to CoinCollection--><g id="link_EuroCoinCollection_CoinCollection"><path codeLine="100" d="M172.17,536.57 C206.07,536.57 227.92,536.57 264.7,536.57 " fill="none" id="EuroCoinCollection-to-CoinCollection" style="stroke:#181818;stroke-width:1.0;stroke-dasharray:7.0,7.0;"/><polygon fill="none" points="282.7,536.57,264.7,530.57,264.7,542.57,282.7,536.57" style="stroke:#181818;stroke-width:1.0;"/><text fill="#000000" font-family="sans-serif" font-size="13" lengthAdjust="spacing" textLength="74" x="190.5" y="530.1384">implements</text></g><!--link EuroCoinCollection to EuroCoin--><g id="link_EuroCoinCollection_EuroCoin"><path codeLine="101" d="M145.31,577.48 C212.06,625.2 317.8095,700.7999 381.1295,746.0799 " fill="none" id="EuroCoinCollection-to-EuroCoin" style="stroke:#181818;stroke-width:1.0;"/><polygon fill="#181818" points="386.01,749.57,381.0159,741.0812,381.9429,746.6616,376.3625,747.5886,386.01,749.57" style="stroke:#181818;stroke-width:1.0;"/><rect fill="none" height="6" style="stroke:#C82930;stroke-width:1.0;" width="6" x="316.06" y="687.4153"/><text fill="#000000" font-family="sans-serif" font-size="13" lengthAdjust="spacing" textLength="34" x="326.06" y="694.8284">coins</text><text fill="#000000" font-family="sans-serif" font-size="13" lengthAdjust="spacing" textLength="6" x="372.4474" y="740.8223">*</text></g><!--link EuroCoinCollectionGroup to CollectionGroup--><g id="link_EuroCoinCollectionGroup_CollectionGroup"><path codeLine="107" d="M503.81,254.93 C537.31,254.93 557.51,254.93 595.13,254.93 " fill="none" id="EuroCoinCollectionGroup-to-CollectionGroup" style="stroke:#181818;stroke-width:1.0;stroke-dasharray:7.0,7.0;"/><polygon fill="none" points="613.13,254.93,595.13,248.93,595.13,260.93,613.13,254.93" style="stroke:#181818;stroke-width:1.0;"/><text fill="#000000" font-family="sans-serif" font-size="13" lengthAdjust="spacing" textLength="74" x="521.5" y="248.4984">implements</text></g><!--link EuroCoinCollectionGroup to CoinCollection--><g id="link_EuroCoinCollectionGroup_CoinCollection"><path codeLine="108" d="M399.5,295.7 C399.5,334.75 399.5,389.68 399.5,440.35 " fill="none" id="EuroCoinCollectionGroup-to-CoinCollection" style="stroke:#181818;stroke-width:1.0;"/><polygon fill="#181818" points="399.5,446.35,403.5,437.35,399.5,441.35,395.5,437.35,399.5,446.35" style="stroke:#181818;stroke-width:1.0;"/><rect fill="none" height="6" style="stroke:#C82930;stroke-width:1.0;" width="6" x="402.5" y="381.0453"/><text fill="#000000" font-family="sans-serif" font-size="13" lengthAdjust="spacing" textLength="69" x="412.5" y="388.4584">collections</text><text fill="#000000" font-family="sans-serif" font-size="13" lengthAdjust="spacing" textLength="6" x="393.2516" y="435.8385">*</text></g><!--link EuroCoinBuilder to EuroCoin--><g id="link_EuroCoinBuilder_EuroCoin"><path codeLine="125" d="M619.88,651.7 C570.13,687.26 523.831,720.3706 487.881,746.0706 " fill="none" id="EuroCoinBuilder-to-EuroCoin" style="stroke:#181818;stroke-width:1.0;stroke-dasharray:7.0,7.0;"/><polygon fill="#181818" points="483,749.56,492.6478,747.58,487.0675,746.6522,487.9953,741.072,483,749.56" style="stroke:#181818;stroke-width:1.0;"/><text fill="#000000" font-family="sans-serif" font-size="13" lengthAdjust="spacing" textLength="39" x="577.1" y="694.8284">builds</text></g><!--link User to CollectionGroup--><g id="link_User_CollectionGroup"><path codeLine="133" d="M801.5,88.1 C801.5,109.91 801.5,131.9 801.5,158.66 " fill="none" id="User-to-CollectionGroup" style="stroke:#181818;stroke-width:1.0;"/><polygon fill="#181818" points="801.5,164.66,805.5,155.66,801.5,159.66,797.5,155.66,801.5,164.66" style="stroke:#181818;stroke-width:1.0;"/><rect fill="none" height="6" style="stroke:#C82930;stroke-width:1.0;" width="6" x="804.5" y="124.1353"/><text fill="#000000" font-family="sans-serif" font-size="13" lengthAdjust="spacing" textLength="97" x="814.5" y="131.5484">rootCollections</text><text fill="#000000" font-family="sans-serif" font-size="13" lengthAdjust="spacing" textLength="8" x="792.8375" y="108.6626">1</text><text fill="#000000" font-family="sans-serif" font-size="13" lengthAdjust="spacing" textLength="22" x="778.5891" y="154.1444">0..*</text></g><!--SRC=[fLLRRvim67tdLw2-DDrAjBrMKoI7E8aLC9KnwV9KqS0g908La6ZLjly-Ny6GszJreV9tzVcEpqTkROWZFxJIOh-ptJ8hrd6-J-rVbit-0WoVNOZflR3eKo2iK9fpj8QcJI7kcK_ilEaNpFiEtXv69EZQSokq_bWT7BVS5qtrhW21AAG4WNjRM5FeBL3aAylTF98eLCO24X_WZR9WI0FSbeMF065rdYFi0JpJ5W7OXHBEWa38pZA023JI40MURkqXken0rzoBlaD_6aHaeHs0hjke3pmAP7yCwH8ItbLZVWm8ZHR0qp2zO0qDrCm4gyu4-Da71E50ETQ08fSvNKGtyWO_mC3LONPFG0XekVMpeb6aJXcCbX0_miXTwajeHEa24Ahi5I1UIAAbfcK9_2cRb3UzjMSmT0bwf2Z0rZQFwrgytoojjrNsrcHbeQvpx2RzsTWFTjXKMV4gYn6caCo12qEB0Kkh7_4sLU-Vv-cMbylgp_Phsg1aTDSrQDqutgKd0xnHBI9ULZVVk3bHqJX9k3dQidyipiyyxr1cYSgeqbrvIAyaiKjesSIvs1vn4nkZ3q0eUH3AQhVSlULf8sjUoZ9Fuu9JOhAW6LXKvVxD_YyUTAi16rsWnujsii7rKOtVnSwmzO5IpU4GPOz9bP6TZVLVOC1aLlm3VMVUS9F6rR7NqBVPJ8ZQ3P1U1RYlIkDwnywI_isE_SxwTwZRWl7lYGJEGbmgkxHewYxiE1FxvkkDyUb-i9q3FvpEqTzJbhLZLodpTAwvkom_wSpZVF4zKKtbx9u7NVun2EtHAi0h0kdTW8pkeI_GKZ0ncxoUADOKkQRKJf1bn0NiJpVTkp3eVBjhwon6S_i-1bHsa6ZxlYjmPPB6V3Igq-rOpRcVHiYRGJAOPBhFyYIjsWaClKd7GScdbPBo6pffLrYgHiQJdam6mZ5wiA0lr26NfrOhrU7W-pD0s-NAhJp2UB76xv2FpavniOEvtXVdl8fZP51mFlc5MoCpRYX9l-1uF365Ash4mqTX- -fHRJprTR5Q8fylib3Pb_5O26seKgSgI_DNnFeB]--></g></svg>