<?xml version="1.0" encoding="us-ascii" standalone="no"?><svg xmlns="http://www.w3.org/2000/svg" xmlns:xlink="http://www.w3.org/1999/xlink" contentStyleType="text/css" height="318px" preserveAspectRatio="none" style="width:1107px;height:318px;background:#FFFFFF;" version="1.1" viewBox="0 0 1107 318" width="1107px" zoomAndPan="magnify"><defs/><g><!--class EuroCoinStorageRepository--><g id="elem_EuroCoinStorageRepository"><rect codeLine="2" fill="#F1F1F1" height="146.9297" id="EuroCoinStorageRepository" rx="2.5" ry="2.5" style="stroke:#181818;stroke-width:0.5;" width="241" x="7" y="7"/><ellipse cx="30.55" cy="23" fill="#B4A7E5" rx="11" ry="11" style="stroke:#181818;stroke-width:1.0;"/><path d="M26.9777,19.2651 L26.9777,17.1069 L34.3571,17.1069 L34.3571,19.2651 L31.8918,19.2651 L31.8918,27.3418 L34.3571,27.3418 L34.3571,29.5 L26.9777,29.5 L26.9777,27.3418 L29.4431,27.3418 L29.4431,19.2651 Z " fill="#000000"/><text fill="#000000" font-family="sans-serif" font-size="14" font-style="italic" lengthAdjust="spacing" textLength="190" x="46.45" y="28.291">EuroCoinStorageRepository</text><line style="stroke:#181818;stroke-width:0.5;" x1="8" x2="247" y1="39" y2="39"/><line style="stroke:#181818;stroke-width:0.5;" x1="8" x2="247" y1="47" y2="47"/><ellipse cx="18" cy="60.7441" fill="#84BE84" rx="3" ry="3" style="stroke:#038048;stroke-width:1.0;"/><text fill="#000000" font-family="sans-serif" font-size="14" lengthAdjust="spacing" textLength="209" x="27" y="64.5352">boolean create(EuroCoin coin)</text><ellipse cx="18" cy="77.2324" fill="#84BE84" rx="3" ry="3" style="stroke:#038048;stroke-width:1.0;"/><text fill="#000000" font-family="sans-serif" font-size="14" lengthAdjust="spacing" textLength="167" x="27" y="81.0234">EuroCoin read(String id)</text><ellipse cx="18" cy="93.7207" fill="#84BE84" rx="3" ry="3" style="stroke:#038048;stroke-width:1.0;"/><text fill="#000000" font-family="sans-serif" font-size="14" lengthAdjust="spacing" textLength="215" x="27" y="97.5117">boolean update(EuroCoin coin)</text><ellipse cx="18" cy="110.209" fill="#84BE84" rx="3" ry="3" style="stroke:#038048;stroke-width:1.0;"/><text fill="#000000" font-family="sans-serif" font-size="14" lengthAdjust="spacing" textLength="170" x="27" y="114">boolean delete(String id)</text><ellipse cx="18" cy="126.6973" fill="#84BE84" rx="3" ry="3" style="stroke:#038048;stroke-width:1.0;"/><text fill="#000000" font-family="sans-serif" font-size="14" lengthAdjust="spacing" textLength="163" x="27" y="130.4883">List&lt;EuroCoin&gt; getAll()</text><ellipse cx="18" cy="143.1855" fill="#84BE84" rx="3" ry="3" style="stroke:#038048;stroke-width:1.0;"/><text fill="#000000" font-family="sans-serif" font-size="14" lengthAdjust="spacing" textLength="168" x="27" y="146.9766">boolean exists(String id)</text></g><!--class EuroCoinCollectionStorageRepository--><g id="elem_EuroCoinCollectionStorageRepository"><rect codeLine="11" fill="#F1F1F1" height="146.9297" id="EuroCoinCollectionStorageRepository" rx="2.5" ry="2.5" style="stroke:#181818;stroke-width:0.5;" width="347" x="283" y="7"/><ellipse cx="323.2" cy="23" fill="#B4A7E5" rx="11" ry="11" style="stroke:#181818;stroke-width:1.0;"/><path d="M319.6277,19.2651 L319.6277,17.1069 L327.0071,17.1069 L327.0071,19.2651 L324.5418,19.2651 L324.5418,27.3418 L327.0071,27.3418 L327.0071,29.5 L319.6277,29.5 L319.6277,27.3418 L322.0931,27.3418 L322.0931,19.2651 Z " fill="#000000"/><text fill="#000000" font-family="sans-serif" font-size="14" font-style="italic" lengthAdjust="spacing" textLength="259" x="342.8" y="28.291">EuroCoinCollectionStorageRepository</text><line style="stroke:#181818;stroke-width:0.5;" x1="284" x2="629" y1="39" y2="39"/><line style="stroke:#181818;stroke-width:0.5;" x1="284" x2="629" y1="47" y2="47"/><ellipse cx="294" cy="60.7441" fill="#84BE84" rx="3" ry="3" style="stroke:#038048;stroke-width:1.0;"/><text fill="#000000" font-family="sans-serif" font-size="14" lengthAdjust="spacing" textLength="315" x="303" y="64.5352">boolean create(EuroCoinCollection collection)</text><ellipse cx="294" cy="77.2324" fill="#84BE84" rx="3" ry="3" style="stroke:#038048;stroke-width:1.0;"/><text fill="#000000" font-family="sans-serif" font-size="14" lengthAdjust="spacing" textLength="236" x="303" y="81.0234">EuroCoinCollection read(String id)</text><ellipse cx="294" cy="93.7207" fill="#84BE84" rx="3" ry="3" style="stroke:#038048;stroke-width:1.0;"/><text fill="#000000" font-family="sans-serif" font-size="14" lengthAdjust="spacing" textLength="321" x="303" y="97.5117">boolean update(EuroCoinCollection collection)</text><ellipse cx="294" cy="110.209" fill="#84BE84" rx="3" ry="3" style="stroke:#038048;stroke-width:1.0;"/><text fill="#000000" font-family="sans-serif" font-size="14" lengthAdjust="spacing" textLength="170" x="303" y="114">boolean delete(String id)</text><ellipse cx="294" cy="126.6973" fill="#84BE84" rx="3" ry="3" style="stroke:#038048;stroke-width:1.0;"/><text fill="#000000" font-family="sans-serif" font-size="14" lengthAdjust="spacing" textLength="232" x="303" y="130.4883">List&lt;EuroCoinCollection&gt; getAll()</text><ellipse cx="294" cy="143.1855" fill="#84BE84" rx="3" ry="3" style="stroke:#038048;stroke-width:1.0;"/><text fill="#000000" font-family="sans-serif" font-size="14" lengthAdjust="spacing" textLength="168" x="303" y="146.9766">boolean exists(String id)</text></g><!--class EuroCoinCollectionGroupStorageRepository--><g id="elem_EuroCoinCollectionGroupStorageRepository"><rect codeLine="20" fill="#F1F1F1" height="146.9297" id="EuroCoinCollectionGroupStorageRepository" rx="2.5" ry="2.5" style="stroke:#181818;stroke-width:0.5;" width="435" x="665" y="7"/><ellipse cx="727.25" cy="23" fill="#B4A7E5" rx="11" ry="11" style="stroke:#181818;stroke-width:1.0;"/><path d="M723.6777,19.2651 L723.6777,17.1069 L731.0571,17.1069 L731.0571,19.2651 L728.5918,19.2651 L728.5918,27.3418 L731.0571,27.3418 L731.0571,29.5 L723.6777,29.5 L723.6777,27.3418 L726.1431,27.3418 L726.1431,19.2651 Z " fill="#000000"/><text fill="#000000" font-family="sans-serif" font-size="14" font-style="italic" lengthAdjust="spacing" textLength="302" x="747.75" y="28.291">EuroCoinCollectionGroupStorageRepository</text><line style="stroke:#181818;stroke-width:0.5;" x1="666" x2="1099" y1="39" y2="39"/><line style="stroke:#181818;stroke-width:0.5;" x1="666" x2="1099" y1="47" y2="47"/><ellipse cx="676" cy="60.7441" fill="#84BE84" rx="3" ry="3" style="stroke:#038048;stroke-width:1.0;"/><text fill="#000000" font-family="sans-serif" font-size="14" lengthAdjust="spacing" textLength="334" x="685" y="64.5352">boolean create(EuroCoinCollectionGroup group)</text><ellipse cx="676" cy="77.2324" fill="#84BE84" rx="3" ry="3" style="stroke:#038048;stroke-width:1.0;"/><text fill="#000000" font-family="sans-serif" font-size="14" lengthAdjust="spacing" textLength="279" x="685" y="81.0234">EuroCoinCollectionGroup read(String id)</text><ellipse cx="676" cy="93.7207" fill="#84BE84" rx="3" ry="3" style="stroke:#038048;stroke-width:1.0;"/><text fill="#000000" font-family="sans-serif" font-size="14" lengthAdjust="spacing" textLength="340" x="685" y="97.5117">boolean update(EuroCoinCollectionGroup group)</text><ellipse cx="676" cy="110.209" fill="#84BE84" rx="3" ry="3" style="stroke:#038048;stroke-width:1.0;"/><text fill="#000000" font-family="sans-serif" font-size="14" lengthAdjust="spacing" textLength="170" x="685" y="114">boolean delete(String id)</text><ellipse cx="676" cy="126.6973" fill="#84BE84" rx="3" ry="3" style="stroke:#038048;stroke-width:1.0;"/><text fill="#000000" font-family="sans-serif" font-size="14" lengthAdjust="spacing" textLength="409" x="685" y="130.4883">List&lt;EuroCoinCollectionGroup&gt; getAllByUser(String userId)</text><ellipse cx="676" cy="143.1855" fill="#84BE84" rx="3" ry="3" style="stroke:#038048;stroke-width:1.0;"/><text fill="#000000" font-family="sans-serif" font-size="14" lengthAdjust="spacing" textLength="168" x="685" y="146.9766">boolean exists(String id)</text></g><!--class EuroCoinSqliteRepository--><g id="elem_EuroCoinSqliteRepository"><rect codeLine="30" fill="#F1F1F1" height="97.4648" id="EuroCoinSqliteRepository" rx="2.5" ry="2.5" style="stroke:#181818;stroke-width:0.5;" width="207" x="24" y="213.93"/><ellipse cx="39" cy="229.93" fill="#ADD1B2" rx="11" ry="11" style="stroke:#181818;stroke-width:1.0;"/><path d="M41.4731,236.0731 Q40.8921,236.3719 40.2529,236.5213 Q39.6138,236.6707 38.9082,236.6707 Q36.4014,236.6707 35.0815,235.0189 Q33.7617,233.367 33.7617,230.2459 Q33.7617,227.1165 35.0815,225.4647 Q36.4014,223.8128 38.9082,223.8128 Q39.6138,223.8128 40.2612,223.9622 Q40.9087,224.1116 41.4731,224.4105 L41.4731,227.1331 Q40.8423,226.5521 40.2488,226.2823 Q39.6553,226.0125 39.0244,226.0125 Q37.6797,226.0125 36.9949,227.0792 Q36.3101,228.1458 36.3101,230.2459 Q36.3101,232.3377 36.9949,233.4044 Q37.6797,234.471 39.0244,234.471 Q39.6553,234.471 40.2488,234.2012 Q40.8423,233.9315 41.4731,233.3504 Z " fill="#000000"/><text fill="#000000" font-family="sans-serif" font-size="14" lengthAdjust="spacing" textLength="175" x="53" y="235.221">EuroCoinSqliteRepository</text><line style="stroke:#181818;stroke-width:0.5;" x1="25" x2="230" y1="245.93" y2="245.93"/><rect fill="none" height="6" style="stroke:#C82930;stroke-width:1.0;" width="6" x="32" y="256.6741"/><text fill="#000000" font-family="sans-serif" font-size="14" lengthAdjust="spacing" textLength="167" x="44" y="263.4652">connection : Connection</text><rect fill="none" height="6" style="stroke:#C82930;stroke-width:1.0;" width="6" x="32" y="273.1624"/><text fill="#000000" font-family="sans-serif" font-size="14" lengthAdjust="spacing" textLength="179" x="44" y="279.9534">static final logger : Logger</text><rect fill="none" height="6" style="stroke:#C82930;stroke-width:1.0;" width="6" x="32" y="289.6507"/><text fill="#000000" font-family="sans-serif" font-size="14" lengthAdjust="spacing" textLength="126" x="44" y="296.4417">tableName : String</text><line style="stroke:#181818;stroke-width:0.5;" x1="25" x2="230" y1="303.3948" y2="303.3948"/></g><!--class EuroCoinCollectionSqliteRepository--><g id="elem_EuroCoinCollectionSqliteRepository"><rect codeLine="36" fill="#F1F1F1" height="97.4648" id="EuroCoinCollectionSqliteRepository" rx="2.5" ry="2.5" style="stroke:#181818;stroke-width:0.5;" width="276" x="318.5" y="213.93"/><ellipse cx="333.5" cy="229.93" fill="#ADD1B2" rx="11" ry="11" style="stroke:#181818;stroke-width:1.0;"/><path d="M335.9731,236.0731 Q335.3921,236.3719 334.7529,236.5213 Q334.1138,236.6707 333.4082,236.6707 Q330.9014,236.6707 329.5815,235.0189 Q328.2617,233.367 328.2617,230.2459 Q328.2617,227.1165 329.5815,225.4647 Q330.9014,223.8128 333.4082,223.8128 Q334.1138,223.8128 334.7612,223.9622 Q335.4087,224.1116 335.9731,224.4105 L335.9731,227.1331 Q335.3423,226.5521 334.7488,226.2823 Q334.1553,226.0125 333.5244,226.0125 Q332.1797,226.0125 331.4949,227.0792 Q330.8101,228.1458 330.8101,230.2459 Q330.8101,232.3377 331.4949,233.4044 Q332.1797,234.471 333.5244,234.471 Q334.1553,234.471 334.7488,234.2012 Q335.3423,233.9315 335.9731,233.3504 Z " fill="#000000"/><text fill="#000000" font-family="sans-serif" font-size="14" lengthAdjust="spacing" textLength="244" x="347.5" y="235.221">EuroCoinCollectionSqliteRepository</text><line style="stroke:#181818;stroke-width:0.5;" x1="319.5" x2="593.5" y1="245.93" y2="245.93"/><rect fill="none" height="6" style="stroke:#C82930;stroke-width:1.0;" width="6" x="326.5" y="256.6741"/><text fill="#000000" font-family="sans-serif" font-size="14" lengthAdjust="spacing" textLength="167" x="338.5" y="263.4652">connection : Connection</text><rect fill="none" height="6" style="stroke:#C82930;stroke-width:1.0;" width="6" x="326.5" y="273.1624"/><text fill="#000000" font-family="sans-serif" font-size="14" lengthAdjust="spacing" textLength="179" x="338.5" y="279.9534">static final logger : Logger</text><rect fill="none" height="6" style="stroke:#C82930;stroke-width:1.0;" width="6" x="326.5" y="289.6507"/><text fill="#000000" font-family="sans-serif" font-size="14" lengthAdjust="spacing" textLength="126" x="338.5" y="296.4417">tableName : String</text><line style="stroke:#181818;stroke-width:0.5;" x1="319.5" x2="593.5" y1="303.3948" y2="303.3948"/></g><!--class EuroCoinCollectionGroupSqliteRepository--><g id="elem_EuroCoinCollectionGroupSqliteRepository"><rect codeLine="42" fill="#F1F1F1" height="97.4648" id="EuroCoinCollectionGroupSqliteRepository" rx="2.5" ry="2.5" style="stroke:#181818;stroke-width:0.5;" width="319" x="723" y="213.93"/><ellipse cx="738" cy="229.93" fill="#ADD1B2" rx="11" ry="11" style="stroke:#181818;stroke-width:1.0;"/><path d="M740.4731,236.0731 Q739.8921,236.3719 739.2529,236.5213 Q738.6138,236.6707 737.9082,236.6707 Q735.4014,236.6707 734.0815,235.0189 Q732.7617,233.367 732.7617,230.2459 Q732.7617,227.1165 734.0815,225.4647 Q735.4014,223.8128 737.9082,223.8128 Q738.6138,223.8128 739.2612,223.9622 Q739.9087,224.1116 740.4731,224.4105 L740.4731,227.1331 Q739.8423,226.5521 739.2488,226.2823 Q738.6553,226.0125 738.0244,226.0125 Q736.6797,226.0125 735.9949,227.0792 Q735.3101,228.1458 735.3101,230.2459 Q735.3101,232.3377 735.9949,233.4044 Q736.6797,234.471 738.0244,234.471 Q738.6553,234.471 739.2488,234.2012 Q739.8423,233.9315 740.4731,233.3504 Z " fill="#000000"/><text fill="#000000" font-family="sans-serif" font-size="14" lengthAdjust="spacing" textLength="287" x="752" y="235.221">EuroCoinCollectionGroupSqliteRepository</text><line style="stroke:#181818;stroke-width:0.5;" x1="724" x2="1041" y1="245.93" y2="245.93"/><rect fill="none" height="6" style="stroke:#C82930;stroke-width:1.0;" width="6" x="731" y="256.6741"/><text fill="#000000" font-family="sans-serif" font-size="14" lengthAdjust="spacing" textLength="167" x="743" y="263.4652">connection : Connection</text><rect fill="none" height="6" style="stroke:#C82930;stroke-width:1.0;" width="6" x="731" y="273.1624"/><text fill="#000000" font-family="sans-serif" font-size="14" lengthAdjust="spacing" textLength="179" x="743" y="279.9534">static final logger : Logger</text><rect fill="none" height="6" style="stroke:#C82930;stroke-width:1.0;" width="6" x="731" y="289.6507"/><text fill="#000000" font-family="sans-serif" font-size="14" lengthAdjust="spacing" textLength="126" x="743" y="296.4417">tableName : String</text><line style="stroke:#181818;stroke-width:0.5;" x1="724" x2="1041" y1="303.3948" y2="303.3948"/></g><!--reverse link EuroCoinStorageRepository to EuroCoinSqliteRepository--><g id="link_EuroCoinStorageRepository_EuroCoinSqliteRepository"><path codeLine="48" d="M127.5,172.23 C127.5,192.16 127.5,195.26 127.5,213.44 " fill="none" id="EuroCoinStorageRepository-backto-EuroCoinSqliteRepository" style="stroke:#181818;stroke-width:1.0;stroke-dasharray:7.0,7.0;"/><polygon fill="none" points="127.5,154.23,121.5,172.23,133.5,172.23,127.5,154.23" style="stroke:#181818;stroke-width:1.0;"/></g><!--reverse link EuroCoinCollectionStorageRepository to EuroCoinCollectionSqliteRepository--><g id="link_EuroCoinCollectionStorageRepository_EuroCoinCollectionSqliteRepository"><path codeLine="49" d="M456.5,172.23 C456.5,192.16 456.5,195.26 456.5,213.44 " fill="none" id="EuroCoinCollectionStorageRepository-backto-EuroCoinCollectionSqliteRepository" style="stroke:#181818;stroke-width:1.0;stroke-dasharray:7.0,7.0;"/><polygon fill="none" points="456.5,154.23,450.5,172.23,462.5,172.23,456.5,154.23" style="stroke:#181818;stroke-width:1.0;"/></g><!--reverse link EuroCoinCollectionGroupStorageRepository to EuroCoinCollectionGroupSqliteRepository--><g id="link_EuroCoinCollectionGroupStorageRepository_EuroCoinCollectionGroupSqliteRepository"><path codeLine="50" d="M882.5,172.23 C882.5,192.16 882.5,195.26 882.5,213.44 " fill="none" id="EuroCoinCollectionGroupStorageRepository-backto-EuroCoinCollectionGroupSqliteRepository" style="stroke:#181818;stroke-width:1.0;stroke-dasharray:7.0,7.0;"/><polygon fill="none" points="882.5,154.23,876.5,172.23,888.5,172.23,882.5,154.23" style="stroke:#181818;stroke-width:1.0;"/></g><!--SRC=[pLJHIiCm57tFLzp73N4V84FG8Y8C7nn-G9RUXK1CQfA2G_rtxzfcxTf5sYbY7y9DSywvD-ScKIQWstA1S5Swcrbbri4wBl492-iLnJjuPq3V1MoirSWD28Syu2mIGD0mRp27duJ9P-lWb96WydbFeYpof4J4vAYHC0EDbV9X6PdN837SQ3thi_6DOBxB_cHC3NQRMQrH16MdxxkbKlanxFlG0Krov5lnIGwrIh_drRspPV43moe-oFsODgm6dUdQYGndkbOfHUjkTyyUNUIM53_aeznaGdFlsqlsgbKOMdT9pJQcwViLP8T9i-e33qh0LXckGLifqH5iLGKD9F2DnaV-WhHGbx1FVvozS-Z_IHtrWVhZOj8ltl9ZiKZsYervEuuKqdwpqNSh8NZIEFO5]--></g></svg>