<?xml version="1.0" encoding="us-ascii" standalone="no"?><svg xmlns="http://www.w3.org/2000/svg" xmlns:xlink="http://www.w3.org/1999/xlink" contentStyleType="text/css" height="543px" preserveAspectRatio="none" style="width:849px;height:543px;background:#FFFFFF;" version="1.1" viewBox="0 0 849 543" width="849px" zoomAndPan="magnify"><defs/><g><!--cluster configuration--><g id="cluster_configuration"><path d="M8.5,6 L106.5,6 A3.75,3.75 0 0 1 109,8.5 L116,28.4883 L839.5,28.4883 A2.5,2.5 0 0 1 842,30.9883 L842,534.36 A2.5,2.5 0 0 1 839.5,536.86 L8.5,536.86 A2.5,2.5 0 0 1 6,534.36 L6,8.5 A2.5,2.5 0 0 1 8.5,6 " fill="none" style="stroke:#000000;stroke-width:1.5;"/><line style="stroke:#000000;stroke-width:1.5;" x1="6" x2="116" y1="28.4883" y2="28.4883"/><text fill="#000000" font-family="sans-serif" font-size="14" font-weight="bold" lengthAdjust="spacing" textLength="97" x="10" y="21.5352">configuration</text></g><!--class StorageInitializer--><g id="elem_StorageInitializer"><rect codeLine="3" fill="#F1F1F1" height="64.4883" id="StorageInitializer" rx="2.5" ry="2.5" style="stroke:#181818;stroke-width:0.5;" width="149" x="21.5" y="231.95"/><ellipse cx="36.5" cy="247.95" fill="#B4A7E5" rx="11" ry="11" style="stroke:#181818;stroke-width:1.0;"/><path d="M32.9277,244.2151 L32.9277,242.0569 L40.3071,242.0569 L40.3071,244.2151 L37.8418,244.2151 L37.8418,252.2918 L40.3071,252.2918 L40.3071,254.45 L32.9277,254.45 L32.9277,252.2918 L35.3931,252.2918 L35.3931,244.2151 Z " fill="#000000"/><text fill="#000000" font-family="sans-serif" font-size="14" font-style="italic" lengthAdjust="spacing" textLength="117" x="50.5" y="253.241">StorageInitializer</text><line style="stroke:#181818;stroke-width:0.5;" x1="22.5" x2="169.5" y1="263.95" y2="263.95"/><line style="stroke:#181818;stroke-width:0.5;" x1="22.5" x2="169.5" y1="271.95" y2="271.95"/><ellipse cx="32.5" cy="285.6941" fill="#84BE84" rx="3" ry="3" style="stroke:#038048;stroke-width:1.0;"/><text fill="#000000" font-family="sans-serif" font-size="14" lengthAdjust="spacing" textLength="73" x="41.5" y="289.4852">init() : void</text></g><!--class SqliteInitializer--><g id="elem_SqliteInitializer"><rect codeLine="7" fill="#F1F1F1" height="113.9531" id="SqliteInitializer" rx="2.5" ry="2.5" style="stroke:#181818;stroke-width:0.5;" width="204" x="22" y="406.91"/><ellipse cx="68.75" cy="422.91" fill="#ADD1B2" rx="11" ry="11" style="stroke:#181818;stroke-width:1.0;"/><path d="M71.2231,429.0531 Q70.6421,429.3519 70.0029,429.5013 Q69.3638,429.6507 68.6582,429.6507 Q66.1514,429.6507 64.8315,427.9989 Q63.5117,426.347 63.5117,423.2259 Q63.5117,420.0965 64.8315,418.4447 Q66.1514,416.7928 68.6582,416.7928 Q69.3638,416.7928 70.0112,416.9422 Q70.6587,417.0916 71.2231,417.3905 L71.2231,420.1131 Q70.5923,419.5321 69.9988,419.2623 Q69.4053,418.9925 68.7744,418.9925 Q67.4297,418.9925 66.7449,420.0592 Q66.0601,421.1258 66.0601,423.2259 Q66.0601,425.3177 66.7449,426.3844 Q67.4297,427.451 68.7744,427.451 Q69.4053,427.451 69.9988,427.1812 Q70.5923,426.9115 71.2231,426.3304 Z " fill="#000000"/><text fill="#000000" font-family="sans-serif" font-size="14" lengthAdjust="spacing" textLength="102" x="89.25" y="428.201">SqliteInitializer</text><line style="stroke:#181818;stroke-width:0.5;" x1="23" x2="225" y1="438.91" y2="438.91"/><rect fill="none" height="6" style="stroke:#C82930;stroke-width:1.0;" width="6" x="30" y="449.6541"/><text fill="#000000" font-family="sans-serif" font-size="14" lengthAdjust="spacing" textLength="167" x="42" y="456.4452">connection : Connection</text><rect fill="none" height="6" style="stroke:#C82930;stroke-width:1.0;" width="6" x="30" y="466.1424"/><text fill="#000000" font-family="sans-serif" font-size="14" lengthAdjust="spacing" textLength="105" x="42" y="472.9334">logger : Logger</text><rect fill="none" height="6" style="stroke:#C82930;stroke-width:1.0;" width="6" x="30" y="482.6307"/><text fill="#000000" font-family="sans-serif" font-size="14" lengthAdjust="spacing" textLength="178" x="42" y="489.4217">tableNames : List&lt;String&gt;</text><line style="stroke:#181818;stroke-width:0.5;" x1="23" x2="225" y1="496.3748" y2="496.3748"/><ellipse cx="33" cy="510.119" fill="#84BE84" rx="3" ry="3" style="stroke:#038048;stroke-width:1.0;"/><text fill="#000000" font-family="sans-serif" font-size="14" lengthAdjust="spacing" textLength="73" x="42" y="513.91">init() : void</text></g><!--class DataSourceAutoActivateForeignKeys--><g id="elem_DataSourceAutoActivateForeignKeys"><rect codeLine="16" fill="#F1F1F1" height="64.4883" id="DataSourceAutoActivateForeignKeys" rx="2.5" ry="2.5" style="stroke:#181818;stroke-width:0.5;" width="281" x="205.5" y="231.95"/><ellipse cx="220.5" cy="247.95" fill="#ADD1B2" rx="11" ry="11" style="stroke:#181818;stroke-width:1.0;"/><path d="M222.9731,254.0931 Q222.3921,254.3919 221.7529,254.5413 Q221.1138,254.6907 220.4082,254.6907 Q217.9014,254.6907 216.5815,253.0389 Q215.2617,251.387 215.2617,248.2659 Q215.2617,245.1365 216.5815,243.4847 Q217.9014,241.8328 220.4082,241.8328 Q221.1138,241.8328 221.7612,241.9822 Q222.4087,242.1316 222.9731,242.4305 L222.9731,245.1531 Q222.3423,244.5721 221.7488,244.3023 Q221.1553,244.0325 220.5244,244.0325 Q219.1797,244.0325 218.4949,245.0992 Q217.8101,246.1658 217.8101,248.2659 Q217.8101,250.3577 218.4949,251.4244 Q219.1797,252.491 220.5244,252.491 Q221.1553,252.491 221.7488,252.2212 Q222.3423,251.9515 222.9731,251.3704 Z " fill="#000000"/><text fill="#000000" font-family="sans-serif" font-size="14" lengthAdjust="spacing" textLength="249" x="234.5" y="253.241">DataSourceAutoActivateForeignKeys</text><line style="stroke:#181818;stroke-width:0.5;" x1="206.5" x2="485.5" y1="263.95" y2="263.95"/><line style="stroke:#181818;stroke-width:0.5;" x1="206.5" x2="485.5" y1="271.95" y2="271.95"/><ellipse cx="216.5" cy="285.6941" fill="#84BE84" rx="3" ry="3" style="stroke:#038048;stroke-width:1.0;"/><text fill="#000000" font-family="sans-serif" font-size="14" lengthAdjust="spacing" textLength="182" x="225.5" y="289.4852">activate(Connection) : void</text></g><!--class InitService--><g id="elem_InitService"><rect codeLine="20" fill="#F1F1F1" height="64.4883" id="InitService" rx="2.5" ry="2.5" style="stroke:#181818;stroke-width:0.5;" width="239" x="50.5" y="41"/><ellipse cx="130.75" cy="57" fill="#ADD1B2" rx="11" ry="11" style="stroke:#181818;stroke-width:1.0;"/><path d="M133.2231,63.1431 Q132.6421,63.4419 132.0029,63.5913 Q131.3638,63.7407 130.6582,63.7407 Q128.1514,63.7407 126.8315,62.0889 Q125.5117,60.437 125.5117,57.3159 Q125.5117,54.1865 126.8315,52.5347 Q128.1514,50.8828 130.6582,50.8828 Q131.3638,50.8828 132.0112,51.0322 Q132.6587,51.1816 133.2231,51.4805 L133.2231,54.2031 Q132.5923,53.6221 131.9988,53.3523 Q131.4053,53.0825 130.7744,53.0825 Q129.4297,53.0825 128.7449,54.1492 Q128.0601,55.2158 128.0601,57.3159 Q128.0601,59.4077 128.7449,60.4744 Q129.4297,61.541 130.7744,61.541 Q131.4053,61.541 131.9988,61.2712 Q132.5923,61.0015 133.2231,60.4204 Z " fill="#000000"/><text fill="#000000" font-family="sans-serif" font-size="14" lengthAdjust="spacing" textLength="70" x="151.25" y="62.291">InitService</text><line style="stroke:#181818;stroke-width:0.5;" x1="51.5" x2="288.5" y1="73" y2="73"/><line style="stroke:#181818;stroke-width:0.5;" x1="51.5" x2="288.5" y1="81" y2="81"/><ellipse cx="61.5" cy="94.7441" fill="#84BE84" rx="3" ry="3" style="stroke:#038048;stroke-width:1.0;"/><text fill="#000000" font-family="sans-serif" font-size="14" lengthAdjust="spacing" textLength="213" x="70.5" y="98.5352">initialize() : ApplicationContext</text></g><!--class ApplicationContext--><g id="elem_ApplicationContext"><rect codeLine="24" fill="#F1F1F1" height="163.418" id="ApplicationContext" rx="2.5" ry="2.5" style="stroke:#181818;stroke-width:0.5;" width="305" x="521.5" y="182.49"/><ellipse cx="603.25" cy="198.49" fill="#ADD1B2" rx="11" ry="11" style="stroke:#181818;stroke-width:1.0;"/><path d="M605.7231,204.6331 Q605.1421,204.9319 604.5029,205.0813 Q603.8638,205.2307 603.1582,205.2307 Q600.6514,205.2307 599.3315,203.5789 Q598.0117,201.927 598.0117,198.8059 Q598.0117,195.6765 599.3315,194.0247 Q600.6514,192.3728 603.1582,192.3728 Q603.8638,192.3728 604.5112,192.5222 Q605.1587,192.6716 605.7231,192.9705 L605.7231,195.6931 Q605.0923,195.1121 604.4988,194.8423 Q603.9053,194.5725 603.2744,194.5725 Q601.9297,194.5725 601.2449,195.6392 Q600.5601,196.7058 600.5601,198.8059 Q600.5601,200.8977 601.2449,201.9644 Q601.9297,203.031 603.2744,203.031 Q603.9053,203.031 604.4988,202.7612 Q605.0923,202.4915 605.7231,201.9104 Z " fill="#000000"/><text fill="#000000" font-family="sans-serif" font-size="14" lengthAdjust="spacing" textLength="133" x="623.75" y="203.781">ApplicationContext</text><line style="stroke:#181818;stroke-width:0.5;" x1="522.5" x2="825.5" y1="214.49" y2="214.49"/><ellipse cx="532.5" cy="228.2341" fill="none" rx="3" ry="3" style="stroke:#038048;stroke-width:1.0;"/><text fill="#000000" font-family="sans-serif" font-size="14" lengthAdjust="spacing" textLength="231" x="541.5" y="232.0252">SessionManager sessionManager,</text><ellipse cx="532.5" cy="244.7224" fill="none" rx="3" ry="3" style="stroke:#038048;stroke-width:1.0;"/><text fill="#000000" font-family="sans-serif" font-size="14" lengthAdjust="spacing" textLength="189" x="541.5" y="248.5134">LoginHandler loginHandler,</text><ellipse cx="532.5" cy="261.2107" fill="none" rx="3" ry="3" style="stroke:#038048;stroke-width:1.0;"/><text fill="#000000" font-family="sans-serif" font-size="14" lengthAdjust="spacing" textLength="209" x="541.5" y="265.0017">LogoutHandler logoutHandler,</text><ellipse cx="532.5" cy="277.699" fill="none" rx="3" ry="3" style="stroke:#038048;stroke-width:1.0;"/><text fill="#000000" font-family="sans-serif" font-size="14" lengthAdjust="spacing" textLength="279" x="541.5" y="281.49">RegistrationHandler registrationHandler,</text><ellipse cx="532.5" cy="294.1873" fill="none" rx="3" ry="3" style="stroke:#038048;stroke-width:1.0;"/><text fill="#000000" font-family="sans-serif" font-size="14" lengthAdjust="spacing" textLength="201" x="541.5" y="297.9783">GroupHandler groupHandler,</text><ellipse cx="532.5" cy="310.6755" fill="none" rx="3" ry="3" style="stroke:#038048;stroke-width:1.0;"/><text fill="#000000" font-family="sans-serif" font-size="14" lengthAdjust="spacing" textLength="251" x="541.5" y="314.4666">CollectionHandler collectionHandler,</text><ellipse cx="532.5" cy="327.1638" fill="none" rx="3" ry="3" style="stroke:#038048;stroke-width:1.0;"/><text fill="#000000" font-family="sans-serif" font-size="14" lengthAdjust="spacing" textLength="173" x="541.5" y="330.9548">CoinHandler coinHandler</text><line style="stroke:#181818;stroke-width:0.5;" x1="522.5" x2="825.5" y1="337.908" y2="337.908"/></g><g id="elem_GMN9"><path d="M352,60.59 L352,85.9005 A0,0 0 0 0 352,85.9005 L590.45,85.9005 L637.53,182.12 L598.45,85.9005 L826,85.9005 A0,0 0 0 0 826,85.9005 L826,70.59 L816,60.59 L352,60.59 A0,0 0 0 0 352,60.59 " fill="#FEFFDD" style="stroke:#181818;stroke-width:0.5;"/><path d="M816,60.59 L816,70.59 L826,70.59 L816,60.59 " fill="#FEFFDD" style="stroke:#181818;stroke-width:0.5;"/><text fill="#000000" font-family="sans-serif" font-size="13" lengthAdjust="spacing" textLength="453" x="358" y="78.1584">This is a Java record that contains all handlers required for external use.</text></g><!--reverse link StorageInitializer to SqliteInitializer--><g id="link_StorageInitializer_SqliteInitializer"><path codeLine="14" d="M102.9644,314.3421 C107.1444,343.8521 110.97,370.9 116.03,406.62 " fill="none" id="StorageInitializer-backto-SqliteInitializer" style="stroke:#181818;stroke-width:1.0;"/><polygon fill="none" points="100.44,296.52,97.0237,315.1836,108.9051,313.5006,100.44,296.52" style="stroke:#181818;stroke-width:1.0;"/></g><!--link InitService to StorageInitializer--><g id="link_InitService_StorageInitializer"><path codeLine="39" d="M157.61,105.87 C143.95,140.75 124.2872,190.9629 110.6172,225.8829 " fill="none" id="InitService-to-StorageInitializer" style="stroke:#181818;stroke-width:1.0;stroke-dasharray:7.0,7.0;"/><polygon fill="#181818" points="108.43,231.47,115.4355,224.5474,110.2527,226.814,107.986,221.6312,108.43,231.47" style="stroke:#181818;stroke-width:1.0;"/><text fill="#000000" font-family="sans-serif" font-size="13" lengthAdjust="spacing" textLength="29" x="144.95" y="149.0584">uses</text></g><!--link InitService to DataSourceAutoActivateForeignKeys--><g id="link_InitService_DataSourceAutoActivateForeignKeys"><path codeLine="40" d="M199.46,105.87 C231.95,140.75 279.8303,192.1598 312.3603,227.0798 " fill="none" id="InitService-to-DataSourceAutoActivateForeignKeys" style="stroke:#181818;stroke-width:1.0;stroke-dasharray:7.0,7.0;"/><polygon fill="#181818" points="316.45,231.47,313.2422,222.1582,313.0419,227.8115,307.3886,227.6112,316.45,231.47" style="stroke:#181818;stroke-width:1.0;"/><text fill="#000000" font-family="sans-serif" font-size="13" lengthAdjust="spacing" textLength="29" x="243.24" y="149.0584">uses</text></g><!--SRC=[ZPBRJiCm38Rl-nI-1C7s0DE4D84ummNb1KpgTHOXwH9tulZkEDq6sRe9eggjuyzs_CSDccUi2OntKwxRWCBUmKS1kjW9XIaQWb9yKEhAiJ1QVgUmGj8wKf3bu116iF1STVjVHVSn5cE4ScvPzWGFKcL7fYixWjCV8oEihsiD6i5jzvDv19yitUCBnUJbAEDI0hlwv3-7sz7K-7Cmw1ytx-KC1KlV1aEJLln4Zxf0eNCVY6jtGsznGnXS-Gz- -zelKwfOKbYm2hwjxl8aNHkJfh5ikdlIh4Alqa_LPpOobXIZkkxGOH8sRfZ76QY2ixj4Lrd5R6PiGRwLZFgrSko1QhsWvO2juT3VoqCkWc-RDLjdHWwTUckNqgv9ixspYNC6_lolD4nlvuL0V0D-ka_ij1vd744VX6jSeBPYVAX0PYXff0NPgSzQc2qBH2NcBGUgOEe3Q2OA3YsqaOPTJd9LLxhGcopoMHWEJtRDwYY5nXxvzu2k0ejl]--></g></svg>