<?xml version="1.0" encoding="us-ascii" standalone="no"?><svg xmlns="http://www.w3.org/2000/svg" xmlns:xlink="http://www.w3.org/1999/xlink" contentStyleType="text/css" height="235px" preserveAspectRatio="none" style="width:218px;height:235px;background:#FFFFFF;" version="1.1" viewBox="0 0 218 235" width="218px" zoomAndPan="magnify"><defs/><g><!--class StorageInitializer--><g id="elem_StorageInitializer"><rect codeLine="2" fill="#F1F1F1" height="64.4883" id="StorageInitializer" rx="2.5" ry="2.5" style="stroke:#181818;stroke-width:0.5;" width="149" x="34.5" y="7"/><ellipse cx="49.5" cy="23" fill="#B4A7E5" rx="11" ry="11" style="stroke:#181818;stroke-width:1.0;"/><path d="M45.9277,19.2651 L45.9277,17.1069 L53.3071,17.1069 L53.3071,19.2651 L50.8418,19.2651 L50.8418,27.3418 L53.3071,27.3418 L53.3071,29.5 L45.9277,29.5 L45.9277,27.3418 L48.3931,27.3418 L48.3931,19.2651 Z " fill="#000000"/><text fill="#000000" font-family="sans-serif" font-size="14" font-style="italic" lengthAdjust="spacing" textLength="117" x="63.5" y="28.291">StorageInitializer</text><line style="stroke:#181818;stroke-width:0.5;" x1="35.5" x2="182.5" y1="39" y2="39"/><line style="stroke:#181818;stroke-width:0.5;" x1="35.5" x2="182.5" y1="47" y2="47"/><ellipse cx="45.5" cy="60.7441" fill="#84BE84" rx="3" ry="3" style="stroke:#038048;stroke-width:1.0;"/><text fill="#000000" font-family="sans-serif" font-size="14" lengthAdjust="spacing" textLength="73" x="54.5" y="64.5352">init() : void</text></g><!--class SqliteInitializer--><g id="elem_SqliteInitializer"><rect codeLine="6" fill="#F1F1F1" height="97.4648" id="SqliteInitializer" rx="2.5" ry="2.5" style="stroke:#181818;stroke-width:0.5;" width="204" x="7" y="131.49"/><ellipse cx="53.75" cy="147.49" fill="#ADD1B2" rx="11" ry="11" style="stroke:#181818;stroke-width:1.0;"/><path d="M56.2231,153.6331 Q55.6421,153.9319 55.0029,154.0813 Q54.3638,154.2307 53.6582,154.2307 Q51.1514,154.2307 49.8315,152.5789 Q48.5117,150.927 48.5117,147.8059 Q48.5117,144.6765 49.8315,143.0247 Q51.1514,141.3728 53.6582,141.3728 Q54.3638,141.3728 55.0112,141.5222 Q55.6587,141.6716 56.2231,141.9705 L56.2231,144.6931 Q55.5923,144.1121 54.9988,143.8423 Q54.4053,143.5725 53.7744,143.5725 Q52.4297,143.5725 51.7449,144.6392 Q51.0601,145.7058 51.0601,147.8059 Q51.0601,149.8977 51.7449,150.9644 Q52.4297,152.031 53.7744,152.031 Q54.4053,152.031 54.9988,151.7612 Q55.5923,151.4915 56.2231,150.9104 Z " fill="#000000"/><text fill="#000000" font-family="sans-serif" font-size="14" lengthAdjust="spacing" textLength="102" x="74.25" y="152.781">SqliteInitializer</text><line style="stroke:#181818;stroke-width:0.5;" x1="8" x2="210" y1="163.49" y2="163.49"/><rect fill="none" height="6" style="stroke:#C82930;stroke-width:1.0;" width="6" x="15" y="174.2341"/><text fill="#000000" font-family="sans-serif" font-size="14" lengthAdjust="spacing" textLength="167" x="27" y="181.0252">connection : Connection</text><rect fill="none" height="6" style="stroke:#C82930;stroke-width:1.0;" width="6" x="15" y="190.7224"/><text fill="#000000" font-family="sans-serif" font-size="14" lengthAdjust="spacing" textLength="105" x="27" y="197.5134">logger : Logger</text><rect fill="none" height="6" style="stroke:#C82930;stroke-width:1.0;" width="6" x="15" y="207.2107"/><text fill="#000000" font-family="sans-serif" font-size="14" lengthAdjust="spacing" textLength="178" x="27" y="214.0017">tableNames : List&lt;String&gt;</text><line style="stroke:#181818;stroke-width:0.5;" x1="8" x2="210" y1="220.9548" y2="220.9548"/></g><!--reverse link StorageInitializer to SqliteInitializer--><g id="link_StorageInitializer_SqliteInitializer"><path codeLine="12" d="M109,89.78 C109,107.32 109,111.51 109,131.16 " fill="none" id="StorageInitializer-backto-SqliteInitializer" style="stroke:#181818;stroke-width:1.0;"/><polygon fill="none" points="109,71.78,103,89.78,115,89.78,109,71.78" style="stroke:#181818;stroke-width:1.0;"/></g><!--SRC=[RKvB2W8n3Dtt55agqWiCWnjNWhZf2MAD9H0JR8CBFtUt8uCR9wkNz-4zLgTwmKoGt2eMsYixe_23AZm3zDi0TswrXW7knkVm3Y4BjWRf9kmBWGZPL2axc_RGxlVCgbWftJp0uGjcrl4aTCGhjKdXvcFoobgsK-72kF4Lu_-4y040]--></g></svg>