<?xml version="1.0" encoding="us-ascii" standalone="no"?><svg xmlns="http://www.w3.org/2000/svg" xmlns:xlink="http://www.w3.org/1999/xlink" contentStyleType="text/css" height="1214px" preserveAspectRatio="none" style="width:1076px;height:1214px;background:#FFFFFF;" version="1.1" viewBox="0 0 1076 1214" width="1076px" zoomAndPan="magnify"><defs/><g><!--class CoinValue--><g id="elem_CoinValue"><rect codeLine="3" fill="#F1F1F1" height="179.9063" id="CoinValue" rx="2.5" ry="2.5" style="stroke:#181818;stroke-width:0.5;" width="125" x="216" y="904.38"/><ellipse cx="241.35" cy="920.38" fill="#EB937F" rx="11" ry="11" style="stroke:#181818;stroke-width:1.0;"/><path d="M244.9643,926.88 L237.2445,926.88 L237.2445,914.4869 L244.9643,914.4869 L244.9643,916.6451 L239.6933,916.6451 L239.6933,919.318 L244.4662,919.318 L244.4662,921.4762 L239.6933,921.4762 L239.6933,924.7218 L244.9643,924.7218 Z " fill="#000000"/><text fill="#000000" font-family="sans-serif" font-size="14" lengthAdjust="spacing" textLength="70" x="257.65" y="925.671">CoinValue</text><line style="stroke:#181818;stroke-width:0.5;" x1="217" x2="340" y1="936.38" y2="936.38"/><text fill="#000000" font-family="sans-serif" font-size="14" lengthAdjust="spacing" textLength="77" x="222" y="953.9152">ONE_CENT,</text><text fill="#000000" font-family="sans-serif" font-size="14" lengthAdjust="spacing" textLength="88" x="222" y="970.4034">TWO_CENTS,</text><text fill="#000000" font-family="sans-serif" font-size="14" lengthAdjust="spacing" textLength="85" x="222" y="986.8917">FIVE_CENTS,</text><text fill="#000000" font-family="sans-serif" font-size="14" lengthAdjust="spacing" textLength="83" x="222" y="1003.38">TEN_CENTS,</text><text fill="#000000" font-family="sans-serif" font-size="14" lengthAdjust="spacing" textLength="113" x="222" y="1019.8683">TWENTY_CENTS,</text><text fill="#000000" font-family="sans-serif" font-size="14" lengthAdjust="spacing" textLength="94" x="222" y="1036.3566">FIFTY_CENTS,</text><text fill="#000000" font-family="sans-serif" font-size="14" lengthAdjust="spacing" textLength="78" x="222" y="1052.8448">ONE_EURO,</text><text fill="#000000" font-family="sans-serif" font-size="14" lengthAdjust="spacing" textLength="85" x="222" y="1069.3331">TWO_EUROS</text><line style="stroke:#181818;stroke-width:0.5;" x1="217" x2="340" y1="1076.2863" y2="1076.2863"/></g><!--class CoinCountry--><g id="elem_CoinCountry"><rect codeLine="14" fill="#F1F1F1" height="427.2305" id="CoinCountry" rx="2.5" ry="2.5" style="stroke:#181818;stroke-width:0.5;" width="119" x="376" y="780.72"/><ellipse cx="391" cy="796.72" fill="#EB937F" rx="11" ry="11" style="stroke:#181818;stroke-width:1.0;"/><path d="M394.6143,803.22 L386.8945,803.22 L386.8945,790.8269 L394.6143,790.8269 L394.6143,792.9851 L389.3433,792.9851 L389.3433,795.658 L394.1162,795.658 L394.1162,797.8162 L389.3433,797.8162 L389.3433,801.0618 L394.6143,801.0618 Z " fill="#000000"/><text fill="#000000" font-family="sans-serif" font-size="14" lengthAdjust="spacing" textLength="87" x="405" y="802.011">CoinCountry</text><line style="stroke:#181818;stroke-width:0.5;" x1="377" x2="494" y1="812.72" y2="812.72"/><text fill="#000000" font-family="sans-serif" font-size="14" lengthAdjust="spacing" textLength="64" x="382" y="830.2552">AUSTRIA,</text><text fill="#000000" font-family="sans-serif" font-size="14" lengthAdjust="spacing" textLength="63" x="382" y="846.7434">BELGIUM,</text><text fill="#000000" font-family="sans-serif" font-size="14" lengthAdjust="spacing" textLength="58" x="382" y="863.2317">CYPRUS,</text><text fill="#000000" font-family="sans-serif" font-size="14" lengthAdjust="spacing" textLength="72" x="382" y="879.72">GERMANY,</text><text fill="#000000" font-family="sans-serif" font-size="14" lengthAdjust="spacing" textLength="64" x="382" y="896.2083">ESTONIA,</text><text fill="#000000" font-family="sans-serif" font-size="14" lengthAdjust="spacing" textLength="44" x="382" y="912.6966">SPAIN,</text><text fill="#000000" font-family="sans-serif" font-size="14" lengthAdjust="spacing" textLength="63" x="382" y="929.1848">FINLAND,</text><text fill="#000000" font-family="sans-serif" font-size="14" lengthAdjust="spacing" textLength="59" x="382" y="945.6731">FRANCE,</text><text fill="#000000" font-family="sans-serif" font-size="14" lengthAdjust="spacing" textLength="57" x="382" y="962.1614">GREECE,</text><text fill="#000000" font-family="sans-serif" font-size="14" lengthAdjust="spacing" textLength="62" x="382" y="978.6497">IRELAND,</text><text fill="#000000" font-family="sans-serif" font-size="14" lengthAdjust="spacing" textLength="43" x="382" y="995.138">ITALY,</text><text fill="#000000" font-family="sans-serif" font-size="14" lengthAdjust="spacing" textLength="78" x="382" y="1011.6263">LITHUANIA,</text><text fill="#000000" font-family="sans-serif" font-size="14" lengthAdjust="spacing" textLength="98" x="382" y="1028.1145">LUXEMBOURG,</text><text fill="#000000" font-family="sans-serif" font-size="14" lengthAdjust="spacing" textLength="53" x="382" y="1044.6028">LATVIA,</text><text fill="#000000" font-family="sans-serif" font-size="14" lengthAdjust="spacing" textLength="52" x="382" y="1061.0911">MALTA,</text><text fill="#000000" font-family="sans-serif" font-size="14" lengthAdjust="spacing" textLength="103" x="382" y="1077.5794">NETHERLANDS,</text><text fill="#000000" font-family="sans-serif" font-size="14" lengthAdjust="spacing" textLength="78" x="382" y="1094.0677">PORTUGAL,</text><text fill="#000000" font-family="sans-serif" font-size="14" lengthAdjust="spacing" textLength="71" x="382" y="1110.5559">SLOVENIA,</text><text fill="#000000" font-family="sans-serif" font-size="14" lengthAdjust="spacing" textLength="72" x="382" y="1127.0442">SLOVAKIA,</text><text fill="#000000" font-family="sans-serif" font-size="14" lengthAdjust="spacing" textLength="95" x="382" y="1143.5325">SAN_MARINO,</text><text fill="#000000" font-family="sans-serif" font-size="14" lengthAdjust="spacing" textLength="105" x="382" y="1160.0208">VATICAN_CITY,</text><text fill="#000000" font-family="sans-serif" font-size="14" lengthAdjust="spacing" textLength="68" x="382" y="1176.5091">MONACO,</text><text fill="#000000" font-family="sans-serif" font-size="14" lengthAdjust="spacing" textLength="69" x="382" y="1192.9973">ANDORRA</text><line style="stroke:#181818;stroke-width:0.5;" x1="377" x2="494" y1="1199.9505" y2="1199.9505"/></g><!--class Mint--><g id="elem_Mint"><rect codeLine="40" fill="#F1F1F1" height="130.4414" id="Mint" rx="2.5" ry="2.5" style="stroke:#181818;stroke-width:0.5;" width="99" x="530" y="929.11"/><ellipse cx="561.65" cy="945.11" fill="#EB937F" rx="11" ry="11" style="stroke:#181818;stroke-width:1.0;"/><path d="M565.2643,951.61 L557.5445,951.61 L557.5445,939.2169 L565.2643,939.2169 L565.2643,941.3751 L559.9933,941.3751 L559.9933,944.048 L564.7662,944.048 L564.7662,946.2062 L559.9933,946.2062 L559.9933,949.4518 L565.2643,949.4518 Z " fill="#000000"/><text fill="#000000" font-family="sans-serif" font-size="14" lengthAdjust="spacing" textLength="30" x="579.35" y="950.401">Mint</text><line style="stroke:#181818;stroke-width:0.5;" x1="531" x2="628" y1="961.11" y2="961.11"/><text fill="#000000" font-family="sans-serif" font-size="14" lengthAdjust="spacing" textLength="50" x="536" y="978.6452">BERLIN,</text><text fill="#000000" font-family="sans-serif" font-size="14" lengthAdjust="spacing" textLength="60" x="536" y="995.1334">MUNICH,</text><text fill="#000000" font-family="sans-serif" font-size="14" lengthAdjust="spacing" textLength="87" x="536" y="1011.6217">STUTTGART,</text><text fill="#000000" font-family="sans-serif" font-size="14" lengthAdjust="spacing" textLength="84" x="536" y="1028.11">KARLSRUHE,</text><text fill="#000000" font-family="sans-serif" font-size="14" lengthAdjust="spacing" textLength="69" x="536" y="1044.5983">HAMBURG</text><line style="stroke:#181818;stroke-width:0.5;" x1="531" x2="628" y1="1051.5514" y2="1051.5514"/></g><!--class CoinDescription--><g id="elem_CoinDescription"><rect codeLine="49" fill="#F1F1F1" height="64.4883" id="CoinDescription" rx="2.5" ry="2.5" style="stroke:#181818;stroke-width:0.5;" width="142" x="663.5" y="962.09"/><ellipse cx="678.5" cy="978.09" fill="#ADD1B2" rx="11" ry="11" style="stroke:#181818;stroke-width:1.0;"/><path d="M680.9731,984.2331 Q680.3921,984.5319 679.7529,984.6813 Q679.1138,984.8307 678.4082,984.8307 Q675.9014,984.8307 674.5815,983.1789 Q673.2617,981.527 673.2617,978.4059 Q673.2617,975.2765 674.5815,973.6247 Q675.9014,971.9728 678.4082,971.9728 Q679.1138,971.9728 679.7612,972.1222 Q680.4087,972.2716 680.9731,972.5705 L680.9731,975.2931 Q680.3423,974.7121 679.7488,974.4423 Q679.1553,974.1725 678.5244,974.1725 Q677.1797,974.1725 676.4949,975.2392 Q675.8101,976.3058 675.8101,978.4059 Q675.8101,980.4977 676.4949,981.5644 Q677.1797,982.631 678.5244,982.631 Q679.1553,982.631 679.7488,982.3612 Q680.3423,982.0915 680.9731,981.5104 Z " fill="#000000"/><text fill="#000000" font-family="sans-serif" font-size="14" lengthAdjust="spacing" textLength="110" x="692.5" y="983.381">CoinDescription</text><line style="stroke:#181818;stroke-width:0.5;" x1="664.5" x2="804.5" y1="994.09" y2="994.09"/><rect fill="none" height="6" style="stroke:#C82930;stroke-width:1.0;" width="6" x="671.5" y="1004.8341"/><text fill="#000000" font-family="sans-serif" font-size="14" lengthAdjust="spacing" textLength="80" x="683.5" y="1011.6252">text : String</text><line style="stroke:#181818;stroke-width:0.5;" x1="664.5" x2="804.5" y1="1018.5783" y2="1018.5783"/></g><!--class Coin--><g id="elem_Coin"><rect codeLine="54" fill="#F1F1F1" height="113.9531" id="Coin" rx="2.5" ry="2.5" style="stroke:#181818;stroke-width:0.5;" width="189" x="666" y="589.77"/><ellipse cx="740.25" cy="605.77" fill="#B4A7E5" rx="11" ry="11" style="stroke:#181818;stroke-width:1.0;"/><path d="M736.6777,602.0351 L736.6777,599.8769 L744.0571,599.8769 L744.0571,602.0351 L741.5918,602.0351 L741.5918,610.1118 L744.0571,610.1118 L744.0571,612.27 L736.6777,612.27 L736.6777,610.1118 L739.1431,610.1118 L739.1431,602.0351 Z " fill="#000000"/><text fill="#000000" font-family="sans-serif" font-size="14" font-style="italic" lengthAdjust="spacing" textLength="32" x="760.75" y="611.061">Coin</text><line style="stroke:#181818;stroke-width:0.5;" x1="667" x2="854" y1="621.77" y2="621.77"/><line style="stroke:#181818;stroke-width:0.5;" x1="667" x2="854" y1="629.77" y2="629.77"/><ellipse cx="677" cy="643.5141" fill="#84BE84" rx="3" ry="3" style="stroke:#038048;stroke-width:1.0;"/><text fill="#000000" font-family="sans-serif" font-size="14" lengthAdjust="spacing" textLength="98" x="686" y="647.3052">getId() : String</text><ellipse cx="677" cy="660.0024" fill="#84BE84" rx="3" ry="3" style="stroke:#038048;stroke-width:1.0;"/><text fill="#000000" font-family="sans-serif" font-size="14" lengthAdjust="spacing" textLength="100" x="686" y="663.7934">getValue() : int</text><ellipse cx="677" cy="676.4907" fill="#84BE84" rx="3" ry="3" style="stroke:#038048;stroke-width:1.0;"/><text fill="#000000" font-family="sans-serif" font-size="14" lengthAdjust="spacing" textLength="93" x="686" y="680.2817">getYear() : int</text><ellipse cx="677" cy="692.979" fill="#84BE84" rx="3" ry="3" style="stroke:#038048;stroke-width:1.0;"/><text fill="#000000" font-family="sans-serif" font-size="14" lengthAdjust="spacing" textLength="163" x="686" y="696.77">getDescription() : String</text></g><!--class CoinCollection--><g id="elem_CoinCollection"><rect codeLine="61" fill="#F1F1F1" height="163.418" id="CoinCollection" rx="2.5" ry="2.5" style="stroke:#181818;stroke-width:0.5;" width="210" x="366.5" y="316.37"/><ellipse cx="394.1" cy="332.37" fill="#B4A7E5" rx="11" ry="11" style="stroke:#181818;stroke-width:1.0;"/><path d="M390.5277,328.6351 L390.5277,326.4769 L397.9071,326.4769 L397.9071,328.6351 L395.4418,328.6351 L395.4418,336.7118 L397.9071,336.7118 L397.9071,338.87 L390.5277,338.87 L390.5277,336.7118 L392.9931,336.7118 L392.9931,328.6351 Z " fill="#000000"/><text fill="#000000" font-family="sans-serif" font-size="14" font-style="italic" lengthAdjust="spacing" textLength="101" x="410.9" y="337.661">CoinCollection</text><rect fill="#FFFFFF" height="16.1328" style="stroke:#181818;stroke-width:1.0;stroke-dasharray:2.0,2.0;" width="47" x="532.5" y="313.37"/><text fill="#000000" font-family="sans-serif" font-size="12" font-style="italic" lengthAdjust="spacing" textLength="45" x="533.5" y="325.9716">T : Coin</text><line style="stroke:#181818;stroke-width:0.5;" x1="367.5" x2="575.5" y1="348.37" y2="348.37"/><line style="stroke:#181818;stroke-width:0.5;" x1="367.5" x2="575.5" y1="356.37" y2="356.37"/><ellipse cx="377.5" cy="370.1141" fill="#84BE84" rx="3" ry="3" style="stroke:#038048;stroke-width:1.0;"/><text fill="#000000" font-family="sans-serif" font-size="14" lengthAdjust="spacing" textLength="98" x="386.5" y="373.9052">getId() : String</text><ellipse cx="377.5" cy="386.6024" fill="#84BE84" rx="3" ry="3" style="stroke:#038048;stroke-width:1.0;"/><text fill="#000000" font-family="sans-serif" font-size="14" lengthAdjust="spacing" textLength="124" x="386.5" y="390.3934">getName() : String</text><ellipse cx="377.5" cy="403.0907" fill="#84BE84" rx="3" ry="3" style="stroke:#038048;stroke-width:1.0;"/><text fill="#000000" font-family="sans-serif" font-size="14" lengthAdjust="spacing" textLength="137" x="386.5" y="406.8817">getCoins() : List&lt;T&gt;</text><ellipse cx="377.5" cy="419.579" fill="#84BE84" rx="3" ry="3" style="stroke:#038048;stroke-width:1.0;"/><text fill="#000000" font-family="sans-serif" font-size="14" lengthAdjust="spacing" textLength="159" x="386.5" y="423.37">addCoin(coin : T) : void</text><ellipse cx="377.5" cy="436.0673" fill="#84BE84" rx="3" ry="3" style="stroke:#038048;stroke-width:1.0;"/><text fill="#000000" font-family="sans-serif" font-size="14" lengthAdjust="spacing" textLength="184" x="386.5" y="439.8583">removeCoin(coin : T) : void</text><ellipse cx="377.5" cy="452.5555" fill="#84BE84" rx="3" ry="3" style="stroke:#038048;stroke-width:1.0;"/><text fill="#000000" font-family="sans-serif" font-size="14" lengthAdjust="spacing" textLength="135" x="386.5" y="456.3466">getTotalValue() : int</text><ellipse cx="377.5" cy="469.0438" fill="#84BE84" rx="3" ry="3" style="stroke:#038048;stroke-width:1.0;"/><text fill="#000000" font-family="sans-serif" font-size="14" lengthAdjust="spacing" textLength="136" x="386.5" y="472.8348">getCoinCount() : int</text></g><!--class CollectionGroup--><g id="elem_CollectionGroup"><rect codeLine="71" fill="#F1F1F1" height="196.3945" id="CollectionGroup" rx="2.5" ry="2.5" style="stroke:#181818;stroke-width:0.5;" width="329" x="450" y="10"/><ellipse cx="465" cy="26" fill="#B4A7E5" rx="11" ry="11" style="stroke:#181818;stroke-width:1.0;"/><path d="M461.4277,22.2651 L461.4277,20.1069 L468.8071,20.1069 L468.8071,22.2651 L466.3418,22.2651 L466.3418,30.3418 L468.8071,30.3418 L468.8071,32.5 L461.4277,32.5 L461.4277,30.3418 L463.8931,30.3418 L463.8931,22.2651 Z " fill="#000000"/><text fill="#000000" font-family="sans-serif" font-size="14" font-style="italic" lengthAdjust="spacing" textLength="112" x="479" y="31.291">CollectionGroup</text><rect fill="#FFFFFF" height="16.1328" style="stroke:#181818;stroke-width:1.0;stroke-dasharray:2.0,2.0;" width="183" x="599" y="7"/><text fill="#000000" font-family="sans-serif" font-size="12" font-style="italic" lengthAdjust="spacing" textLength="181" x="600" y="19.6016">T : Coin, C : CoinCollection&lt;T&gt;</text><line style="stroke:#181818;stroke-width:0.5;" x1="451" x2="778" y1="42" y2="42"/><line style="stroke:#181818;stroke-width:0.5;" x1="451" x2="778" y1="50" y2="50"/><ellipse cx="461" cy="63.7441" fill="#84BE84" rx="3" ry="3" style="stroke:#038048;stroke-width:1.0;"/><text fill="#000000" font-family="sans-serif" font-size="14" lengthAdjust="spacing" textLength="98" x="470" y="67.5352">getId() : String</text><ellipse cx="461" cy="80.2324" fill="#84BE84" rx="3" ry="3" style="stroke:#038048;stroke-width:1.0;"/><text fill="#000000" font-family="sans-serif" font-size="14" lengthAdjust="spacing" textLength="124" x="470" y="84.0234">getName() : String</text><ellipse cx="461" cy="96.7207" fill="#84BE84" rx="3" ry="3" style="stroke:#038048;stroke-width:1.0;"/><text fill="#000000" font-family="sans-serif" font-size="14" lengthAdjust="spacing" textLength="139" x="470" y="100.5117">String getOwnerId();</text><ellipse cx="461" cy="113.209" fill="#84BE84" rx="3" ry="3" style="stroke:#038048;stroke-width:1.0;"/><text fill="#000000" font-family="sans-serif" font-size="14" lengthAdjust="spacing" textLength="175" x="470" y="117">getCollections() : List&lt;C&gt;</text><ellipse cx="461" cy="129.6973" fill="#84BE84" rx="3" ry="3" style="stroke:#038048;stroke-width:1.0;"/><text fill="#000000" font-family="sans-serif" font-size="14" lengthAdjust="spacing" textLength="234" x="470" y="133.4883">addCollection(collection : C) : void</text><ellipse cx="461" cy="146.1855" fill="#84BE84" rx="3" ry="3" style="stroke:#038048;stroke-width:1.0;"/><text fill="#000000" font-family="sans-serif" font-size="14" lengthAdjust="spacing" textLength="259" x="470" y="149.9766">removeCollection(collection : C) : void</text><ellipse cx="461" cy="162.6738" fill="#84BE84" rx="3" ry="3" style="stroke:#038048;stroke-width:1.0;"/><text fill="#000000" font-family="sans-serif" font-size="14" lengthAdjust="spacing" textLength="173" x="470" y="166.4648">getTotalCollections() : int</text><ellipse cx="461" cy="179.1621" fill="#84BE84" rx="3" ry="3" style="stroke:#038048;stroke-width:1.0;"/><text fill="#000000" font-family="sans-serif" font-size="14" lengthAdjust="spacing" textLength="136" x="470" y="182.9531">getTotalCoins() : int</text><ellipse cx="461" cy="195.6504" fill="#84BE84" rx="3" ry="3" style="stroke:#038048;stroke-width:1.0;"/><text fill="#000000" font-family="sans-serif" font-size="14" lengthAdjust="spacing" textLength="135" x="470" y="199.4414">getTotalValue() : int</text></g><!--class EuroCoin--><g id="elem_EuroCoin"><rect codeLine="84" fill="#F1F1F1" height="80.9766" id="EuroCoin" rx="2.5" ry="2.5" style="stroke:#181818;stroke-width:0.5;" width="96" x="459.5" y="606.25"/><ellipse cx="474.5" cy="622.25" fill="#ADD1B2" rx="11" ry="11" style="stroke:#181818;stroke-width:1.0;"/><path d="M476.9731,628.3931 Q476.3921,628.6919 475.7529,628.8413 Q475.1138,628.9907 474.4082,628.9907 Q471.9014,628.9907 470.5815,627.3389 Q469.2617,625.687 469.2617,622.5659 Q469.2617,619.4365 470.5815,617.7847 Q471.9014,616.1328 474.4082,616.1328 Q475.1138,616.1328 475.7612,616.2822 Q476.4087,616.4316 476.9731,616.7305 L476.9731,619.4531 Q476.3423,618.8721 475.7488,618.6023 Q475.1553,618.3325 474.5244,618.3325 Q473.1797,618.3325 472.4949,619.3992 Q471.8101,620.4658 471.8101,622.5659 Q471.8101,624.6577 472.4949,625.7244 Q473.1797,626.791 474.5244,626.791 Q475.1553,626.791 475.7488,626.5212 Q476.3423,626.2515 476.9731,625.6704 Z " fill="#000000"/><text fill="#000000" font-family="sans-serif" font-size="14" lengthAdjust="spacing" textLength="64" x="488.5" y="627.541">EuroCoin</text><line style="stroke:#181818;stroke-width:0.5;" x1="460.5" x2="554.5" y1="638.25" y2="638.25"/><rect fill="none" height="6" style="stroke:#C82930;stroke-width:1.0;" width="6" x="467.5" y="648.9941"/><text fill="#000000" font-family="sans-serif" font-size="14" lengthAdjust="spacing" textLength="66" x="479.5" y="655.7852">id : String</text><rect fill="none" height="6" style="stroke:#C82930;stroke-width:1.0;" width="6" x="467.5" y="665.4824"/><text fill="#000000" font-family="sans-serif" font-size="14" lengthAdjust="spacing" textLength="59" x="479.5" y="672.2734">year : int</text><line style="stroke:#181818;stroke-width:0.5;" x1="460.5" x2="554.5" y1="679.2266" y2="679.2266"/></g><!--class EuroCoinCollection--><g id="elem_EuroCoinCollection"><rect codeLine="95" fill="#F1F1F1" height="80.9766" id="EuroCoinCollection" rx="2.5" ry="2.5" style="stroke:#181818;stroke-width:0.5;" width="165" x="91" y="357.59"/><ellipse cx="106" cy="373.59" fill="#ADD1B2" rx="11" ry="11" style="stroke:#181818;stroke-width:1.0;"/><path d="M108.4731,379.7331 Q107.8921,380.0319 107.2529,380.1813 Q106.6138,380.3307 105.9082,380.3307 Q103.4014,380.3307 102.0815,378.6789 Q100.7617,377.027 100.7617,373.9059 Q100.7617,370.7765 102.0815,369.1247 Q103.4014,367.4728 105.9082,367.4728 Q106.6138,367.4728 107.2612,367.6222 Q107.9087,367.7716 108.4731,368.0705 L108.4731,370.7931 Q107.8423,370.2121 107.2488,369.9423 Q106.6553,369.6725 106.0244,369.6725 Q104.6797,369.6725 103.9949,370.7392 Q103.3101,371.8058 103.3101,373.9059 Q103.3101,375.9977 103.9949,377.0644 Q104.6797,378.131 106.0244,378.131 Q106.6553,378.131 107.2488,377.8612 Q107.8423,377.5915 108.4731,377.0104 Z " fill="#000000"/><text fill="#000000" font-family="sans-serif" font-size="14" lengthAdjust="spacing" textLength="133" x="120" y="378.881">EuroCoinCollection</text><line style="stroke:#181818;stroke-width:0.5;" x1="92" x2="255" y1="389.59" y2="389.59"/><rect fill="none" height="6" style="stroke:#C82930;stroke-width:1.0;" width="6" x="99" y="400.3341"/><text fill="#000000" font-family="sans-serif" font-size="14" lengthAdjust="spacing" textLength="66" x="111" y="407.1252">id : String</text><rect fill="none" height="6" style="stroke:#C82930;stroke-width:1.0;" width="6" x="99" y="416.8224"/><text fill="#000000" font-family="sans-serif" font-size="14" lengthAdjust="spacing" textLength="91" x="111" y="423.6134">name : String</text><line style="stroke:#181818;stroke-width:0.5;" x1="92" x2="255" y1="430.5666" y2="430.5666"/></g><!--class EuroCoinCollectionGroup--><g id="elem_EuroCoinCollectionGroup"><rect codeLine="102" fill="#F1F1F1" height="97.4648" id="EuroCoinCollectionGroup" rx="2.5" ry="2.5" style="stroke:#181818;stroke-width:0.5;" width="333" x="7" y="59.47"/><ellipse cx="81.25" cy="75.47" fill="#ADD1B2" rx="11" ry="11" style="stroke:#181818;stroke-width:1.0;"/><path d="M83.7231,81.6131 Q83.1421,81.9119 82.5029,82.0613 Q81.8638,82.2107 81.1582,82.2107 Q78.6514,82.2107 77.3315,80.5589 Q76.0117,78.907 76.0117,75.7859 Q76.0117,72.6565 77.3315,71.0047 Q78.6514,69.3528 81.1582,69.3528 Q81.8638,69.3528 82.5112,69.5022 Q83.1587,69.6516 83.7231,69.9505 L83.7231,72.6731 Q83.0923,72.0921 82.4988,71.8223 Q81.9053,71.5525 81.2744,71.5525 Q79.9297,71.5525 79.2449,72.6192 Q78.5601,73.6858 78.5601,75.7859 Q78.5601,77.8777 79.2449,78.9444 Q79.9297,80.011 81.2744,80.011 Q81.9053,80.011 82.4988,79.7412 Q83.0923,79.4715 83.7231,78.8904 Z " fill="#000000"/><text fill="#000000" font-family="sans-serif" font-size="14" lengthAdjust="spacing" textLength="176" x="101.75" y="80.761">EuroCoinCollectionGroup</text><line style="stroke:#181818;stroke-width:0.5;" x1="8" x2="339" y1="91.47" y2="91.47"/><rect fill="none" height="6" style="stroke:#C82930;stroke-width:1.0;" width="6" x="15" y="102.2141"/><text fill="#000000" font-family="sans-serif" font-size="14" lengthAdjust="spacing" textLength="66" x="27" y="109.0052">id : String</text><rect fill="none" height="6" style="stroke:#C82930;stroke-width:1.0;" width="6" x="15" y="118.7024"/><text fill="#000000" font-family="sans-serif" font-size="14" lengthAdjust="spacing" textLength="91" x="27" y="125.4934">name : String</text><rect fill="none" height="6" style="stroke:#C82930;stroke-width:1.0;" width="6" x="15" y="135.1907"/><text fill="#000000" font-family="sans-serif" font-size="14" lengthAdjust="spacing" textLength="307" x="27" y="141.9817">ownerId : String  'Reference to the user by ID'</text><line style="stroke:#181818;stroke-width:0.5;" x1="8" x2="339" y1="148.9348" y2="148.9348"/></g><!--class EuroCoinBuilder--><g id="elem_EuroCoinBuilder"><rect codeLine="112" fill="#F1F1F1" height="229.3711" id="EuroCoinBuilder" rx="2.5" ry="2.5" style="stroke:#181818;stroke-width:0.5;" width="457" x="612" y="283.4"/><ellipse cx="780.25" cy="299.4" fill="#ADD1B2" rx="11" ry="11" style="stroke:#181818;stroke-width:1.0;"/><path d="M782.7231,305.5431 Q782.1421,305.8419 781.5029,305.9913 Q780.8638,306.1407 780.1582,306.1407 Q777.6514,306.1407 776.3315,304.4889 Q775.0117,302.837 775.0117,299.7159 Q775.0117,296.5865 776.3315,294.9347 Q777.6514,293.2828 780.1582,293.2828 Q780.8638,293.2828 781.5112,293.4322 Q782.1587,293.5816 782.7231,293.8805 L782.7231,296.6031 Q782.0923,296.0221 781.4988,295.7523 Q780.9053,295.4825 780.2744,295.4825 Q778.9297,295.4825 778.2449,296.5492 Q777.5601,297.6158 777.5601,299.7159 Q777.5601,301.8077 778.2449,302.8744 Q778.9297,303.941 780.2744,303.941 Q780.9053,303.941 781.4988,303.6712 Q782.0923,303.4015 782.7231,302.8204 Z " fill="#000000"/><text fill="#000000" font-family="sans-serif" font-size="14" lengthAdjust="spacing" textLength="112" x="800.75" y="304.691">EuroCoinBuilder</text><line style="stroke:#181818;stroke-width:0.5;" x1="613" x2="1068" y1="315.4" y2="315.4"/><rect fill="none" height="6" style="stroke:#C82930;stroke-width:1.0;" width="6" x="620" y="326.1441"/><text fill="#000000" font-family="sans-serif" font-size="14" lengthAdjust="spacing" textLength="59" x="632" y="332.9352">year : int</text><rect fill="none" height="6" style="stroke:#C82930;stroke-width:1.0;" width="6" x="620" y="342.6324"/><text fill="#000000" font-family="sans-serif" font-size="14" lengthAdjust="spacing" textLength="118" x="632" y="349.4234">value : CoinValue</text><rect fill="none" height="6" style="stroke:#C82930;stroke-width:1.0;" width="6" x="620" y="359.1207"/><text fill="#000000" font-family="sans-serif" font-size="14" lengthAdjust="spacing" textLength="185" x="632" y="365.9117">mintCountry : CoinCountry</text><rect fill="none" height="6" style="stroke:#C82930;stroke-width:1.0;" width="6" x="620" y="375.609"/><text fill="#000000" font-family="sans-serif" font-size="14" lengthAdjust="spacing" textLength="199" x="632" y="382.4">description : CoinDescription</text><rect fill="none" height="6" style="stroke:#C82930;stroke-width:1.0;" width="6" x="620" y="392.0973"/><text fill="#000000" font-family="sans-serif" font-size="14" lengthAdjust="spacing" textLength="73" x="632" y="398.8883">mint : Mint</text><line style="stroke:#181818;stroke-width:0.5;" x1="613" x2="1068" y1="405.8414" y2="405.8414"/><ellipse cx="623" cy="419.5855" fill="#84BE84" rx="3" ry="3" style="stroke:#038048;stroke-width:1.0;"/><text fill="#000000" font-family="sans-serif" font-size="14" lengthAdjust="spacing" textLength="244" x="632" y="423.3766">setYear(year : int) : EuroCoinBuilder</text><ellipse cx="623" cy="436.0738" fill="#84BE84" rx="3" ry="3" style="stroke:#038048;stroke-width:1.0;"/><text fill="#000000" font-family="sans-serif" font-size="14" lengthAdjust="spacing" textLength="310" x="632" y="439.8648">setValue(value : CoinValue) : EuroCoinBuilder</text><ellipse cx="623" cy="452.5621" fill="#84BE84" rx="3" ry="3" style="stroke:#038048;stroke-width:1.0;"/><text fill="#000000" font-family="sans-serif" font-size="14" lengthAdjust="spacing" textLength="424" x="632" y="456.3531">setMintCountry(mintCountry : CoinCountry) : EuroCoinBuilder</text><ellipse cx="623" cy="469.0504" fill="#84BE84" rx="3" ry="3" style="stroke:#038048;stroke-width:1.0;"/><text fill="#000000" font-family="sans-serif" font-size="14" lengthAdjust="spacing" textLength="431" x="632" y="472.8414">setDescription(description : CoinDescription) : EuroCoinBuilder</text><ellipse cx="623" cy="485.5387" fill="#84BE84" rx="3" ry="3" style="stroke:#038048;stroke-width:1.0;"/><text fill="#000000" font-family="sans-serif" font-size="14" lengthAdjust="spacing" textLength="257" x="632" y="489.3297">setMint(mint : Mint) : EuroCoinBuilder</text><ellipse cx="623" cy="502.027" fill="#84BE84" rx="3" ry="3" style="stroke:#038048;stroke-width:1.0;"/><text fill="#000000" font-family="sans-serif" font-size="14" lengthAdjust="spacing" textLength="121" x="632" y="505.818">build() : EuroCoin</text></g><!--class User--><g id="elem_User"><rect codeLine="129" fill="#F1F1F1" height="80.9766" id="User" rx="2.5" ry="2.5" style="stroke:#181818;stroke-width:0.5;" width="117" x="814" y="67.71"/><ellipse cx="853.3" cy="83.71" fill="#ADD1B2" rx="11" ry="11" style="stroke:#181818;stroke-width:1.0;"/><path d="M855.7731,89.8531 Q855.1921,90.1519 854.5529,90.3013 Q853.9138,90.4507 853.2082,90.4507 Q850.7014,90.4507 849.3815,88.7989 Q848.0617,87.147 848.0617,84.0259 Q848.0617,80.8965 849.3815,79.2447 Q850.7014,77.5928 853.2082,77.5928 Q853.9138,77.5928 854.5612,77.7422 Q855.2087,77.8916 855.7731,78.1905 L855.7731,80.9131 Q855.1423,80.3321 854.5488,80.0623 Q853.9553,79.7925 853.3244,79.7925 Q851.9797,79.7925 851.2949,80.8592 Q850.6101,81.9258 850.6101,84.0259 Q850.6101,86.1177 851.2949,87.1844 Q851.9797,88.251 853.3244,88.251 Q853.9553,88.251 854.5488,87.9812 Q855.1423,87.7115 855.7731,87.1304 Z " fill="#000000"/><text fill="#000000" font-family="sans-serif" font-size="14" lengthAdjust="spacing" textLength="31" x="872.7" y="89.001">User</text><line style="stroke:#181818;stroke-width:0.5;" x1="815" x2="930" y1="99.71" y2="99.71"/><rect fill="none" height="6" style="stroke:#C82930;stroke-width:1.0;" width="6" x="822" y="110.4541"/><text fill="#000000" font-family="sans-serif" font-size="14" lengthAdjust="spacing" textLength="66" x="834" y="117.2452">id : String</text><rect fill="none" height="6" style="stroke:#C82930;stroke-width:1.0;" width="6" x="822" y="126.9424"/><text fill="#000000" font-family="sans-serif" font-size="14" lengthAdjust="spacing" textLength="91" x="834" y="133.7334">name : String</text><line style="stroke:#181818;stroke-width:0.5;" x1="815" x2="930" y1="140.6866" y2="140.6866"/></g><!--link EuroCoin to Coin--><g id="link_EuroCoin_Coin"><path codeLine="88" d="M555.98,646.74 C586.97,646.74 610.22,646.74 647.54,646.74 " fill="none" id="EuroCoin-to-Coin" style="stroke:#181818;stroke-width:1.0;stroke-dasharray:7.0,7.0;"/><polygon fill="none" points="665.54,646.74,647.54,640.74,647.54,652.74,665.54,646.74" style="stroke:#181818;stroke-width:1.0;"/><text fill="#000000" font-family="sans-serif" font-size="13" lengthAdjust="spacing" textLength="74" x="573.75" y="640.3084">implements</text></g><!--link EuroCoin to CoinValue--><g id="link_EuroCoin_CoinValue"><path codeLine="89" d="M459.16,674.34 C434.7,689.46 405.77,710.1 384.5,733.72 C341.26,781.75 316.0422,844.0206 300.1622,898.3906 " fill="none" id="EuroCoin-to-CoinValue" style="stroke:#181818;stroke-width:1.0;"/><polygon fill="#181818" points="298.48,904.15,304.8428,896.6324,299.8818,899.3505,297.1637,894.3895,298.48,904.15" style="stroke:#181818;stroke-width:1.0;"/><rect fill="none" height="6" style="stroke:#C82930;stroke-width:1.0;" width="6" x="387.5" y="739.8753"/><text fill="#000000" font-family="sans-serif" font-size="13" lengthAdjust="spacing" textLength="33" x="397.5" y="747.2884">value</text><text fill="#000000" font-family="sans-serif" font-size="13" lengthAdjust="spacing" textLength="8" x="291.8033" y="893.6418">1</text></g><!--link EuroCoin to CoinCountry--><g id="link_EuroCoin_CoinCountry"><path codeLine="90" d="M469.97,687.61 C459.41,701.22 449.26,717.2 443.5,733.72 C438.31,748.62 435.452,758.3965 432.552,774.3665 " fill="none" id="EuroCoin-to-CoinCountry" style="stroke:#181818;stroke-width:1.0;"/><polygon fill="#181818" points="431.48,780.27,437.0237,772.1295,432.3733,775.3505,429.1524,770.7001,431.48,780.27" style="stroke:#181818;stroke-width:1.0;"/><rect fill="none" height="6" style="stroke:#C82930;stroke-width:1.0;" width="6" x="446.5" y="739.8753"/><text fill="#000000" font-family="sans-serif" font-size="13" lengthAdjust="spacing" textLength="79" x="456.5" y="747.2884">mintCountry</text><text fill="#000000" font-family="sans-serif" font-size="13" lengthAdjust="spacing" textLength="8" x="423.1918" y="769.8814">1</text></g><!--link EuroCoin to CoinDescription--><g id="link_EuroCoin_CoinDescription"><path codeLine="91" d="M555.89,685.23 C585.16,709.86 621.51,744.2 646.5,780.72 C686.42,839.08 711.5205,912.6228 724.2505,956.0028 " fill="none" id="EuroCoin-to-CoinDescription" style="stroke:#181818;stroke-width:1.0;"/><polygon fill="#181818" points="725.94,961.76,727.2439,951.9978,724.5321,956.9623,719.5676,954.2505,725.94,961.76" style="stroke:#181818;stroke-width:1.0;"/><rect fill="none" height="6" style="stroke:#C82930;stroke-width:1.0;" width="6" x="623.61" y="739.8753"/><text fill="#000000" font-family="sans-serif" font-size="13" lengthAdjust="spacing" textLength="71" x="633.61" y="747.2884">description</text><text fill="#000000" font-family="sans-serif" font-size="13" lengthAdjust="spacing" textLength="8" x="715.4673" y="951.4693">1</text></g><!--link EuroCoin to Mint--><g id="link_EuroCoin_Mint"><path codeLine="92" d="M524.79,687.39 C530.5,701.76 536.42,718.26 540.5,733.72 C557.73,799.06 567.4431,869.8139 573.1031,922.8339 " fill="none" id="EuroCoin-to-Mint" style="stroke:#181818;stroke-width:1.0;"/><polygon fill="#181818" points="573.74,928.8,576.7621,919.4263,573.2093,923.8282,568.8073,920.2754,573.74,928.8" style="stroke:#181818;stroke-width:1.0;"/><rect fill="none" height="6" style="stroke:#C82930;stroke-width:1.0;" width="6" x="546.97" y="739.8753"/><text fill="#000000" font-family="sans-serif" font-size="13" lengthAdjust="spacing" textLength="29" x="556.97" y="747.2884">mint</text><text fill="#000000" font-family="sans-serif" font-size="13" lengthAdjust="spacing" textLength="8" x="564.6725" y="918.3976">1</text></g><!--link EuroCoinCollection to CoinCollection--><g id="link_EuroCoinCollection_CoinCollection"><path codeLine="99" d="M256.11,398.08 C290.13,398.08 311.96,398.08 348.04,398.08 " fill="none" id="EuroCoinCollection-to-CoinCollection" style="stroke:#181818;stroke-width:1.0;stroke-dasharray:7.0,7.0;"/><polygon fill="none" points="366.04,398.08,348.04,392.08,348.04,404.08,366.04,398.08" style="stroke:#181818;stroke-width:1.0;"/><text fill="#000000" font-family="sans-serif" font-size="13" lengthAdjust="spacing" textLength="74" x="274.25" y="391.6484">implements</text></g><!--link EuroCoinCollection to EuroCoin--><g id="link_EuroCoinCollection_EuroCoin"><path codeLine="100" d="M227.53,438.99 C291.69,486.37 392.9037,561.1054 454.4137,606.5354 " fill="none" id="EuroCoinCollection-to-EuroCoin" style="stroke:#181818;stroke-width:1.0;"/><polygon fill="#181818" points="459.24,610.1,454.3769,601.5355,455.2181,607.1295,449.6241,607.9706,459.24,610.1" style="stroke:#181818;stroke-width:1.0;"/><rect fill="none" height="6" style="stroke:#C82930;stroke-width:1.0;" width="6" x="392.93" y="548.9253"/><text fill="#000000" font-family="sans-serif" font-size="13" lengthAdjust="spacing" textLength="34" x="402.93" y="556.3384">coins</text><text fill="#000000" font-family="sans-serif" font-size="13" lengthAdjust="spacing" textLength="6" x="445.3908" y="600.9335">*</text></g><!--link EuroCoinCollectionGroup to CollectionGroup--><g id="link_EuroCoinCollectionGroup_CollectionGroup"><path codeLine="108" d="M340.22,108.2 C376.08,108.2 395.95,108.2 431.73,108.2 " fill="none" id="EuroCoinCollectionGroup-to-CollectionGroup" style="stroke:#181818;stroke-width:1.0;stroke-dasharray:7.0,7.0;"/><polygon fill="none" points="449.73,108.2,431.73,102.2,431.73,114.2,449.73,108.2" style="stroke:#181818;stroke-width:1.0;"/><text fill="#000000" font-family="sans-serif" font-size="13" lengthAdjust="spacing" textLength="74" x="358" y="101.7684">implements</text></g><!--link EuroCoinCollectionGroup to EuroCoinCollection--><g id="link_EuroCoinCollectionGroup_EuroCoinCollection"><path codeLine="109" d="M173.5,157.38 C173.5,213.41 173.5,298.85 173.5,351.1 " fill="none" id="EuroCoinCollectionGroup-to-EuroCoinCollection" style="stroke:#181818;stroke-width:1.0;"/><polygon fill="#181818" points="173.5,357.1,177.5,348.1,173.5,352.1,169.5,348.1,173.5,357.1" style="stroke:#181818;stroke-width:1.0;"/><rect fill="none" height="6" style="stroke:#C82930;stroke-width:1.0;" width="6" x="176.5" y="242.5553"/><text fill="#000000" font-family="sans-serif" font-size="13" lengthAdjust="spacing" textLength="69" x="186.5" y="249.9684">collections</text><text fill="#000000" font-family="sans-serif" font-size="13" lengthAdjust="spacing" textLength="6" x="167.0219" y="346.9669">*</text></g><!--link EuroCoinBuilder to EuroCoin--><g id="link_EuroCoinBuilder_EuroCoin"><path codeLine="126" d="M686.67,513.03 C639.3,548.12 595.3714,580.6588 560.7014,606.3388 " fill="none" id="EuroCoinBuilder-to-EuroCoin" style="stroke:#181818;stroke-width:1.0;stroke-dasharray:7.0,7.0;"/><polygon fill="#181818" points="555.88,609.91,565.493,607.7674,559.8979,606.934,560.7313,601.3389,555.88,609.91" style="stroke:#181818;stroke-width:1.0;"/><text fill="#000000" font-family="sans-serif" font-size="13" lengthAdjust="spacing" textLength="39" x="645.17" y="556.3384">builds</text></g><!--SRC=[dLNVRzem47xdhx3w0jrAfRrs5P8n1YmI1paE7KyL9MuN2P8g2MnLj_zzTcmd3hzQZQVSVNVdxpxVcIx0DFB3ZaXtMu2o95siDZi1tZj0_WAA7n6c_AQo-4DGMQ4snsI1NPjZsZ8VvFUodJ1kErHv7B6WAQ-iiFEtqz11sIujypT324OXPmJUWCeQOcz28jzOQ3bdKMYC2MO-f4jZuP07j4uBvv1Gypqcr8DqP2q6ASAQpeHXBByrG1XsmWY7dYtj4JwDO5FSYtvWVnX4R68Ta2zgr8SUXxe-nNoAcQfgESy3ngC9z2nDBrXWXxKquQmn8Ntq8ICqC8u5v0H99o9ygK_m0mgHXUKv0MEmrjPFqjA8EfGqQa7yY18qjOVmYFC9PDpOCyYya4LJAyiK-aFPgIhQ1ICS8aRcd0IqizwiYgAwlv4erddoMYPPQexhWrByBi4T2CiyILzqCg4Sip54EEn8OY9_Ngr5bM-Ile8NKPAuTztarUvgOYj4fZRkfLZbnrw7ZrjCacYVYxBDHgnLs3sNOSer-0GNkjgAau0gK5I8bnJbFHyOQ1N72kgjLQztWAk8VPR41ix5DjkBIn6oDi_ArUQC2lKErT11gxRDIPxjNkjURm0oNwuGW_-NG1iA3twb8bUvtrsMzX178zJIo0P87UodOdX6hyz5M-qEZsyfQ2AIirXR-MgSKK3i4k1TdZc3t0T9tDQc3zxafDRPTVpjdu7U08biNpTYAzAoQE1-Vm2klbqvR_OTwE_Ln-aO-v3AgAqyoPYdOzsbbV5nOnx7Lm-9AQfRzpoCr2iGWjuie3E6-VM15etU5rH9vHov2teYsKg4t4i-8PQ3LxI_N3NN8gchpIewPpbMc_5fejgNwI6ltG1qcNWMkKZbqfKPA7yAi2j43fxU01brrTISErWtsVPzqAKEEcorfLA_MOn2NTim8ju8imCHXhja4qkMxyUJgXrxCtdr51g_CsBrEw87JkDnQy8EPiwf8K6_6YozSeLvrXiUQkqEs3QnUZEFE5xCyHlclRDTNApW_iLSxFD37Zr7WlF1JyhgkRYpBVO6Rsy7xinNETN5Hs5zwr7XNFN72_aF]--></g></svg>