<?xml version="1.0" encoding="us-ascii" standalone="no"?><svg xmlns="http://www.w3.org/2000/svg" xmlns:xlink="http://www.w3.org/1999/xlink" contentStyleType="text/css" height="986px" preserveAspectRatio="none" style="width:1284px;height:986px;background:#FFFFFF;" version="1.1" viewBox="0 0 1284 986" width="1284px" zoomAndPan="magnify"><defs/><g><!--class CoinValue--><g id="elem_CoinValue"><rect codeLine="3" fill="#F1F1F1" height="179.9063" id="CoinValue" rx="2.5" ry="2.5" style="stroke:#181818;stroke-width:0.5;" width="125" x="688" y="675.47"/><ellipse cx="713.35" cy="691.47" fill="#EB937F" rx="11" ry="11" style="stroke:#181818;stroke-width:1.0;"/><path d="M716.9643,697.97 L709.2445,697.97 L709.2445,685.5769 L716.9643,685.5769 L716.9643,687.7351 L711.6933,687.7351 L711.6933,690.408 L716.4662,690.408 L716.4662,692.5662 L711.6933,692.5662 L711.6933,695.8118 L716.9643,695.8118 Z " fill="#000000"/><text fill="#000000" font-family="sans-serif" font-size="14" lengthAdjust="spacing" textLength="70" x="729.65" y="696.761">CoinValue</text><line style="stroke:#181818;stroke-width:0.5;" x1="689" x2="812" y1="707.47" y2="707.47"/><text fill="#000000" font-family="sans-serif" font-size="14" lengthAdjust="spacing" textLength="77" x="694" y="725.0052">ONE_CENT,</text><text fill="#000000" font-family="sans-serif" font-size="14" lengthAdjust="spacing" textLength="88" x="694" y="741.4934">TWO_CENTS,</text><text fill="#000000" font-family="sans-serif" font-size="14" lengthAdjust="spacing" textLength="85" x="694" y="757.9817">FIVE_CENTS,</text><text fill="#000000" font-family="sans-serif" font-size="14" lengthAdjust="spacing" textLength="83" x="694" y="774.47">TEN_CENTS,</text><text fill="#000000" font-family="sans-serif" font-size="14" lengthAdjust="spacing" textLength="113" x="694" y="790.9583">TWENTY_CENTS,</text><text fill="#000000" font-family="sans-serif" font-size="14" lengthAdjust="spacing" textLength="94" x="694" y="807.4466">FIFTY_CENTS,</text><text fill="#000000" font-family="sans-serif" font-size="14" lengthAdjust="spacing" textLength="78" x="694" y="823.9348">ONE_EURO,</text><text fill="#000000" font-family="sans-serif" font-size="14" lengthAdjust="spacing" textLength="85" x="694" y="840.4231">TWO_EUROS</text><line style="stroke:#181818;stroke-width:0.5;" x1="689" x2="812" y1="847.3763" y2="847.3763"/></g><!--class CoinCountry--><g id="elem_CoinCountry"><rect codeLine="14" fill="#F1F1F1" height="427.2305" id="CoinCountry" rx="2.5" ry="2.5" style="stroke:#181818;stroke-width:0.5;" width="119" x="848" y="551.81"/><ellipse cx="863" cy="567.81" fill="#EB937F" rx="11" ry="11" style="stroke:#181818;stroke-width:1.0;"/><path d="M866.6143,574.31 L858.8945,574.31 L858.8945,561.9169 L866.6143,561.9169 L866.6143,564.0751 L861.3433,564.0751 L861.3433,566.748 L866.1162,566.748 L866.1162,568.9062 L861.3433,568.9062 L861.3433,572.1518 L866.6143,572.1518 Z " fill="#000000"/><text fill="#000000" font-family="sans-serif" font-size="14" lengthAdjust="spacing" textLength="87" x="877" y="573.101">CoinCountry</text><line style="stroke:#181818;stroke-width:0.5;" x1="849" x2="966" y1="583.81" y2="583.81"/><text fill="#000000" font-family="sans-serif" font-size="14" lengthAdjust="spacing" textLength="64" x="854" y="601.3452">AUSTRIA,</text><text fill="#000000" font-family="sans-serif" font-size="14" lengthAdjust="spacing" textLength="63" x="854" y="617.8334">BELGIUM,</text><text fill="#000000" font-family="sans-serif" font-size="14" lengthAdjust="spacing" textLength="58" x="854" y="634.3217">CYPRUS,</text><text fill="#000000" font-family="sans-serif" font-size="14" lengthAdjust="spacing" textLength="72" x="854" y="650.81">GERMANY,</text><text fill="#000000" font-family="sans-serif" font-size="14" lengthAdjust="spacing" textLength="64" x="854" y="667.2983">ESTONIA,</text><text fill="#000000" font-family="sans-serif" font-size="14" lengthAdjust="spacing" textLength="44" x="854" y="683.7866">SPAIN,</text><text fill="#000000" font-family="sans-serif" font-size="14" lengthAdjust="spacing" textLength="63" x="854" y="700.2748">FINLAND,</text><text fill="#000000" font-family="sans-serif" font-size="14" lengthAdjust="spacing" textLength="59" x="854" y="716.7631">FRANCE,</text><text fill="#000000" font-family="sans-serif" font-size="14" lengthAdjust="spacing" textLength="57" x="854" y="733.2514">GREECE,</text><text fill="#000000" font-family="sans-serif" font-size="14" lengthAdjust="spacing" textLength="62" x="854" y="749.7397">IRELAND,</text><text fill="#000000" font-family="sans-serif" font-size="14" lengthAdjust="spacing" textLength="43" x="854" y="766.228">ITALY,</text><text fill="#000000" font-family="sans-serif" font-size="14" lengthAdjust="spacing" textLength="78" x="854" y="782.7163">LITHUANIA,</text><text fill="#000000" font-family="sans-serif" font-size="14" lengthAdjust="spacing" textLength="98" x="854" y="799.2045">LUXEMBOURG,</text><text fill="#000000" font-family="sans-serif" font-size="14" lengthAdjust="spacing" textLength="53" x="854" y="815.6928">LATVIA,</text><text fill="#000000" font-family="sans-serif" font-size="14" lengthAdjust="spacing" textLength="52" x="854" y="832.1811">MALTA,</text><text fill="#000000" font-family="sans-serif" font-size="14" lengthAdjust="spacing" textLength="103" x="854" y="848.6694">NETHERLANDS,</text><text fill="#000000" font-family="sans-serif" font-size="14" lengthAdjust="spacing" textLength="78" x="854" y="865.1577">PORTUGAL,</text><text fill="#000000" font-family="sans-serif" font-size="14" lengthAdjust="spacing" textLength="71" x="854" y="881.6459">SLOVENIA,</text><text fill="#000000" font-family="sans-serif" font-size="14" lengthAdjust="spacing" textLength="72" x="854" y="898.1342">SLOVAKIA,</text><text fill="#000000" font-family="sans-serif" font-size="14" lengthAdjust="spacing" textLength="95" x="854" y="914.6225">SAN_MARINO,</text><text fill="#000000" font-family="sans-serif" font-size="14" lengthAdjust="spacing" textLength="105" x="854" y="931.1108">VATICAN_CITY,</text><text fill="#000000" font-family="sans-serif" font-size="14" lengthAdjust="spacing" textLength="68" x="854" y="947.5991">MONACO,</text><text fill="#000000" font-family="sans-serif" font-size="14" lengthAdjust="spacing" textLength="69" x="854" y="964.0873">ANDORRA</text><line style="stroke:#181818;stroke-width:0.5;" x1="849" x2="966" y1="971.0405" y2="971.0405"/></g><!--class Mint--><g id="elem_Mint"><rect codeLine="40" fill="#F1F1F1" height="130.4414" id="Mint" rx="2.5" ry="2.5" style="stroke:#181818;stroke-width:0.5;" width="99" x="1002" y="700.2"/><ellipse cx="1033.65" cy="716.2" fill="#EB937F" rx="11" ry="11" style="stroke:#181818;stroke-width:1.0;"/><path d="M1037.2643,722.7 L1029.5445,722.7 L1029.5445,710.3069 L1037.2643,710.3069 L1037.2643,712.4651 L1031.9933,712.4651 L1031.9933,715.138 L1036.7662,715.138 L1036.7662,717.2962 L1031.9933,717.2962 L1031.9933,720.5418 L1037.2643,720.5418 Z " fill="#000000"/><text fill="#000000" font-family="sans-serif" font-size="14" lengthAdjust="spacing" textLength="30" x="1051.35" y="721.491">Mint</text><line style="stroke:#181818;stroke-width:0.5;" x1="1003" x2="1100" y1="732.2" y2="732.2"/><text fill="#000000" font-family="sans-serif" font-size="14" lengthAdjust="spacing" textLength="50" x="1008" y="749.7352">BERLIN,</text><text fill="#000000" font-family="sans-serif" font-size="14" lengthAdjust="spacing" textLength="60" x="1008" y="766.2234">MUNICH,</text><text fill="#000000" font-family="sans-serif" font-size="14" lengthAdjust="spacing" textLength="87" x="1008" y="782.7117">STUTTGART,</text><text fill="#000000" font-family="sans-serif" font-size="14" lengthAdjust="spacing" textLength="84" x="1008" y="799.2">KARLSRUHE,</text><text fill="#000000" font-family="sans-serif" font-size="14" lengthAdjust="spacing" textLength="69" x="1008" y="815.6883">HAMBURG</text><line style="stroke:#181818;stroke-width:0.5;" x1="1003" x2="1100" y1="822.6414" y2="822.6414"/></g><!--class CoinDescription--><g id="elem_CoinDescription"><rect codeLine="49" fill="#F1F1F1" height="64.4883" id="CoinDescription" rx="2.5" ry="2.5" style="stroke:#181818;stroke-width:0.5;" width="142" x="1135.5" y="733.18"/><ellipse cx="1150.5" cy="749.18" fill="#ADD1B2" rx="11" ry="11" style="stroke:#181818;stroke-width:1.0;"/><path d="M1152.9731,755.3231 Q1152.3921,755.6219 1151.7529,755.7713 Q1151.1138,755.9207 1150.4082,755.9207 Q1147.9014,755.9207 1146.5815,754.2689 Q1145.2617,752.617 1145.2617,749.4959 Q1145.2617,746.3665 1146.5815,744.7147 Q1147.9014,743.0628 1150.4082,743.0628 Q1151.1138,743.0628 1151.7612,743.2122 Q1152.4087,743.3616 1152.9731,743.6605 L1152.9731,746.3831 Q1152.3423,745.8021 1151.7488,745.5323 Q1151.1553,745.2625 1150.5244,745.2625 Q1149.1797,745.2625 1148.4949,746.3292 Q1147.8101,747.3958 1147.8101,749.4959 Q1147.8101,751.5877 1148.4949,752.6544 Q1149.1797,753.721 1150.5244,753.721 Q1151.1553,753.721 1151.7488,753.4512 Q1152.3423,753.1815 1152.9731,752.6004 Z " fill="#000000"/><text fill="#000000" font-family="sans-serif" font-size="14" lengthAdjust="spacing" textLength="110" x="1164.5" y="754.471">CoinDescription</text><line style="stroke:#181818;stroke-width:0.5;" x1="1136.5" x2="1276.5" y1="765.18" y2="765.18"/><rect fill="none" height="6" style="stroke:#C82930;stroke-width:1.0;" width="6" x="1143.5" y="775.9241"/><text fill="#000000" font-family="sans-serif" font-size="14" lengthAdjust="spacing" textLength="80" x="1155.5" y="782.7152">text : String</text><line style="stroke:#181818;stroke-width:0.5;" x1="1136.5" x2="1276.5" y1="789.6683" y2="789.6683"/></g><!--class CoinComponent--><g id="elem_CoinComponent"><rect codeLine="54" fill="#F1F1F1" height="80.9766" id="CoinComponent" rx="2.5" ry="2.5" style="stroke:#181818;stroke-width:0.5;" width="189" x="464" y="724.94"/><ellipse cx="498.8" cy="740.94" fill="#B4A7E5" rx="11" ry="11" style="stroke:#181818;stroke-width:1.0;"/><path d="M495.2277,737.2051 L495.2277,735.0469 L502.6071,735.0469 L502.6071,737.2051 L500.1418,737.2051 L500.1418,745.2818 L502.6071,745.2818 L502.6071,747.44 L495.2277,747.44 L495.2277,745.2818 L497.6931,745.2818 L497.6931,737.2051 Z " fill="#000000"/><text fill="#000000" font-family="sans-serif" font-size="14" font-style="italic" lengthAdjust="spacing" textLength="113" x="517.2" y="746.231">CoinComponent</text><line style="stroke:#181818;stroke-width:0.5;" x1="465" x2="652" y1="756.94" y2="756.94"/><line style="stroke:#181818;stroke-width:0.5;" x1="465" x2="652" y1="764.94" y2="764.94"/><ellipse cx="475" cy="778.6841" fill="#84BE84" rx="3" ry="3" style="stroke:#038048;stroke-width:1.0;"/><text fill="#000000" font-family="sans-serif" font-size="14" lengthAdjust="spacing" textLength="163" x="484" y="782.4752">getDescription() : String</text><ellipse cx="475" cy="795.1724" fill="#84BE84" rx="3" ry="3" style="stroke:#038048;stroke-width:1.0;"/><text fill="#000000" font-family="sans-serif" font-size="14" lengthAdjust="spacing" textLength="155" x="484" y="798.9634">isComplete() : boolean</text></g><!--class CoinCollectionComponent--><g id="elem_CoinCollectionComponent"><rect codeLine="59" fill="#F1F1F1" height="97.4648" id="CoinCollectionComponent" rx="2.5" ry="2.5" style="stroke:#181818;stroke-width:0.5;" width="287" x="250" y="424.34"/><ellipse cx="298.25" cy="440.34" fill="#B4A7E5" rx="11" ry="11" style="stroke:#181818;stroke-width:1.0;"/><path d="M294.6777,436.6051 L294.6777,434.4469 L302.0571,434.4469 L302.0571,436.6051 L299.5918,436.6051 L299.5918,444.6818 L302.0571,444.6818 L302.0571,446.84 L294.6777,446.84 L294.6777,444.6818 L297.1431,444.6818 L297.1431,436.6051 Z " fill="#000000"/><text fill="#000000" font-family="sans-serif" font-size="14" font-style="italic" lengthAdjust="spacing" textLength="182" x="318.75" y="445.631">CoinCollectionComponent</text><line style="stroke:#181818;stroke-width:0.5;" x1="251" x2="536" y1="456.34" y2="456.34"/><line style="stroke:#181818;stroke-width:0.5;" x1="251" x2="536" y1="464.34" y2="464.34"/><ellipse cx="261" cy="478.0841" fill="#84BE84" rx="3" ry="3" style="stroke:#038048;stroke-width:1.0;"/><text fill="#000000" font-family="sans-serif" font-size="14" lengthAdjust="spacing" textLength="209" x="270" y="481.8752">add(c : CoinComponent) : void</text><ellipse cx="261" cy="494.5724" fill="#84BE84" rx="3" ry="3" style="stroke:#038048;stroke-width:1.0;"/><text fill="#000000" font-family="sans-serif" font-size="14" lengthAdjust="spacing" textLength="234" x="270" y="498.3634">remove(c : CoinComponent) : void</text><ellipse cx="261" cy="511.0607" fill="#84BE84" rx="3" ry="3" style="stroke:#038048;stroke-width:1.0;"/><text fill="#000000" font-family="sans-serif" font-size="14" lengthAdjust="spacing" textLength="261" x="270" y="514.8517">getChildren() : List&lt;CoinComponent&gt;</text></g><!--class EuroCoin--><g id="elem_EuroCoin"><rect codeLine="68" fill="#F1F1F1" height="80.9766" id="EuroCoin" rx="2.5" ry="2.5" style="stroke:#181818;stroke-width:0.5;" width="96" x="859.5" y="313.37"/><ellipse cx="874.5" cy="329.37" fill="#ADD1B2" rx="11" ry="11" style="stroke:#181818;stroke-width:1.0;"/><path d="M876.9731,335.5131 Q876.3921,335.8119 875.7529,335.9613 Q875.1138,336.1107 874.4082,336.1107 Q871.9014,336.1107 870.5815,334.4589 Q869.2617,332.807 869.2617,329.6859 Q869.2617,326.5565 870.5815,324.9047 Q871.9014,323.2528 874.4082,323.2528 Q875.1138,323.2528 875.7612,323.4022 Q876.4087,323.5516 876.9731,323.8505 L876.9731,326.5731 Q876.3423,325.9921 875.7488,325.7223 Q875.1553,325.4525 874.5244,325.4525 Q873.1797,325.4525 872.4949,326.5192 Q871.8101,327.5858 871.8101,329.6859 Q871.8101,331.7777 872.4949,332.8444 Q873.1797,333.911 874.5244,333.911 Q875.1553,333.911 875.7488,333.6412 Q876.3423,333.3715 876.9731,332.7904 Z " fill="#000000"/><text fill="#000000" font-family="sans-serif" font-size="14" lengthAdjust="spacing" textLength="64" x="888.5" y="334.661">EuroCoin</text><line style="stroke:#181818;stroke-width:0.5;" x1="860.5" x2="954.5" y1="345.37" y2="345.37"/><rect fill="none" height="6" style="stroke:#C82930;stroke-width:1.0;" width="6" x="867.5" y="356.1141"/><text fill="#000000" font-family="sans-serif" font-size="14" lengthAdjust="spacing" textLength="66" x="879.5" y="362.9052">id : String</text><rect fill="none" height="6" style="stroke:#C82930;stroke-width:1.0;" width="6" x="867.5" y="372.6024"/><text fill="#000000" font-family="sans-serif" font-size="14" lengthAdjust="spacing" textLength="59" x="879.5" y="379.3934">year : int</text><line style="stroke:#181818;stroke-width:0.5;" x1="860.5" x2="954.5" y1="386.3466" y2="386.3466"/></g><!--class EuroCoinBuilder--><g id="elem_EuroCoinBuilder"><rect codeLine="80" fill="#F1F1F1" height="229.3711" id="EuroCoinBuilder" rx="2.5" ry="2.5" style="stroke:#181818;stroke-width:0.5;" width="457" x="679" y="7"/><ellipse cx="847.25" cy="23" fill="#ADD1B2" rx="11" ry="11" style="stroke:#181818;stroke-width:1.0;"/><path d="M849.7231,29.1431 Q849.1421,29.4419 848.5029,29.5913 Q847.8638,29.7407 847.1582,29.7407 Q844.6514,29.7407 843.3315,28.0889 Q842.0117,26.437 842.0117,23.3159 Q842.0117,20.1865 843.3315,18.5347 Q844.6514,16.8828 847.1582,16.8828 Q847.8638,16.8828 848.5112,17.0322 Q849.1587,17.1816 849.7231,17.4805 L849.7231,20.2031 Q849.0923,19.6221 848.4988,19.3523 Q847.9053,19.0825 847.2744,19.0825 Q845.9297,19.0825 845.2449,20.1492 Q844.5601,21.2158 844.5601,23.3159 Q844.5601,25.4077 845.2449,26.4744 Q845.9297,27.541 847.2744,27.541 Q847.9053,27.541 848.4988,27.2712 Q849.0923,27.0015 849.7231,26.4204 Z " fill="#000000"/><text fill="#000000" font-family="sans-serif" font-size="14" lengthAdjust="spacing" textLength="112" x="867.75" y="28.291">EuroCoinBuilder</text><line style="stroke:#181818;stroke-width:0.5;" x1="680" x2="1135" y1="39" y2="39"/><rect fill="none" height="6" style="stroke:#C82930;stroke-width:1.0;" width="6" x="687" y="49.7441"/><text fill="#000000" font-family="sans-serif" font-size="14" lengthAdjust="spacing" textLength="59" x="699" y="56.5352">year : int</text><rect fill="none" height="6" style="stroke:#C82930;stroke-width:1.0;" width="6" x="687" y="66.2324"/><text fill="#000000" font-family="sans-serif" font-size="14" lengthAdjust="spacing" textLength="118" x="699" y="73.0234">value : CoinValue</text><rect fill="none" height="6" style="stroke:#C82930;stroke-width:1.0;" width="6" x="687" y="82.7207"/><text fill="#000000" font-family="sans-serif" font-size="14" lengthAdjust="spacing" textLength="185" x="699" y="89.5117">mintCountry : CoinCountry</text><rect fill="none" height="6" style="stroke:#C82930;stroke-width:1.0;" width="6" x="687" y="99.209"/><text fill="#000000" font-family="sans-serif" font-size="14" lengthAdjust="spacing" textLength="199" x="699" y="106">description : CoinDescription</text><rect fill="none" height="6" style="stroke:#C82930;stroke-width:1.0;" width="6" x="687" y="115.6973"/><text fill="#000000" font-family="sans-serif" font-size="14" lengthAdjust="spacing" textLength="73" x="699" y="122.4883">mint : Mint</text><line style="stroke:#181818;stroke-width:0.5;" x1="680" x2="1135" y1="129.4414" y2="129.4414"/><ellipse cx="690" cy="143.1855" fill="#84BE84" rx="3" ry="3" style="stroke:#038048;stroke-width:1.0;"/><text fill="#000000" font-family="sans-serif" font-size="14" lengthAdjust="spacing" textLength="244" x="699" y="146.9766">setYear(year : int) : EuroCoinBuilder</text><ellipse cx="690" cy="159.6738" fill="#84BE84" rx="3" ry="3" style="stroke:#038048;stroke-width:1.0;"/><text fill="#000000" font-family="sans-serif" font-size="14" lengthAdjust="spacing" textLength="310" x="699" y="163.4648">setValue(value : CoinValue) : EuroCoinBuilder</text><ellipse cx="690" cy="176.1621" fill="#84BE84" rx="3" ry="3" style="stroke:#038048;stroke-width:1.0;"/><text fill="#000000" font-family="sans-serif" font-size="14" lengthAdjust="spacing" textLength="424" x="699" y="179.9531">setMintCountry(mintCountry : CoinCountry) : EuroCoinBuilder</text><ellipse cx="690" cy="192.6504" fill="#84BE84" rx="3" ry="3" style="stroke:#038048;stroke-width:1.0;"/><text fill="#000000" font-family="sans-serif" font-size="14" lengthAdjust="spacing" textLength="431" x="699" y="196.4414">setDescription(description : CoinDescription) : EuroCoinBuilder</text><ellipse cx="690" cy="209.1387" fill="#84BE84" rx="3" ry="3" style="stroke:#038048;stroke-width:1.0;"/><text fill="#000000" font-family="sans-serif" font-size="14" lengthAdjust="spacing" textLength="257" x="699" y="212.9297">setMint(mint : Mint) : EuroCoinBuilder</text><ellipse cx="690" cy="225.627" fill="#84BE84" rx="3" ry="3" style="stroke:#038048;stroke-width:1.0;"/><text fill="#000000" font-family="sans-serif" font-size="14" lengthAdjust="spacing" textLength="121" x="699" y="229.418">build() : EuroCoin</text></g><!--class User--><g id="elem_User"><rect codeLine="98" fill="#F1F1F1" height="80.9766" id="User" rx="2.5" ry="2.5" style="stroke:#181818;stroke-width:0.5;" width="117" x="7" y="81.19"/><ellipse cx="46.3" cy="97.19" fill="#ADD1B2" rx="11" ry="11" style="stroke:#181818;stroke-width:1.0;"/><path d="M48.7731,103.3331 Q48.1921,103.6319 47.5529,103.7813 Q46.9138,103.9307 46.2082,103.9307 Q43.7014,103.9307 42.3815,102.2789 Q41.0617,100.627 41.0617,97.5059 Q41.0617,94.3765 42.3815,92.7247 Q43.7014,91.0728 46.2082,91.0728 Q46.9138,91.0728 47.5612,91.2222 Q48.2087,91.3716 48.7731,91.6705 L48.7731,94.3931 Q48.1423,93.8121 47.5488,93.5423 Q46.9553,93.2725 46.3244,93.2725 Q44.9797,93.2725 44.2949,94.3392 Q43.6101,95.4058 43.6101,97.5059 Q43.6101,99.5977 44.2949,100.6644 Q44.9797,101.731 46.3244,101.731 Q46.9553,101.731 47.5488,101.4612 Q48.1423,101.1915 48.7731,100.6104 Z " fill="#000000"/><text fill="#000000" font-family="sans-serif" font-size="14" lengthAdjust="spacing" textLength="31" x="65.7" y="102.481">User</text><line style="stroke:#181818;stroke-width:0.5;" x1="8" x2="123" y1="113.19" y2="113.19"/><rect fill="none" height="6" style="stroke:#C82930;stroke-width:1.0;" width="6" x="15" y="123.9341"/><text fill="#000000" font-family="sans-serif" font-size="14" lengthAdjust="spacing" textLength="66" x="27" y="130.7252">id : String</text><rect fill="none" height="6" style="stroke:#C82930;stroke-width:1.0;" width="6" x="15" y="140.4224"/><text fill="#000000" font-family="sans-serif" font-size="14" lengthAdjust="spacing" textLength="91" x="27" y="147.2134">name : String</text><line style="stroke:#181818;stroke-width:0.5;" x1="8" x2="123" y1="154.1666" y2="154.1666"/></g><!--class EuroCoinCollection--><g id="elem_EuroCoinCollection"><rect codeLine="103" fill="#F1F1F1" height="97.4648" id="EuroCoinCollection" rx="2.5" ry="2.5" style="stroke:#181818;stroke-width:0.5;" width="184" x="397.5" y="72.95"/><ellipse cx="421.05" cy="88.95" fill="#ADD1B2" rx="11" ry="11" style="stroke:#181818;stroke-width:1.0;"/><path d="M423.5231,95.0931 Q422.9421,95.3919 422.3029,95.5413 Q421.6638,95.6907 420.9582,95.6907 Q418.4514,95.6907 417.1315,94.0389 Q415.8117,92.387 415.8117,89.2659 Q415.8117,86.1365 417.1315,84.4847 Q418.4514,82.8328 420.9582,82.8328 Q421.6638,82.8328 422.3112,82.9822 Q422.9587,83.1316 423.5231,83.4305 L423.5231,86.1531 Q422.8923,85.5721 422.2988,85.3023 Q421.7053,85.0325 421.0744,85.0325 Q419.7297,85.0325 419.0449,86.0992 Q418.3601,87.1658 418.3601,89.2659 Q418.3601,91.3577 419.0449,92.4244 Q419.7297,93.491 421.0744,93.491 Q421.7053,93.491 422.2988,93.2212 Q422.8923,92.9515 423.5231,92.3704 Z " fill="#000000"/><text fill="#000000" font-family="sans-serif" font-size="14" lengthAdjust="spacing" textLength="133" x="436.95" y="94.241">EuroCoinCollection</text><line style="stroke:#181818;stroke-width:0.5;" x1="398.5" x2="580.5" y1="104.95" y2="104.95"/><rect fill="none" height="6" style="stroke:#C82930;stroke-width:1.0;" width="6" x="405.5" y="115.6941"/><text fill="#000000" font-family="sans-serif" font-size="14" lengthAdjust="spacing" textLength="66" x="417.5" y="122.4852">id : String</text><rect fill="none" height="6" style="stroke:#C82930;stroke-width:1.0;" width="6" x="405.5" y="132.1824"/><text fill="#000000" font-family="sans-serif" font-size="14" lengthAdjust="spacing" textLength="158" x="417.5" y="138.9734">collectionName : String</text><rect fill="none" height="6" style="stroke:#C82930;stroke-width:1.0;" width="6" x="405.5" y="148.6707"/><text fill="#000000" font-family="sans-serif" font-size="14" lengthAdjust="spacing" textLength="145" x="417.5" y="155.4617">isComplete : boolean</text><line style="stroke:#181818;stroke-width:0.5;" x1="398.5" x2="580.5" y1="162.4148" y2="162.4148"/></g><!--link CoinCollectionComponent to CoinComponent--><g id="link_CoinCollectionComponent_CoinComponent"><path codeLine="65" d="M420.75,522.02 C452.97,578.72 497.0953,656.3812 527.0953,709.1612 " fill="none" id="CoinCollectionComponent-to-CoinComponent" style="stroke:#181818;stroke-width:1.0;stroke-dasharray:7.0,7.0;"/><polygon fill="none" points="535.99,724.81,532.3115,706.1963,521.879,712.1261,535.99,724.81" style="stroke:#181818;stroke-width:1.0;"/><text fill="#000000" font-family="sans-serif" font-size="13" lengthAdjust="spacing" textLength="50" x="428.2" y="621.4584">extends</text></g><!--link EuroCoin to CoinValue--><g id="link_EuroCoin_CoinValue"><path codeLine="73" d="M871.89,394.6 C864.76,403.91 857.83,414.11 852.5,424.34 C810.69,504.56 784.6054,598.7037 768.8354,669.4537 " fill="none" id="EuroCoin-to-CoinValue" style="stroke:#181818;stroke-width:1.0;"/><polygon fill="#181818" points="767.53,675.31,773.3922,667.3958,768.6178,670.4298,765.5838,665.6553,767.53,675.31" style="stroke:#181818;stroke-width:1.0;"/><rect fill="none" height="6" style="stroke:#C82930;stroke-width:1.0;" width="6" x="855.5" y="470.7353"/><text fill="#000000" font-family="sans-serif" font-size="13" lengthAdjust="spacing" textLength="33" x="865.5" y="478.1484">value</text><text fill="#000000" font-family="sans-serif" font-size="13" lengthAdjust="spacing" textLength="8" x="760.609" y="664.8076">1</text></g><!--link EuroCoin to CoinCountry--><g id="link_EuroCoin_CoinCountry"><path codeLine="74" d="M907.5,394.5 C907.5,431.94 907.5,485.19 907.5,545.39 " fill="none" id="EuroCoin-to-CoinCountry" style="stroke:#181818;stroke-width:1.0;"/><polygon fill="#181818" points="907.5,551.39,911.5,542.39,907.5,546.39,903.5,542.39,907.5,551.39" style="stroke:#181818;stroke-width:1.0;"/><rect fill="none" height="6" style="stroke:#C82930;stroke-width:1.0;" width="6" x="910.5" y="470.7353"/><text fill="#000000" font-family="sans-serif" font-size="13" lengthAdjust="spacing" textLength="79" x="920.5" y="478.1484">mintCountry</text><text fill="#000000" font-family="sans-serif" font-size="13" lengthAdjust="spacing" textLength="8" x="899.3563" y="541.0025">1</text></g><!--link EuroCoin to CoinDescription--><g id="link_EuroCoin_CoinDescription"><path codeLine="75" d="M955.83,360.67 C998.37,368.27 1059.19,385.53 1096.5,424.34 C1181.32,512.59 1200.3379,660.7635 1204.7779,726.8735 " fill="none" id="EuroCoin-to-CoinDescription" style="stroke:#181818;stroke-width:1.0;"/><polygon fill="#181818" points="1205.18,732.86,1208.5679,723.6122,1204.845,727.8712,1200.5859,724.1483,1205.18,732.86" style="stroke:#181818;stroke-width:1.0;"/><rect fill="none" height="6" style="stroke:#C82930;stroke-width:1.0;" width="6" x="1161.25" y="470.7353"/><text fill="#000000" font-family="sans-serif" font-size="13" lengthAdjust="spacing" textLength="71" x="1171.25" y="478.1484">description</text><text fill="#000000" font-family="sans-serif" font-size="13" lengthAdjust="spacing" textLength="8" x="1196.0828" y="722.1972">1</text></g><!--link EuroCoin to Mint--><g id="link_EuroCoin_Mint"><path codeLine="76" d="M955.91,376.91 C975.41,388.28 996.16,404.08 1008.5,424.34 C1060.04,508.98 1063.0854,621.3911 1058.6654,693.8311 " fill="none" id="EuroCoin-to-Mint" style="stroke:#181818;stroke-width:1.0;"/><polygon fill="#181818" points="1058.3,699.82,1062.8407,691.0803,1058.6045,694.8293,1054.8555,690.5931,1058.3,699.82" style="stroke:#181818;stroke-width:1.0;"/><rect fill="none" height="6" style="stroke:#C82930;stroke-width:1.0;" width="6" x="1048.65" y="470.7353"/><text fill="#000000" font-family="sans-serif" font-size="13" lengthAdjust="spacing" textLength="29" x="1058.65" y="478.1484">mint</text><text fill="#000000" font-family="sans-serif" font-size="13" lengthAdjust="spacing" textLength="8" x="1050.6063" y="689.41">1</text></g><!--link EuroCoin to CoinComponent--><g id="link_EuroCoin_CoinComponent"><path codeLine="77" d="M859.15,385.51 C841.8,397.1 822.36,410.78 805.5,424.34 C741.2,476.06 720.4,486.09 670.5,551.81 C628.62,606.97 601.0837,663.4596 581.8937,707.9896 " fill="none" id="EuroCoin-to-CoinComponent" style="stroke:#181818;stroke-width:1.0;stroke-dasharray:7.0,7.0;"/><polygon fill="none" points="574.77,724.52,587.4038,710.3642,576.3836,705.6151,574.77,724.52" style="stroke:#181818;stroke-width:1.0;"/></g><!--link EuroCoinBuilder to EuroCoin--><g id="link_EuroCoinBuilder_EuroCoin"><path codeLine="95" d="M907.5,236.76 C907.5,264.11 907.5,285.55 907.5,306.87 " fill="none" id="EuroCoinBuilder-to-EuroCoin" style="stroke:#181818;stroke-width:1.0;stroke-dasharray:7.0,7.0;"/><polygon fill="#181818" points="907.5,312.87,911.5,303.87,907.5,307.87,903.5,303.87,907.5,312.87" style="stroke:#181818;stroke-width:1.0;"/><text fill="#000000" font-family="sans-serif" font-size="13" lengthAdjust="spacing" textLength="39" x="908.5" y="279.9384">builds</text></g><!--link EuroCoinCollection to CoinCollectionComponent--><g id="link_EuroCoinCollection_CoinCollectionComponent"><path codeLine="109" d="M476.25,170.9 C457.92,237.64 429.7572,340.0928 411.4572,406.7228 " fill="none" id="EuroCoinCollection-to-CoinCollectionComponent" style="stroke:#181818;stroke-width:1.0;stroke-dasharray:7.0,7.0;"/><polygon fill="none" points="406.69,424.08,417.2429,408.3118,405.6714,405.1337,406.69,424.08" style="stroke:#181818;stroke-width:1.0;"/><text fill="#000000" font-family="sans-serif" font-size="13" lengthAdjust="spacing" textLength="74" x="450.69" y="279.9384">implements</text></g><!--link User to EuroCoinCollection--><g id="link_User_EuroCoinCollection"><path codeLine="110" d="M124.46,121.68 C195.11,121.68 308.32,121.68 391.21,121.68 " fill="none" id="User-to-EuroCoinCollection" style="stroke:#181818;stroke-width:1.0;"/><polygon fill="#181818" points="397.21,121.68,388.21,117.68,392.21,121.68,388.21,125.68,397.21,121.68" style="stroke:#181818;stroke-width:1.0;"/><text fill="#000000" font-family="sans-serif" font-size="13" lengthAdjust="spacing" textLength="237" x="142.25" y="115.2484">List&lt;EuroCoinCollection&gt; collections</text><text fill="#000000" font-family="sans-serif" font-size="13" lengthAdjust="spacing" textLength="8" x="132.1332" y="118.3534">1</text><text fill="#000000" font-family="sans-serif" font-size="13" lengthAdjust="spacing" textLength="22" x="367.6246" y="134.8104">0..*</text></g><!--link EuroCoinCollection to CoinComponent--><g id="link_EuroCoinCollection_CoinComponent"><path codeLine="111" d="M507.51,170.83 C516.99,198.4 527.8,233.86 533.5,266.37 C563.04,434.79 562.0263,633.7818 559.9563,718.6718 " fill="none" id="EuroCoinCollection-to-CoinComponent" style="stroke:#181818;stroke-width:1.0;"/><polygon fill="#181818" points="559.81,724.67,564.0282,715.7702,559.9319,719.6715,556.0306,715.5752,559.81,724.67" style="stroke:#181818;stroke-width:1.0;"/><rect fill="none" height="6" style="stroke:#C82930;stroke-width:1.0;" width="6" x="552.4" y="351.5153"/><text fill="#000000" font-family="sans-serif" font-size="13" lengthAdjust="spacing" textLength="249" x="562.4" y="358.9284">collectedItems : List&lt;CoinComponent&gt;</text><text fill="#000000" font-family="sans-serif" font-size="13" lengthAdjust="spacing" textLength="8" x="501.3926" y="191.0312">1</text><text fill="#000000" font-family="sans-serif" font-size="13" lengthAdjust="spacing" textLength="22" x="536.2051" y="714.2713">0..*</text></g><!--SRC=[XLHDZvim4BtpAwmzT6cxYTfhL4LoY9DO2oOoThOvhTZWRf7uM069MhNzxxN1W0b9bXFFC_FcpNWyzm0HxWMMo8ufSF8usuN9KO0_5f2VJz2pWmXxg15xyciKD725TyZ43941V9B_-s70QdYWw16dVa-lK63zitevJdxCgkAt5WHvm2Y63w162-IkCVSqSlPRoWCDreXwaEmrGW7pIHSMR24c-d-5YGl9iaKK4WSrSjOK8VdV6315XXjcq6sfNSms7FRaBl-El8NFwRezW6pNMJteCjZm4yGsY2hMLlFMfuoleTlATFqTCbHB21zx2Ccp1oaclZxOGOOTUUXWjcyoU3w1JckMUNnAOTTRByugtTI5bD4rnEC4Evis2UEChI5b6Zz2wWQKRzgsRA2ta9KgqdkmH853yPPXdrY792pB-lwMeZmKyLiLvvbEDm6L-5M16GYg8ivUcs1C6A8hwA30ai94yICy27t_wLkUYKxiP_0gAeFK_jWpDVQuL369g4HjUydpH8IPIdFEd2JYe3Z6ES8eiWyoUA10iPtoED8-XKZpatZNJSfrViP9L8X6gnkNrRT1m5nfkwPe-dT-reSPaEqJMLIglZa-RhkDZaMkFBisnz6mDHFmMuI5F9DzK2cxWCba3kw-tXdFVmOc9_LpsQTzaz8hbLmQNlOrxr_wHpqS-zSpgKbxwtJK0bNuWcDtYUXPxOkZxBGekXOO1JS79rrULwe-D-hexhEfgh57WpBE2ZCufD5hi-a1A4MrbpBiNeiQWpF5lM-joXxfl1dZzUhjgvNSP31VrCrQtzLX6ssuxloYa6tQpObiht4wdVTZFMk2wh7d0QBWWvn-rqMEiN5uQLp-UFwpC1M3nJESdlxztU0uT4vamARzk-KpN3qNKXXpFNxsSauKJIh_IwkkIZqGzKw-JAUVxYv9rgjbR9aRcijBIchgIKz-lc-weaM4Av6MLxROVm00]--></g></svg>