<?xml version="1.0" encoding="us-ascii" standalone="no"?><svg xmlns="http://www.w3.org/2000/svg" xmlns:xlink="http://www.w3.org/1999/xlink" contentStyleType="text/css" height="318px" preserveAspectRatio="none" style="width:2849px;height:318px;background:#FFFFFF;" version="1.1" viewBox="0 0 2849 318" width="2849px" zoomAndPan="magnify"><defs/><g><!--class EuroCoinStorageRepository--><g id="elem_EuroCoinStorageRepository"><rect codeLine="2" fill="#F1F1F1" height="146.9297" id="EuroCoinStorageRepository" rx="2.5" ry="2.5" style="stroke:#181818;stroke-width:0.5;" width="590" x="7" y="7"/><ellipse cx="202.75" cy="23" fill="#B4A7E5" rx="11" ry="11" style="stroke:#181818;stroke-width:1.0;"/><path d="M199.1777,19.2651 L199.1777,17.1069 L206.5571,17.1069 L206.5571,19.2651 L204.0918,19.2651 L204.0918,27.3418 L206.5571,27.3418 L206.5571,29.5 L199.1777,29.5 L199.1777,27.3418 L201.6431,27.3418 L201.6431,19.2651 Z " fill="#000000"/><text fill="#000000" font-family="sans-serif" font-size="14" font-style="italic" lengthAdjust="spacing" textLength="190" x="223.25" y="28.291">EuroCoinStorageRepository</text><line style="stroke:#181818;stroke-width:0.5;" x1="8" x2="596" y1="39" y2="39"/><line style="stroke:#181818;stroke-width:0.5;" x1="8" x2="596" y1="47" y2="47"/><ellipse cx="18" cy="60.7441" fill="#84BE84" rx="3" ry="3" style="stroke:#038048;stroke-width:1.0;"/><text fill="#000000" font-family="sans-serif" font-size="14" lengthAdjust="spacing" textLength="498" x="27" y="64.5352">void create(Connection connection, EuroCoin coin) throws SQLException</text><ellipse cx="18" cy="77.2324" fill="#84BE84" rx="3" ry="3" style="stroke:#038048;stroke-width:1.0;"/><text fill="#000000" font-family="sans-serif" font-size="14" lengthAdjust="spacing" textLength="564" x="27" y="81.0234">Optional&lt;EuroCoin&gt; read(Connection connection, String id) throws SQLException</text><ellipse cx="18" cy="93.7207" fill="#84BE84" rx="3" ry="3" style="stroke:#038048;stroke-width:1.0;"/><text fill="#000000" font-family="sans-serif" font-size="14" lengthAdjust="spacing" textLength="504" x="27" y="97.5117">void update(Connection connection, EuroCoin coin) throws SQLException</text><ellipse cx="18" cy="110.209" fill="#84BE84" rx="3" ry="3" style="stroke:#038048;stroke-width:1.0;"/><text fill="#000000" font-family="sans-serif" font-size="14" lengthAdjust="spacing" textLength="459" x="27" y="114">void delete(Connection connection, String id) throws SQLException</text><ellipse cx="18" cy="126.6973" fill="#84BE84" rx="3" ry="3" style="stroke:#038048;stroke-width:1.0;"/><text fill="#000000" font-family="sans-serif" font-size="14" lengthAdjust="spacing" textLength="479" x="27" y="130.4883">List&lt;EuroCoin&gt; getAll(Connection connection, ) throws SQLException</text><ellipse cx="18" cy="143.1855" fill="#84BE84" rx="3" ry="3" style="stroke:#038048;stroke-width:1.0;"/><text fill="#000000" font-family="sans-serif" font-size="14" lengthAdjust="spacing" textLength="484" x="27" y="146.9766">boolean exists(Connection connection, String id) throws SQLException</text></g><!--class EuroCoinCollectionStorageRepository--><g id="elem_EuroCoinCollectionStorageRepository"><rect codeLine="11" fill="#F1F1F1" height="146.9297" id="EuroCoinCollectionStorageRepository" rx="2.5" ry="2.5" style="stroke:#181818;stroke-width:0.5;" width="656" x="632" y="7"/><ellipse cx="826.25" cy="23" fill="#B4A7E5" rx="11" ry="11" style="stroke:#181818;stroke-width:1.0;"/><path d="M822.6777,19.2651 L822.6777,17.1069 L830.0571,17.1069 L830.0571,19.2651 L827.5918,19.2651 L827.5918,27.3418 L830.0571,27.3418 L830.0571,29.5 L822.6777,29.5 L822.6777,27.3418 L825.1431,27.3418 L825.1431,19.2651 Z " fill="#000000"/><text fill="#000000" font-family="sans-serif" font-size="14" font-style="italic" lengthAdjust="spacing" textLength="259" x="846.75" y="28.291">EuroCoinCollectionStorageRepository</text><line style="stroke:#181818;stroke-width:0.5;" x1="633" x2="1287" y1="39" y2="39"/><line style="stroke:#181818;stroke-width:0.5;" x1="633" x2="1287" y1="47" y2="47"/><ellipse cx="643" cy="60.7441" fill="#84BE84" rx="3" ry="3" style="stroke:#038048;stroke-width:1.0;"/><text fill="#000000" font-family="sans-serif" font-size="14" lengthAdjust="spacing" textLength="601" x="652" y="64.5352">void create(Connection connection, EuroCoinCollection collection) throws SQlException</text><ellipse cx="643" cy="77.2324" fill="#84BE84" rx="3" ry="3" style="stroke:#038048;stroke-width:1.0;"/><text fill="#000000" font-family="sans-serif" font-size="14" lengthAdjust="spacing" textLength="630" x="652" y="81.0234">Optional&lt;EuroCoinCollection&gt; read(Connection connection, String id) throws SQlException</text><ellipse cx="643" cy="93.7207" fill="#84BE84" rx="3" ry="3" style="stroke:#038048;stroke-width:1.0;"/><text fill="#000000" font-family="sans-serif" font-size="14" lengthAdjust="spacing" textLength="607" x="652" y="97.5117">void update(Connection connection, EuroCoinCollection collection) throws SQlException</text><ellipse cx="643" cy="110.209" fill="#84BE84" rx="3" ry="3" style="stroke:#038048;stroke-width:1.0;"/><text fill="#000000" font-family="sans-serif" font-size="14" lengthAdjust="spacing" textLength="456" x="652" y="114">void delete(Connection connection, String id) throws SQlException</text><ellipse cx="643" cy="126.6973" fill="#84BE84" rx="3" ry="3" style="stroke:#038048;stroke-width:1.0;"/><text fill="#000000" font-family="sans-serif" font-size="14" lengthAdjust="spacing" textLength="545" x="652" y="130.4883">List&lt;EuroCoinCollection&gt; getAll(Connection connection, ) throws SQlException</text><ellipse cx="643" cy="143.1855" fill="#84BE84" rx="3" ry="3" style="stroke:#038048;stroke-width:1.0;"/><text fill="#000000" font-family="sans-serif" font-size="14" lengthAdjust="spacing" textLength="481" x="652" y="146.9766">boolean exists(Connection connection, String id) throws SQlException</text></g><!--class EuroCoinCollectionGroupStorageRepository--><g id="elem_EuroCoinCollectionGroupStorageRepository"><rect codeLine="20" fill="#F1F1F1" height="146.9297" id="EuroCoinCollectionGroupStorageRepository" rx="2.5" ry="2.5" style="stroke:#181818;stroke-width:0.5;" width="751" x="1323.5" y="7"/><ellipse cx="1543.75" cy="23" fill="#B4A7E5" rx="11" ry="11" style="stroke:#181818;stroke-width:1.0;"/><path d="M1540.1777,19.2651 L1540.1777,17.1069 L1547.5571,17.1069 L1547.5571,19.2651 L1545.0918,19.2651 L1545.0918,27.3418 L1547.5571,27.3418 L1547.5571,29.5 L1540.1777,29.5 L1540.1777,27.3418 L1542.6431,27.3418 L1542.6431,19.2651 Z " fill="#000000"/><text fill="#000000" font-family="sans-serif" font-size="14" font-style="italic" lengthAdjust="spacing" textLength="302" x="1564.25" y="28.291">EuroCoinCollectionGroupStorageRepository</text><line style="stroke:#181818;stroke-width:0.5;" x1="1324.5" x2="2073.5" y1="39" y2="39"/><line style="stroke:#181818;stroke-width:0.5;" x1="1324.5" x2="2073.5" y1="47" y2="47"/><ellipse cx="1334.5" cy="60.7441" fill="#84BE84" rx="3" ry="3" style="stroke:#038048;stroke-width:1.0;"/><text fill="#000000" font-family="sans-serif" font-size="14" lengthAdjust="spacing" textLength="623" x="1343.5" y="64.5352">void create(Connection connection, EuroCoinCollectionGroup group) throws SQLException</text><ellipse cx="1334.5" cy="77.2324" fill="#84BE84" rx="3" ry="3" style="stroke:#038048;stroke-width:1.0;"/><text fill="#000000" font-family="sans-serif" font-size="14" lengthAdjust="spacing" textLength="676" x="1343.5" y="81.0234">Optional&lt;EuroCoinCollectionGroup&gt; read(Connection connection, String id) throws SQLException</text><ellipse cx="1334.5" cy="93.7207" fill="#84BE84" rx="3" ry="3" style="stroke:#038048;stroke-width:1.0;"/><text fill="#000000" font-family="sans-serif" font-size="14" lengthAdjust="spacing" textLength="629" x="1343.5" y="97.5117">void update(Connection connection, EuroCoinCollectionGroup group) throws SQLException</text><ellipse cx="1334.5" cy="110.209" fill="#84BE84" rx="3" ry="3" style="stroke:#038048;stroke-width:1.0;"/><text fill="#000000" font-family="sans-serif" font-size="14" lengthAdjust="spacing" textLength="459" x="1343.5" y="114">void delete(Connection connection, String id) throws SQLException</text><ellipse cx="1334.5" cy="126.6973" fill="#84BE84" rx="3" ry="3" style="stroke:#038048;stroke-width:1.0;"/><text fill="#000000" font-family="sans-serif" font-size="14" lengthAdjust="spacing" textLength="725" x="1343.5" y="130.4883">List&lt;EuroCoinCollectionGroup&gt; getAllByUser(Connection connection, String userId) throws SQLException</text><ellipse cx="1334.5" cy="143.1855" fill="#84BE84" rx="3" ry="3" style="stroke:#038048;stroke-width:1.0;"/><text fill="#000000" font-family="sans-serif" font-size="14" lengthAdjust="spacing" textLength="484" x="1343.5" y="146.9766">boolean exists(Connection connection, String id) throws SQLException</text></g><!--class UserStorageRepository--><g id="elem_UserStorageRepository"><rect codeLine="29" fill="#F1F1F1" height="130.4414" id="UserStorageRepository" rx="2.5" ry="2.5" style="stroke:#181818;stroke-width:0.5;" width="732" x="2110" y="15.24"/><ellipse cx="2393.25" cy="31.24" fill="#B4A7E5" rx="11" ry="11" style="stroke:#181818;stroke-width:1.0;"/><path d="M2389.6777,27.5051 L2389.6777,25.3469 L2397.0571,25.3469 L2397.0571,27.5051 L2394.5918,27.5051 L2394.5918,35.5818 L2397.0571,35.5818 L2397.0571,37.74 L2389.6777,37.74 L2389.6777,35.5818 L2392.1431,35.5818 L2392.1431,27.5051 Z " fill="#000000"/><text fill="#000000" font-family="sans-serif" font-size="14" font-style="italic" lengthAdjust="spacing" textLength="157" x="2413.75" y="36.531">UserStorageRepository</text><line style="stroke:#181818;stroke-width:0.5;" x1="2111" x2="2841" y1="47.24" y2="47.24"/><line style="stroke:#181818;stroke-width:0.5;" x1="2111" x2="2841" y1="55.24" y2="55.24"/><ellipse cx="2121" cy="68.9841" fill="#84BE84" rx="3" ry="3" style="stroke:#038048;stroke-width:1.0;"/><text fill="#000000" font-family="sans-serif" font-size="14" lengthAdjust="spacing" textLength="466" x="2130" y="72.7752">void create(Connection connection, User user) throws SQLException</text><ellipse cx="2121" cy="85.4724" fill="#84BE84" rx="3" ry="3" style="stroke:#038048;stroke-width:1.0;"/><text fill="#000000" font-family="sans-serif" font-size="14" lengthAdjust="spacing" textLength="706" x="2130" y="89.2634">Optional&lt;EuroCoinCollectionGroup&gt; read(Connection connection, String userId) throws SQLException</text><ellipse cx="2121" cy="101.9607" fill="#84BE84" rx="3" ry="3" style="stroke:#038048;stroke-width:1.0;"/><text fill="#000000" font-family="sans-serif" font-size="14" lengthAdjust="spacing" textLength="472" x="2130" y="105.7517">void update(Connection connection, User user) throws SQLException</text><ellipse cx="2121" cy="118.449" fill="#84BE84" rx="3" ry="3" style="stroke:#038048;stroke-width:1.0;"/><text fill="#000000" font-family="sans-serif" font-size="14" lengthAdjust="spacing" textLength="489" x="2130" y="122.24">void delete(Connection connection, String userId) throws SQLException</text><ellipse cx="2121" cy="134.9373" fill="#84BE84" rx="3" ry="3" style="stroke:#038048;stroke-width:1.0;"/><text fill="#000000" font-family="sans-serif" font-size="14" lengthAdjust="spacing" textLength="484" x="2130" y="138.7283">boolean exists(Connection connection, String id) throws SQLException</text></g><!--class EuroCoinSqliteRepository--><g id="elem_EuroCoinSqliteRepository"><rect codeLine="38" fill="#F1F1F1" height="97.4648" id="EuroCoinSqliteRepository" rx="2.5" ry="2.5" style="stroke:#181818;stroke-width:0.5;" width="300" x="152" y="213.93"/><ellipse cx="210.25" cy="229.93" fill="#ADD1B2" rx="11" ry="11" style="stroke:#181818;stroke-width:1.0;"/><path d="M212.7231,236.0731 Q212.1421,236.3719 211.5029,236.5213 Q210.8638,236.6707 210.1582,236.6707 Q207.6514,236.6707 206.3315,235.0189 Q205.0117,233.367 205.0117,230.2459 Q205.0117,227.1165 206.3315,225.4647 Q207.6514,223.8128 210.1582,223.8128 Q210.8638,223.8128 211.5112,223.9622 Q212.1587,224.1116 212.7231,224.4105 L212.7231,227.1331 Q212.0923,226.5521 211.4988,226.2823 Q210.9053,226.0125 210.2744,226.0125 Q208.9297,226.0125 208.2449,227.0792 Q207.5601,228.1458 207.5601,230.2459 Q207.5601,232.3377 208.2449,233.4044 Q208.9297,234.471 210.2744,234.471 Q210.9053,234.471 211.4988,234.2012 Q212.0923,233.9315 212.7231,233.3504 Z " fill="#000000"/><text fill="#000000" font-family="sans-serif" font-size="14" lengthAdjust="spacing" textLength="175" x="230.75" y="235.221">EuroCoinSqliteRepository</text><line style="stroke:#181818;stroke-width:0.5;" x1="153" x2="451" y1="245.93" y2="245.93"/><rect fill="none" height="6" style="stroke:#C82930;stroke-width:1.0;" width="6" x="160" y="256.6741"/><text fill="#000000" font-family="sans-serif" font-size="14" lengthAdjust="spacing" textLength="179" x="172" y="263.4652">static final logger : Logger</text><rect fill="none" height="6" style="stroke:#C82930;stroke-width:1.0;" width="6" x="160" y="273.1624"/><text fill="#000000" font-family="sans-serif" font-size="14" lengthAdjust="spacing" textLength="126" x="172" y="279.9534">tableName : String</text><rect fill="none" height="6" style="stroke:#C82930;stroke-width:1.0;" width="6" x="160" y="289.6507"/><text fill="#000000" font-family="sans-serif" font-size="14" lengthAdjust="spacing" textLength="274" x="172" y="296.4417">final euroCoinFactory : EuroCoinFactory</text><line style="stroke:#181818;stroke-width:0.5;" x1="153" x2="451" y1="303.3948" y2="303.3948"/></g><!--class EuroCoinCollectionSqliteRepository--><g id="elem_EuroCoinCollectionSqliteRepository"><rect codeLine="44" fill="#F1F1F1" height="97.4648" id="EuroCoinCollectionSqliteRepository" rx="2.5" ry="2.5" style="stroke:#181818;stroke-width:0.5;" width="438" x="741" y="213.93"/><ellipse cx="833.75" cy="229.93" fill="#ADD1B2" rx="11" ry="11" style="stroke:#181818;stroke-width:1.0;"/><path d="M836.2231,236.0731 Q835.6421,236.3719 835.0029,236.5213 Q834.3638,236.6707 833.6582,236.6707 Q831.1514,236.6707 829.8315,235.0189 Q828.5117,233.367 828.5117,230.2459 Q828.5117,227.1165 829.8315,225.4647 Q831.1514,223.8128 833.6582,223.8128 Q834.3638,223.8128 835.0112,223.9622 Q835.6587,224.1116 836.2231,224.4105 L836.2231,227.1331 Q835.5923,226.5521 834.9988,226.2823 Q834.4053,226.0125 833.7744,226.0125 Q832.4297,226.0125 831.7449,227.0792 Q831.0601,228.1458 831.0601,230.2459 Q831.0601,232.3377 831.7449,233.4044 Q832.4297,234.471 833.7744,234.471 Q834.4053,234.471 834.9988,234.2012 Q835.5923,233.9315 836.2231,233.3504 Z " fill="#000000"/><text fill="#000000" font-family="sans-serif" font-size="14" lengthAdjust="spacing" textLength="244" x="854.25" y="235.221">EuroCoinCollectionSqliteRepository</text><line style="stroke:#181818;stroke-width:0.5;" x1="742" x2="1178" y1="245.93" y2="245.93"/><rect fill="none" height="6" style="stroke:#C82930;stroke-width:1.0;" width="6" x="749" y="256.6741"/><text fill="#000000" font-family="sans-serif" font-size="14" lengthAdjust="spacing" textLength="179" x="761" y="263.4652">static final logger : Logger</text><rect fill="none" height="6" style="stroke:#C82930;stroke-width:1.0;" width="6" x="749" y="273.1624"/><text fill="#000000" font-family="sans-serif" font-size="14" lengthAdjust="spacing" textLength="126" x="761" y="279.9534">tableName : String</text><rect fill="none" height="6" style="stroke:#C82930;stroke-width:1.0;" width="6" x="749" y="289.6507"/><text fill="#000000" font-family="sans-serif" font-size="14" lengthAdjust="spacing" textLength="412" x="761" y="296.4417">final euroCoinCollectionFactory : EuroCoinCollectionFactory</text><line style="stroke:#181818;stroke-width:0.5;" x1="742" x2="1178" y1="303.3948" y2="303.3948"/></g><!--class EuroCoinCollectionGroupSqliteRepository--><g id="elem_EuroCoinCollectionGroupSqliteRepository"><rect codeLine="50" fill="#F1F1F1" height="97.4648" id="EuroCoinCollectionGroupSqliteRepository" rx="2.5" ry="2.5" style="stroke:#181818;stroke-width:0.5;" width="524" x="1437" y="213.93"/><ellipse cx="1551.25" cy="229.93" fill="#ADD1B2" rx="11" ry="11" style="stroke:#181818;stroke-width:1.0;"/><path d="M1553.7231,236.0731 Q1553.1421,236.3719 1552.5029,236.5213 Q1551.8638,236.6707 1551.1582,236.6707 Q1548.6514,236.6707 1547.3315,235.0189 Q1546.0117,233.367 1546.0117,230.2459 Q1546.0117,227.1165 1547.3315,225.4647 Q1548.6514,223.8128 1551.1582,223.8128 Q1551.8638,223.8128 1552.5112,223.9622 Q1553.1587,224.1116 1553.7231,224.4105 L1553.7231,227.1331 Q1553.0923,226.5521 1552.4988,226.2823 Q1551.9053,226.0125 1551.2744,226.0125 Q1549.9297,226.0125 1549.2449,227.0792 Q1548.5601,228.1458 1548.5601,230.2459 Q1548.5601,232.3377 1549.2449,233.4044 Q1549.9297,234.471 1551.2744,234.471 Q1551.9053,234.471 1552.4988,234.2012 Q1553.0923,233.9315 1553.7231,233.3504 Z " fill="#000000"/><text fill="#000000" font-family="sans-serif" font-size="14" lengthAdjust="spacing" textLength="287" x="1571.75" y="235.221">EuroCoinCollectionGroupSqliteRepository</text><line style="stroke:#181818;stroke-width:0.5;" x1="1438" x2="1960" y1="245.93" y2="245.93"/><rect fill="none" height="6" style="stroke:#C82930;stroke-width:1.0;" width="6" x="1445" y="256.6741"/><text fill="#000000" font-family="sans-serif" font-size="14" lengthAdjust="spacing" textLength="179" x="1457" y="263.4652">static final logger : Logger</text><rect fill="none" height="6" style="stroke:#C82930;stroke-width:1.0;" width="6" x="1445" y="273.1624"/><text fill="#000000" font-family="sans-serif" font-size="14" lengthAdjust="spacing" textLength="126" x="1457" y="279.9534">tableName : String</text><rect fill="none" height="6" style="stroke:#C82930;stroke-width:1.0;" width="6" x="1445" y="289.6507"/><text fill="#000000" font-family="sans-serif" font-size="14" lengthAdjust="spacing" textLength="498" x="1457" y="296.4417">final euroCoinCollectionGroupFactory : EuroCoinCollectionGroupFactory</text><line style="stroke:#181818;stroke-width:0.5;" x1="1438" x2="1960" y1="303.3948" y2="303.3948"/></g><!--class UserSqliteRepository--><g id="elem_UserSqliteRepository"><rect codeLine="56" fill="#F1F1F1" height="97.4648" id="UserSqliteRepository" rx="2.5" ry="2.5" style="stroke:#181818;stroke-width:0.5;" width="233" x="2359.5" y="213.93"/><ellipse cx="2401.05" cy="229.93" fill="#ADD1B2" rx="11" ry="11" style="stroke:#181818;stroke-width:1.0;"/><path d="M2403.5231,236.0731 Q2402.9421,236.3719 2402.3029,236.5213 Q2401.6638,236.6707 2400.9582,236.6707 Q2398.4514,236.6707 2397.1315,235.0189 Q2395.8117,233.367 2395.8117,230.2459 Q2395.8117,227.1165 2397.1315,225.4647 Q2398.4514,223.8128 2400.9582,223.8128 Q2401.6638,223.8128 2402.3112,223.9622 Q2402.9587,224.1116 2403.5231,224.4105 L2403.5231,227.1331 Q2402.8923,226.5521 2402.2988,226.2823 Q2401.7053,226.0125 2401.0744,226.0125 Q2399.7297,226.0125 2399.0449,227.0792 Q2398.3601,228.1458 2398.3601,230.2459 Q2398.3601,232.3377 2399.0449,233.4044 Q2399.7297,234.471 2401.0744,234.471 Q2401.7053,234.471 2402.2988,234.2012 Q2402.8923,233.9315 2403.5231,233.3504 Z " fill="#000000"/><text fill="#000000" font-family="sans-serif" font-size="14" lengthAdjust="spacing" textLength="142" x="2420.95" y="235.221">UserSqliteRepository</text><line style="stroke:#181818;stroke-width:0.5;" x1="2360.5" x2="2591.5" y1="245.93" y2="245.93"/><rect fill="none" height="6" style="stroke:#C82930;stroke-width:1.0;" width="6" x="2367.5" y="256.6741"/><text fill="#000000" font-family="sans-serif" font-size="14" lengthAdjust="spacing" textLength="179" x="2379.5" y="263.4652">static final logger : Logger</text><rect fill="none" height="6" style="stroke:#C82930;stroke-width:1.0;" width="6" x="2367.5" y="273.1624"/><text fill="#000000" font-family="sans-serif" font-size="14" lengthAdjust="spacing" textLength="126" x="2379.5" y="279.9534">tableName : String</text><rect fill="none" height="6" style="stroke:#C82930;stroke-width:1.0;" width="6" x="2367.5" y="289.6507"/><text fill="#000000" font-family="sans-serif" font-size="14" lengthAdjust="spacing" textLength="207" x="2379.5" y="296.4417">final userFactory : UserFactory</text><line style="stroke:#181818;stroke-width:0.5;" x1="2360.5" x2="2591.5" y1="303.3948" y2="303.3948"/></g><!--reverse link EuroCoinStorageRepository to EuroCoinSqliteRepository--><g id="link_EuroCoinStorageRepository_EuroCoinSqliteRepository"><path codeLine="62" d="M302,172.23 C302,192.16 302,195.26 302,213.44 " fill="none" id="EuroCoinStorageRepository-backto-EuroCoinSqliteRepository" style="stroke:#181818;stroke-width:1.0;stroke-dasharray:7.0,7.0;"/><polygon fill="none" points="302,154.23,296,172.23,308,172.23,302,154.23" style="stroke:#181818;stroke-width:1.0;"/></g><!--reverse link EuroCoinCollectionStorageRepository to EuroCoinCollectionSqliteRepository--><g id="link_EuroCoinCollectionStorageRepository_EuroCoinCollectionSqliteRepository"><path codeLine="63" d="M960,172.23 C960,192.16 960,195.26 960,213.44 " fill="none" id="EuroCoinCollectionStorageRepository-backto-EuroCoinCollectionSqliteRepository" style="stroke:#181818;stroke-width:1.0;stroke-dasharray:7.0,7.0;"/><polygon fill="none" points="960,154.23,954,172.23,966,172.23,960,154.23" style="stroke:#181818;stroke-width:1.0;"/></g><!--reverse link EuroCoinCollectionGroupStorageRepository to EuroCoinCollectionGroupSqliteRepository--><g id="link_EuroCoinCollectionGroupStorageRepository_EuroCoinCollectionGroupSqliteRepository"><path codeLine="64" d="M1699,172.23 C1699,192.16 1699,195.26 1699,213.44 " fill="none" id="EuroCoinCollectionGroupStorageRepository-backto-EuroCoinCollectionGroupSqliteRepository" style="stroke:#181818;stroke-width:1.0;stroke-dasharray:7.0,7.0;"/><polygon fill="none" points="1699,154.23,1693,172.23,1705,172.23,1699,154.23" style="stroke:#181818;stroke-width:1.0;"/></g><!--reverse link UserStorageRepository to UserSqliteRepository--><g id="link_UserStorageRepository_UserSqliteRepository"><path codeLine="65" d="M2476,164.01 C2476,186.32 2476,192.92 2476,213.68 " fill="none" id="UserStorageRepository-backto-UserSqliteRepository" style="stroke:#181818;stroke-width:1.0;stroke-dasharray:7.0,7.0;"/><polygon fill="none" points="2476,146.01,2470,164.01,2482,164.01,2476,146.01" style="stroke:#181818;stroke-width:1.0;"/></g><!--SRC=[lPRHJeCm58RlUOfpgL7t0CjYeeiQaqMZonwWAsVOfBRO5jsYlhkbiC5aiB8nk225jl_vslDpA1C6rO9GXBj4oR5aOcga8X6-OYmri-qLV0TWhmlub2m4gf0OF1jB8P0Q9WNGJVDo8s9VCd4Evat9BmtJbydTacASZicrdjq3uQFrZ6kmmc6TxjGe9Y9WOPEcuqlYi0i-fnKYntejBwO9qwQqnWZD3UTrYar2Soav4W6uj8hwGARV862LX8ybvzdyJb9VoDdkTRE4m_TQeL1eRmf-X2bQanze4jvealBglUt2kxCBzxRBWv99tB5dd2P4wRrL-VYdq6yrQOr_akfIsOBCFRUhcKQr9qnYXpo6_TQV5EiezwG2ZlpaJjc_FHvkySBrTqP_AGie9reN1uGFpamrPLUW3J6CmeBPxGOkeyYkTmWJryY763Bd-4JUqNPaWVEER1Bc8Uu9TSh3JT3yJOgpJLFwUvsUgmXM9QpqDR5cfRDFO1UnYReye41t7-dfE5CJ5r2puYabg3-HZdu6Wre_1Zu7cos5UWy5td-z6i6TYGvsbpudiMl3Wpy0]--></g></svg>